G04 EAGLE Gerber RS-274X export*
G75*
%MOMM*%
%FSLAX34Y34*%
%LPD*%
%INTop Copper*%
%IPPOS*%
%AMOC8*
5,1,8,0,0,1.08239X$1,22.5*%
G01*
%ADD10R,1.800000X1.600000*%
%ADD11R,1.600000X1.800000*%
%ADD12P,1.732040X8X292.500000*%
%ADD13R,0.609600X1.524000*%
%ADD14R,2.235200X1.219200*%
%ADD15R,2.200000X3.600000*%
%ADD16R,1.800000X1.200000*%
%ADD17P,4.123906X8X22.500000*%
%ADD18R,1.600000X1.803000*%
%ADD19C,1.524000*%
%ADD20C,0.121900*%
%ADD21C,0.220000*%
%ADD22R,1.350000X0.290000*%
%ADD23R,0.290000X1.350000*%
%ADD24R,2.540000X2.540000*%
%ADD25C,2.540000*%
%ADD26R,1.524000X0.609600*%
%ADD27P,1.732040X8X22.500000*%
%ADD28R,1.219200X2.235200*%
%ADD29R,3.600000X2.200000*%
%ADD30R,1.200000X1.800000*%
%ADD31P,4.123906X8X112.500000*%
%ADD32R,1.803000X1.600000*%
%ADD33C,0.304800*%
%ADD34C,0.756400*%
%ADD35C,0.635000*%
%ADD36C,1.270000*%
%ADD37C,0.406400*%
%ADD38C,0.508000*%
%ADD39C,2.540000*%


D10*
X463550Y249525D03*
X463550Y277525D03*
D11*
X264825Y250825D03*
X236825Y250825D03*
D10*
X876300Y290800D03*
X876300Y318800D03*
X555625Y389225D03*
X555625Y417225D03*
X660400Y389225D03*
X660400Y417225D03*
X774700Y389225D03*
X774700Y417225D03*
D12*
X425450Y419100D03*
X425450Y393700D03*
D11*
X439450Y215900D03*
X411450Y215900D03*
X439450Y190500D03*
X411450Y190500D03*
X439450Y161925D03*
X411450Y161925D03*
D10*
X501650Y20925D03*
X501650Y48925D03*
X488950Y277525D03*
X488950Y249525D03*
X641350Y201900D03*
X641350Y229900D03*
D11*
X313025Y304800D03*
X341025Y304800D03*
D10*
X82550Y182275D03*
X82550Y154275D03*
D13*
X749300Y330200D03*
X736600Y330200D03*
X723900Y330200D03*
X711200Y330200D03*
X749300Y384810D03*
X736600Y384810D03*
X723900Y384810D03*
X711200Y384810D03*
X641350Y330200D03*
X628650Y330200D03*
X615950Y330200D03*
X603250Y330200D03*
X641350Y384810D03*
X628650Y384810D03*
X615950Y384810D03*
X603250Y384810D03*
X533400Y330200D03*
X520700Y330200D03*
X508000Y330200D03*
X495300Y330200D03*
X533400Y384810D03*
X520700Y384810D03*
X508000Y384810D03*
X495300Y384810D03*
D14*
X372237Y327914D03*
X372237Y304800D03*
X372237Y281686D03*
D15*
X434215Y304800D03*
D16*
X539750Y37475D03*
X539750Y70475D03*
D17*
X482600Y533400D03*
X533400Y546100D03*
X584200Y558800D03*
D18*
X246130Y158750D03*
X274570Y158750D03*
X236605Y187325D03*
X265045Y187325D03*
X236605Y215900D03*
X265045Y215900D03*
D19*
X450850Y74295D02*
X450850Y59055D01*
X425450Y59055D02*
X425450Y74295D01*
X400050Y74295D02*
X400050Y59055D01*
X374650Y59055D02*
X374650Y74295D01*
X679450Y67945D02*
X679450Y52705D01*
X654050Y52705D02*
X654050Y67945D01*
X628650Y67945D02*
X628650Y52705D01*
X603250Y52705D02*
X603250Y67945D01*
D20*
X270156Y49051D02*
X270156Y38079D01*
X249024Y38079D01*
X249024Y49051D01*
X270156Y49051D01*
X270156Y39237D02*
X249024Y39237D01*
X249024Y40395D02*
X270156Y40395D01*
X270156Y41553D02*
X249024Y41553D01*
X249024Y42711D02*
X270156Y42711D01*
X270156Y43869D02*
X249024Y43869D01*
X249024Y45027D02*
X270156Y45027D01*
X270156Y46185D02*
X249024Y46185D01*
X249024Y47343D02*
X270156Y47343D01*
X270156Y48501D02*
X249024Y48501D01*
X270156Y61189D02*
X270156Y72161D01*
X270156Y61189D02*
X249024Y61189D01*
X249024Y72161D01*
X270156Y72161D01*
X270156Y62347D02*
X249024Y62347D01*
X249024Y63505D02*
X270156Y63505D01*
X270156Y64663D02*
X249024Y64663D01*
X249024Y65821D02*
X270156Y65821D01*
X270156Y66979D02*
X249024Y66979D01*
X249024Y68137D02*
X270156Y68137D01*
X270156Y69295D02*
X249024Y69295D01*
X249024Y70453D02*
X270156Y70453D01*
X270156Y71611D02*
X249024Y71611D01*
X270156Y84299D02*
X270156Y95271D01*
X270156Y84299D02*
X249024Y84299D01*
X249024Y95271D01*
X270156Y95271D01*
X270156Y85457D02*
X249024Y85457D01*
X249024Y86615D02*
X270156Y86615D01*
X270156Y87773D02*
X249024Y87773D01*
X249024Y88931D02*
X270156Y88931D01*
X270156Y90089D02*
X249024Y90089D01*
X249024Y91247D02*
X270156Y91247D01*
X270156Y92405D02*
X249024Y92405D01*
X249024Y93563D02*
X270156Y93563D01*
X270156Y94721D02*
X249024Y94721D01*
D21*
X207510Y83575D02*
X207510Y49775D01*
X187710Y49775D01*
X187710Y83575D01*
X207510Y83575D01*
X207510Y51865D02*
X187710Y51865D01*
X187710Y53955D02*
X207510Y53955D01*
X207510Y56045D02*
X187710Y56045D01*
X187710Y58135D02*
X207510Y58135D01*
X207510Y60225D02*
X187710Y60225D01*
X187710Y62315D02*
X207510Y62315D01*
X207510Y64405D02*
X187710Y64405D01*
X187710Y66495D02*
X207510Y66495D01*
X207510Y68585D02*
X187710Y68585D01*
X187710Y70675D02*
X207510Y70675D01*
X207510Y72765D02*
X187710Y72765D01*
X187710Y74855D02*
X207510Y74855D01*
X207510Y76945D02*
X187710Y76945D01*
X187710Y79035D02*
X207510Y79035D01*
X207510Y81125D02*
X187710Y81125D01*
X187710Y83215D02*
X207510Y83215D01*
D22*
X487050Y161925D03*
X487050Y166925D03*
X487050Y171925D03*
X487050Y176925D03*
X487050Y181925D03*
X487050Y186925D03*
X487050Y156925D03*
X487050Y151925D03*
X487050Y146925D03*
X487050Y141925D03*
X487050Y136925D03*
X487050Y191925D03*
X572050Y161925D03*
X572050Y156925D03*
X572050Y151925D03*
X572050Y146925D03*
X572050Y136925D03*
X572050Y141925D03*
X572050Y166925D03*
X572050Y171925D03*
X572050Y176925D03*
X572050Y181925D03*
X572050Y186925D03*
X572050Y191925D03*
D23*
X527050Y206925D03*
X522050Y206925D03*
X517050Y206925D03*
X512050Y206925D03*
X507050Y206925D03*
X502050Y206925D03*
X532050Y206925D03*
X537050Y206925D03*
X542050Y206925D03*
X547050Y206925D03*
X552050Y206925D03*
X557050Y206925D03*
X502050Y121925D03*
X507050Y121925D03*
X512050Y121925D03*
X517050Y121925D03*
X522050Y121925D03*
X527050Y121925D03*
X537050Y121925D03*
X532050Y121925D03*
X542050Y121925D03*
X547050Y121925D03*
X552050Y121925D03*
X557050Y121925D03*
D24*
G36*
X298889Y419751D02*
X316849Y437711D01*
X334809Y419751D01*
X316849Y401791D01*
X298889Y419751D01*
G37*
D25*
X292100Y395003D03*
X267351Y370254D03*
X242603Y345505D03*
X217854Y320756D03*
X193105Y296008D03*
X292100Y444500D03*
X267351Y419751D03*
X242603Y395003D03*
X217854Y370254D03*
X193105Y345505D03*
X168356Y320756D03*
D26*
X123825Y158750D03*
X123825Y171450D03*
X123825Y184150D03*
X123825Y196850D03*
X178435Y158750D03*
X178435Y171450D03*
X178435Y184150D03*
X178435Y196850D03*
D13*
X800100Y330200D03*
X812800Y330200D03*
X825500Y330200D03*
X838200Y330200D03*
X800100Y275590D03*
X812800Y275590D03*
X825500Y275590D03*
X838200Y275590D03*
X533400Y419100D03*
X520700Y419100D03*
X508000Y419100D03*
X495300Y419100D03*
X533400Y473710D03*
X520700Y473710D03*
X508000Y473710D03*
X495300Y473710D03*
X641350Y419100D03*
X628650Y419100D03*
X615950Y419100D03*
X603250Y419100D03*
X641350Y473710D03*
X628650Y473710D03*
X615950Y473710D03*
X603250Y473710D03*
X749300Y419100D03*
X736600Y419100D03*
X723900Y419100D03*
X711200Y419100D03*
X749300Y473710D03*
X736600Y473710D03*
X723900Y473710D03*
X711200Y473710D03*
D10*
X463550Y871825D03*
X463550Y899825D03*
D11*
X264825Y873125D03*
X236825Y873125D03*
D10*
X876300Y913100D03*
X876300Y941100D03*
X555625Y1011525D03*
X555625Y1039525D03*
X660400Y1011525D03*
X660400Y1039525D03*
X774700Y1011525D03*
X774700Y1039525D03*
D12*
X425450Y1041400D03*
X425450Y1016000D03*
D11*
X439450Y838200D03*
X411450Y838200D03*
X439450Y812800D03*
X411450Y812800D03*
X439450Y784225D03*
X411450Y784225D03*
D10*
X501650Y643225D03*
X501650Y671225D03*
X488950Y899825D03*
X488950Y871825D03*
X641350Y824200D03*
X641350Y852200D03*
D11*
X313025Y927100D03*
X341025Y927100D03*
D10*
X82550Y804575D03*
X82550Y776575D03*
D13*
X749300Y952500D03*
X736600Y952500D03*
X723900Y952500D03*
X711200Y952500D03*
X749300Y1007110D03*
X736600Y1007110D03*
X723900Y1007110D03*
X711200Y1007110D03*
X641350Y952500D03*
X628650Y952500D03*
X615950Y952500D03*
X603250Y952500D03*
X641350Y1007110D03*
X628650Y1007110D03*
X615950Y1007110D03*
X603250Y1007110D03*
X533400Y952500D03*
X520700Y952500D03*
X508000Y952500D03*
X495300Y952500D03*
X533400Y1007110D03*
X520700Y1007110D03*
X508000Y1007110D03*
X495300Y1007110D03*
D14*
X372237Y950214D03*
X372237Y927100D03*
X372237Y903986D03*
D15*
X434215Y927100D03*
D16*
X539750Y659775D03*
X539750Y692775D03*
D17*
X482600Y1155700D03*
X533400Y1168400D03*
X584200Y1181100D03*
D18*
X246130Y781050D03*
X274570Y781050D03*
X236605Y809625D03*
X265045Y809625D03*
X236605Y838200D03*
X265045Y838200D03*
D19*
X450850Y696595D02*
X450850Y681355D01*
X425450Y681355D02*
X425450Y696595D01*
X400050Y696595D02*
X400050Y681355D01*
X374650Y681355D02*
X374650Y696595D01*
X679450Y690245D02*
X679450Y675005D01*
X654050Y675005D02*
X654050Y690245D01*
X628650Y690245D02*
X628650Y675005D01*
X603250Y675005D02*
X603250Y690245D01*
D20*
X270156Y671351D02*
X270156Y660379D01*
X249024Y660379D01*
X249024Y671351D01*
X270156Y671351D01*
X270156Y661537D02*
X249024Y661537D01*
X249024Y662695D02*
X270156Y662695D01*
X270156Y663853D02*
X249024Y663853D01*
X249024Y665011D02*
X270156Y665011D01*
X270156Y666169D02*
X249024Y666169D01*
X249024Y667327D02*
X270156Y667327D01*
X270156Y668485D02*
X249024Y668485D01*
X249024Y669643D02*
X270156Y669643D01*
X270156Y670801D02*
X249024Y670801D01*
X270156Y683489D02*
X270156Y694461D01*
X270156Y683489D02*
X249024Y683489D01*
X249024Y694461D01*
X270156Y694461D01*
X270156Y684647D02*
X249024Y684647D01*
X249024Y685805D02*
X270156Y685805D01*
X270156Y686963D02*
X249024Y686963D01*
X249024Y688121D02*
X270156Y688121D01*
X270156Y689279D02*
X249024Y689279D01*
X249024Y690437D02*
X270156Y690437D01*
X270156Y691595D02*
X249024Y691595D01*
X249024Y692753D02*
X270156Y692753D01*
X270156Y693911D02*
X249024Y693911D01*
X270156Y706599D02*
X270156Y717571D01*
X270156Y706599D02*
X249024Y706599D01*
X249024Y717571D01*
X270156Y717571D01*
X270156Y707757D02*
X249024Y707757D01*
X249024Y708915D02*
X270156Y708915D01*
X270156Y710073D02*
X249024Y710073D01*
X249024Y711231D02*
X270156Y711231D01*
X270156Y712389D02*
X249024Y712389D01*
X249024Y713547D02*
X270156Y713547D01*
X270156Y714705D02*
X249024Y714705D01*
X249024Y715863D02*
X270156Y715863D01*
X270156Y717021D02*
X249024Y717021D01*
D21*
X207510Y705875D02*
X207510Y672075D01*
X187710Y672075D01*
X187710Y705875D01*
X207510Y705875D01*
X207510Y674165D02*
X187710Y674165D01*
X187710Y676255D02*
X207510Y676255D01*
X207510Y678345D02*
X187710Y678345D01*
X187710Y680435D02*
X207510Y680435D01*
X207510Y682525D02*
X187710Y682525D01*
X187710Y684615D02*
X207510Y684615D01*
X207510Y686705D02*
X187710Y686705D01*
X187710Y688795D02*
X207510Y688795D01*
X207510Y690885D02*
X187710Y690885D01*
X187710Y692975D02*
X207510Y692975D01*
X207510Y695065D02*
X187710Y695065D01*
X187710Y697155D02*
X207510Y697155D01*
X207510Y699245D02*
X187710Y699245D01*
X187710Y701335D02*
X207510Y701335D01*
X207510Y703425D02*
X187710Y703425D01*
X187710Y705515D02*
X207510Y705515D01*
D22*
X487050Y784225D03*
X487050Y789225D03*
X487050Y794225D03*
X487050Y799225D03*
X487050Y804225D03*
X487050Y809225D03*
X487050Y779225D03*
X487050Y774225D03*
X487050Y769225D03*
X487050Y764225D03*
X487050Y759225D03*
X487050Y814225D03*
X572050Y784225D03*
X572050Y779225D03*
X572050Y774225D03*
X572050Y769225D03*
X572050Y759225D03*
X572050Y764225D03*
X572050Y789225D03*
X572050Y794225D03*
X572050Y799225D03*
X572050Y804225D03*
X572050Y809225D03*
X572050Y814225D03*
D23*
X527050Y829225D03*
X522050Y829225D03*
X517050Y829225D03*
X512050Y829225D03*
X507050Y829225D03*
X502050Y829225D03*
X532050Y829225D03*
X537050Y829225D03*
X542050Y829225D03*
X547050Y829225D03*
X552050Y829225D03*
X557050Y829225D03*
X502050Y744225D03*
X507050Y744225D03*
X512050Y744225D03*
X517050Y744225D03*
X522050Y744225D03*
X527050Y744225D03*
X537050Y744225D03*
X532050Y744225D03*
X542050Y744225D03*
X547050Y744225D03*
X552050Y744225D03*
X557050Y744225D03*
D24*
G36*
X298889Y1042051D02*
X316849Y1060011D01*
X334809Y1042051D01*
X316849Y1024091D01*
X298889Y1042051D01*
G37*
D25*
X292100Y1017303D03*
X267351Y992554D03*
X242603Y967805D03*
X217854Y943056D03*
X193105Y918308D03*
X292100Y1066800D03*
X267351Y1042051D03*
X242603Y1017303D03*
X217854Y992554D03*
X193105Y967805D03*
X168356Y943056D03*
D26*
X123825Y781050D03*
X123825Y793750D03*
X123825Y806450D03*
X123825Y819150D03*
X178435Y781050D03*
X178435Y793750D03*
X178435Y806450D03*
X178435Y819150D03*
D13*
X800100Y952500D03*
X812800Y952500D03*
X825500Y952500D03*
X838200Y952500D03*
X800100Y897890D03*
X812800Y897890D03*
X825500Y897890D03*
X838200Y897890D03*
X533400Y1041400D03*
X520700Y1041400D03*
X508000Y1041400D03*
X495300Y1041400D03*
X533400Y1096010D03*
X520700Y1096010D03*
X508000Y1096010D03*
X495300Y1096010D03*
X641350Y1041400D03*
X628650Y1041400D03*
X615950Y1041400D03*
X603250Y1041400D03*
X641350Y1096010D03*
X628650Y1096010D03*
X615950Y1096010D03*
X603250Y1096010D03*
X749300Y1041400D03*
X736600Y1041400D03*
X723900Y1041400D03*
X711200Y1041400D03*
X749300Y1096010D03*
X736600Y1096010D03*
X723900Y1096010D03*
X711200Y1096010D03*
D10*
X463550Y1494125D03*
X463550Y1522125D03*
D11*
X264825Y1495425D03*
X236825Y1495425D03*
D10*
X876300Y1535400D03*
X876300Y1563400D03*
X555625Y1633825D03*
X555625Y1661825D03*
X660400Y1633825D03*
X660400Y1661825D03*
X774700Y1633825D03*
X774700Y1661825D03*
D12*
X425450Y1663700D03*
X425450Y1638300D03*
D11*
X439450Y1460500D03*
X411450Y1460500D03*
X439450Y1435100D03*
X411450Y1435100D03*
X439450Y1406525D03*
X411450Y1406525D03*
D10*
X501650Y1265525D03*
X501650Y1293525D03*
X488950Y1522125D03*
X488950Y1494125D03*
X641350Y1446500D03*
X641350Y1474500D03*
D11*
X313025Y1549400D03*
X341025Y1549400D03*
D10*
X82550Y1426875D03*
X82550Y1398875D03*
D13*
X749300Y1574800D03*
X736600Y1574800D03*
X723900Y1574800D03*
X711200Y1574800D03*
X749300Y1629410D03*
X736600Y1629410D03*
X723900Y1629410D03*
X711200Y1629410D03*
X641350Y1574800D03*
X628650Y1574800D03*
X615950Y1574800D03*
X603250Y1574800D03*
X641350Y1629410D03*
X628650Y1629410D03*
X615950Y1629410D03*
X603250Y1629410D03*
X533400Y1574800D03*
X520700Y1574800D03*
X508000Y1574800D03*
X495300Y1574800D03*
X533400Y1629410D03*
X520700Y1629410D03*
X508000Y1629410D03*
X495300Y1629410D03*
D14*
X372237Y1572514D03*
X372237Y1549400D03*
X372237Y1526286D03*
D15*
X434215Y1549400D03*
D16*
X539750Y1282075D03*
X539750Y1315075D03*
D17*
X482600Y1778000D03*
X533400Y1790700D03*
X584200Y1803400D03*
D18*
X246130Y1403350D03*
X274570Y1403350D03*
X236605Y1431925D03*
X265045Y1431925D03*
X236605Y1460500D03*
X265045Y1460500D03*
D19*
X450850Y1318895D02*
X450850Y1303655D01*
X425450Y1303655D02*
X425450Y1318895D01*
X400050Y1318895D02*
X400050Y1303655D01*
X374650Y1303655D02*
X374650Y1318895D01*
X679450Y1312545D02*
X679450Y1297305D01*
X654050Y1297305D02*
X654050Y1312545D01*
X628650Y1312545D02*
X628650Y1297305D01*
X603250Y1297305D02*
X603250Y1312545D01*
D20*
X270156Y1293651D02*
X270156Y1282679D01*
X249024Y1282679D01*
X249024Y1293651D01*
X270156Y1293651D01*
X270156Y1283837D02*
X249024Y1283837D01*
X249024Y1284995D02*
X270156Y1284995D01*
X270156Y1286153D02*
X249024Y1286153D01*
X249024Y1287311D02*
X270156Y1287311D01*
X270156Y1288469D02*
X249024Y1288469D01*
X249024Y1289627D02*
X270156Y1289627D01*
X270156Y1290785D02*
X249024Y1290785D01*
X249024Y1291943D02*
X270156Y1291943D01*
X270156Y1293101D02*
X249024Y1293101D01*
X270156Y1305789D02*
X270156Y1316761D01*
X270156Y1305789D02*
X249024Y1305789D01*
X249024Y1316761D01*
X270156Y1316761D01*
X270156Y1306947D02*
X249024Y1306947D01*
X249024Y1308105D02*
X270156Y1308105D01*
X270156Y1309263D02*
X249024Y1309263D01*
X249024Y1310421D02*
X270156Y1310421D01*
X270156Y1311579D02*
X249024Y1311579D01*
X249024Y1312737D02*
X270156Y1312737D01*
X270156Y1313895D02*
X249024Y1313895D01*
X249024Y1315053D02*
X270156Y1315053D01*
X270156Y1316211D02*
X249024Y1316211D01*
X270156Y1328899D02*
X270156Y1339871D01*
X270156Y1328899D02*
X249024Y1328899D01*
X249024Y1339871D01*
X270156Y1339871D01*
X270156Y1330057D02*
X249024Y1330057D01*
X249024Y1331215D02*
X270156Y1331215D01*
X270156Y1332373D02*
X249024Y1332373D01*
X249024Y1333531D02*
X270156Y1333531D01*
X270156Y1334689D02*
X249024Y1334689D01*
X249024Y1335847D02*
X270156Y1335847D01*
X270156Y1337005D02*
X249024Y1337005D01*
X249024Y1338163D02*
X270156Y1338163D01*
X270156Y1339321D02*
X249024Y1339321D01*
D21*
X207510Y1328175D02*
X207510Y1294375D01*
X187710Y1294375D01*
X187710Y1328175D01*
X207510Y1328175D01*
X207510Y1296465D02*
X187710Y1296465D01*
X187710Y1298555D02*
X207510Y1298555D01*
X207510Y1300645D02*
X187710Y1300645D01*
X187710Y1302735D02*
X207510Y1302735D01*
X207510Y1304825D02*
X187710Y1304825D01*
X187710Y1306915D02*
X207510Y1306915D01*
X207510Y1309005D02*
X187710Y1309005D01*
X187710Y1311095D02*
X207510Y1311095D01*
X207510Y1313185D02*
X187710Y1313185D01*
X187710Y1315275D02*
X207510Y1315275D01*
X207510Y1317365D02*
X187710Y1317365D01*
X187710Y1319455D02*
X207510Y1319455D01*
X207510Y1321545D02*
X187710Y1321545D01*
X187710Y1323635D02*
X207510Y1323635D01*
X207510Y1325725D02*
X187710Y1325725D01*
X187710Y1327815D02*
X207510Y1327815D01*
D22*
X487050Y1406525D03*
X487050Y1411525D03*
X487050Y1416525D03*
X487050Y1421525D03*
X487050Y1426525D03*
X487050Y1431525D03*
X487050Y1401525D03*
X487050Y1396525D03*
X487050Y1391525D03*
X487050Y1386525D03*
X487050Y1381525D03*
X487050Y1436525D03*
X572050Y1406525D03*
X572050Y1401525D03*
X572050Y1396525D03*
X572050Y1391525D03*
X572050Y1381525D03*
X572050Y1386525D03*
X572050Y1411525D03*
X572050Y1416525D03*
X572050Y1421525D03*
X572050Y1426525D03*
X572050Y1431525D03*
X572050Y1436525D03*
D23*
X527050Y1451525D03*
X522050Y1451525D03*
X517050Y1451525D03*
X512050Y1451525D03*
X507050Y1451525D03*
X502050Y1451525D03*
X532050Y1451525D03*
X537050Y1451525D03*
X542050Y1451525D03*
X547050Y1451525D03*
X552050Y1451525D03*
X557050Y1451525D03*
X502050Y1366525D03*
X507050Y1366525D03*
X512050Y1366525D03*
X517050Y1366525D03*
X522050Y1366525D03*
X527050Y1366525D03*
X537050Y1366525D03*
X532050Y1366525D03*
X542050Y1366525D03*
X547050Y1366525D03*
X552050Y1366525D03*
X557050Y1366525D03*
D24*
G36*
X298889Y1664351D02*
X316849Y1682311D01*
X334809Y1664351D01*
X316849Y1646391D01*
X298889Y1664351D01*
G37*
D25*
X292100Y1639603D03*
X267351Y1614854D03*
X242603Y1590105D03*
X217854Y1565356D03*
X193105Y1540608D03*
X292100Y1689100D03*
X267351Y1664351D03*
X242603Y1639603D03*
X217854Y1614854D03*
X193105Y1590105D03*
X168356Y1565356D03*
D26*
X123825Y1403350D03*
X123825Y1416050D03*
X123825Y1428750D03*
X123825Y1441450D03*
X178435Y1403350D03*
X178435Y1416050D03*
X178435Y1428750D03*
X178435Y1441450D03*
D13*
X800100Y1574800D03*
X812800Y1574800D03*
X825500Y1574800D03*
X838200Y1574800D03*
X800100Y1520190D03*
X812800Y1520190D03*
X825500Y1520190D03*
X838200Y1520190D03*
X533400Y1663700D03*
X520700Y1663700D03*
X508000Y1663700D03*
X495300Y1663700D03*
X533400Y1718310D03*
X520700Y1718310D03*
X508000Y1718310D03*
X495300Y1718310D03*
X641350Y1663700D03*
X628650Y1663700D03*
X615950Y1663700D03*
X603250Y1663700D03*
X641350Y1718310D03*
X628650Y1718310D03*
X615950Y1718310D03*
X603250Y1718310D03*
X749300Y1663700D03*
X736600Y1663700D03*
X723900Y1663700D03*
X711200Y1663700D03*
X749300Y1718310D03*
X736600Y1718310D03*
X723900Y1718310D03*
X711200Y1718310D03*
D11*
X1325275Y463550D03*
X1297275Y463550D03*
D10*
X1323975Y264825D03*
X1323975Y236825D03*
D11*
X1284000Y876300D03*
X1256000Y876300D03*
X1185575Y555625D03*
X1157575Y555625D03*
X1185575Y660400D03*
X1157575Y660400D03*
X1185575Y774700D03*
X1157575Y774700D03*
D27*
X1155700Y425450D03*
X1181100Y425450D03*
D10*
X1358900Y439450D03*
X1358900Y411450D03*
X1384300Y439450D03*
X1384300Y411450D03*
X1412875Y439450D03*
X1412875Y411450D03*
D11*
X1553875Y501650D03*
X1525875Y501650D03*
X1297275Y488950D03*
X1325275Y488950D03*
X1372900Y641350D03*
X1344900Y641350D03*
D10*
X1270000Y313025D03*
X1270000Y341025D03*
D11*
X1392525Y82550D03*
X1420525Y82550D03*
D26*
X1244600Y749300D03*
X1244600Y736600D03*
X1244600Y723900D03*
X1244600Y711200D03*
X1189990Y749300D03*
X1189990Y736600D03*
X1189990Y723900D03*
X1189990Y711200D03*
X1244600Y641350D03*
X1244600Y628650D03*
X1244600Y615950D03*
X1244600Y603250D03*
X1189990Y641350D03*
X1189990Y628650D03*
X1189990Y615950D03*
X1189990Y603250D03*
X1244600Y533400D03*
X1244600Y520700D03*
X1244600Y508000D03*
X1244600Y495300D03*
X1189990Y533400D03*
X1189990Y520700D03*
X1189990Y508000D03*
X1189990Y495300D03*
D28*
X1246886Y372237D03*
X1270000Y372237D03*
X1293114Y372237D03*
D29*
X1270000Y434215D03*
D30*
X1537325Y539750D03*
X1504325Y539750D03*
D31*
X1041400Y482600D03*
X1028700Y533400D03*
X1016000Y584200D03*
D32*
X1416050Y246130D03*
X1416050Y274570D03*
X1387475Y236605D03*
X1387475Y265045D03*
X1358900Y236605D03*
X1358900Y265045D03*
D19*
X1500505Y450850D02*
X1515745Y450850D01*
X1515745Y425450D02*
X1500505Y425450D01*
X1500505Y400050D02*
X1515745Y400050D01*
X1515745Y374650D02*
X1500505Y374650D01*
X1506855Y679450D02*
X1522095Y679450D01*
X1522095Y654050D02*
X1506855Y654050D01*
X1506855Y628650D02*
X1522095Y628650D01*
X1522095Y603250D02*
X1506855Y603250D01*
D20*
X1525749Y270156D02*
X1536721Y270156D01*
X1536721Y249024D01*
X1525749Y249024D01*
X1525749Y270156D01*
X1525749Y250182D02*
X1536721Y250182D01*
X1536721Y251340D02*
X1525749Y251340D01*
X1525749Y252498D02*
X1536721Y252498D01*
X1536721Y253656D02*
X1525749Y253656D01*
X1525749Y254814D02*
X1536721Y254814D01*
X1536721Y255972D02*
X1525749Y255972D01*
X1525749Y257130D02*
X1536721Y257130D01*
X1536721Y258288D02*
X1525749Y258288D01*
X1525749Y259446D02*
X1536721Y259446D01*
X1536721Y260604D02*
X1525749Y260604D01*
X1525749Y261762D02*
X1536721Y261762D01*
X1536721Y262920D02*
X1525749Y262920D01*
X1525749Y264078D02*
X1536721Y264078D01*
X1536721Y265236D02*
X1525749Y265236D01*
X1525749Y266394D02*
X1536721Y266394D01*
X1536721Y267552D02*
X1525749Y267552D01*
X1525749Y268710D02*
X1536721Y268710D01*
X1536721Y269868D02*
X1525749Y269868D01*
X1513611Y270156D02*
X1502639Y270156D01*
X1513611Y270156D02*
X1513611Y249024D01*
X1502639Y249024D01*
X1502639Y270156D01*
X1502639Y250182D02*
X1513611Y250182D01*
X1513611Y251340D02*
X1502639Y251340D01*
X1502639Y252498D02*
X1513611Y252498D01*
X1513611Y253656D02*
X1502639Y253656D01*
X1502639Y254814D02*
X1513611Y254814D01*
X1513611Y255972D02*
X1502639Y255972D01*
X1502639Y257130D02*
X1513611Y257130D01*
X1513611Y258288D02*
X1502639Y258288D01*
X1502639Y259446D02*
X1513611Y259446D01*
X1513611Y260604D02*
X1502639Y260604D01*
X1502639Y261762D02*
X1513611Y261762D01*
X1513611Y262920D02*
X1502639Y262920D01*
X1502639Y264078D02*
X1513611Y264078D01*
X1513611Y265236D02*
X1502639Y265236D01*
X1502639Y266394D02*
X1513611Y266394D01*
X1513611Y267552D02*
X1502639Y267552D01*
X1502639Y268710D02*
X1513611Y268710D01*
X1513611Y269868D02*
X1502639Y269868D01*
X1490501Y270156D02*
X1479529Y270156D01*
X1490501Y270156D02*
X1490501Y249024D01*
X1479529Y249024D01*
X1479529Y270156D01*
X1479529Y250182D02*
X1490501Y250182D01*
X1490501Y251340D02*
X1479529Y251340D01*
X1479529Y252498D02*
X1490501Y252498D01*
X1490501Y253656D02*
X1479529Y253656D01*
X1479529Y254814D02*
X1490501Y254814D01*
X1490501Y255972D02*
X1479529Y255972D01*
X1479529Y257130D02*
X1490501Y257130D01*
X1490501Y258288D02*
X1479529Y258288D01*
X1479529Y259446D02*
X1490501Y259446D01*
X1490501Y260604D02*
X1479529Y260604D01*
X1479529Y261762D02*
X1490501Y261762D01*
X1490501Y262920D02*
X1479529Y262920D01*
X1479529Y264078D02*
X1490501Y264078D01*
X1490501Y265236D02*
X1479529Y265236D01*
X1479529Y266394D02*
X1490501Y266394D01*
X1490501Y267552D02*
X1479529Y267552D01*
X1479529Y268710D02*
X1490501Y268710D01*
X1490501Y269868D02*
X1479529Y269868D01*
D21*
X1491225Y207510D02*
X1525025Y207510D01*
X1525025Y187710D01*
X1491225Y187710D01*
X1491225Y207510D01*
X1491225Y189800D02*
X1525025Y189800D01*
X1525025Y191890D02*
X1491225Y191890D01*
X1491225Y193980D02*
X1525025Y193980D01*
X1525025Y196070D02*
X1491225Y196070D01*
X1491225Y198160D02*
X1525025Y198160D01*
X1525025Y200250D02*
X1491225Y200250D01*
X1491225Y202340D02*
X1525025Y202340D01*
X1525025Y204430D02*
X1491225Y204430D01*
X1491225Y206520D02*
X1525025Y206520D01*
D23*
X1412875Y487050D03*
X1407875Y487050D03*
X1402875Y487050D03*
X1397875Y487050D03*
X1392875Y487050D03*
X1387875Y487050D03*
X1417875Y487050D03*
X1422875Y487050D03*
X1427875Y487050D03*
X1432875Y487050D03*
X1437875Y487050D03*
X1382875Y487050D03*
X1412875Y572050D03*
X1417875Y572050D03*
X1422875Y572050D03*
X1427875Y572050D03*
X1437875Y572050D03*
X1432875Y572050D03*
X1407875Y572050D03*
X1402875Y572050D03*
X1397875Y572050D03*
X1392875Y572050D03*
X1387875Y572050D03*
X1382875Y572050D03*
D22*
X1367875Y527050D03*
X1367875Y522050D03*
X1367875Y517050D03*
X1367875Y512050D03*
X1367875Y507050D03*
X1367875Y502050D03*
X1367875Y532050D03*
X1367875Y537050D03*
X1367875Y542050D03*
X1367875Y547050D03*
X1367875Y552050D03*
X1367875Y557050D03*
X1452875Y502050D03*
X1452875Y507050D03*
X1452875Y512050D03*
X1452875Y517050D03*
X1452875Y522050D03*
X1452875Y527050D03*
X1452875Y537050D03*
X1452875Y532050D03*
X1452875Y542050D03*
X1452875Y547050D03*
X1452875Y552050D03*
X1452875Y557050D03*
D24*
G36*
X1155049Y298889D02*
X1137089Y316849D01*
X1155049Y334809D01*
X1173009Y316849D01*
X1155049Y298889D01*
G37*
D25*
X1179797Y292100D03*
X1204546Y267351D03*
X1229295Y242603D03*
X1254044Y217854D03*
X1278792Y193105D03*
X1130300Y292100D03*
X1155049Y267351D03*
X1179797Y242603D03*
X1204546Y217854D03*
X1229295Y193105D03*
X1254044Y168356D03*
D13*
X1416050Y123825D03*
X1403350Y123825D03*
X1390650Y123825D03*
X1377950Y123825D03*
X1416050Y178435D03*
X1403350Y178435D03*
X1390650Y178435D03*
X1377950Y178435D03*
D26*
X1244600Y800100D03*
X1244600Y812800D03*
X1244600Y825500D03*
X1244600Y838200D03*
X1299210Y800100D03*
X1299210Y812800D03*
X1299210Y825500D03*
X1299210Y838200D03*
X1155700Y533400D03*
X1155700Y520700D03*
X1155700Y508000D03*
X1155700Y495300D03*
X1101090Y533400D03*
X1101090Y520700D03*
X1101090Y508000D03*
X1101090Y495300D03*
X1155700Y641350D03*
X1155700Y628650D03*
X1155700Y615950D03*
X1155700Y603250D03*
X1101090Y641350D03*
X1101090Y628650D03*
X1101090Y615950D03*
X1101090Y603250D03*
X1155700Y749300D03*
X1155700Y736600D03*
X1155700Y723900D03*
X1155700Y711200D03*
X1101090Y749300D03*
X1101090Y736600D03*
X1101090Y723900D03*
X1101090Y711200D03*
D11*
X1325275Y1416050D03*
X1297275Y1416050D03*
D10*
X1323975Y1217325D03*
X1323975Y1189325D03*
D11*
X1284000Y1828800D03*
X1256000Y1828800D03*
X1185575Y1508125D03*
X1157575Y1508125D03*
X1185575Y1612900D03*
X1157575Y1612900D03*
X1185575Y1727200D03*
X1157575Y1727200D03*
D27*
X1155700Y1377950D03*
X1181100Y1377950D03*
D10*
X1358900Y1391950D03*
X1358900Y1363950D03*
X1384300Y1391950D03*
X1384300Y1363950D03*
X1412875Y1391950D03*
X1412875Y1363950D03*
D11*
X1553875Y1454150D03*
X1525875Y1454150D03*
X1297275Y1441450D03*
X1325275Y1441450D03*
X1372900Y1593850D03*
X1344900Y1593850D03*
D10*
X1270000Y1265525D03*
X1270000Y1293525D03*
D11*
X1392525Y1035050D03*
X1420525Y1035050D03*
D26*
X1244600Y1701800D03*
X1244600Y1689100D03*
X1244600Y1676400D03*
X1244600Y1663700D03*
X1189990Y1701800D03*
X1189990Y1689100D03*
X1189990Y1676400D03*
X1189990Y1663700D03*
X1244600Y1593850D03*
X1244600Y1581150D03*
X1244600Y1568450D03*
X1244600Y1555750D03*
X1189990Y1593850D03*
X1189990Y1581150D03*
X1189990Y1568450D03*
X1189990Y1555750D03*
X1244600Y1485900D03*
X1244600Y1473200D03*
X1244600Y1460500D03*
X1244600Y1447800D03*
X1189990Y1485900D03*
X1189990Y1473200D03*
X1189990Y1460500D03*
X1189990Y1447800D03*
D28*
X1246886Y1324737D03*
X1270000Y1324737D03*
X1293114Y1324737D03*
D29*
X1270000Y1386715D03*
D30*
X1537325Y1492250D03*
X1504325Y1492250D03*
D31*
X1041400Y1435100D03*
X1028700Y1485900D03*
X1016000Y1536700D03*
D32*
X1416050Y1198630D03*
X1416050Y1227070D03*
X1387475Y1189105D03*
X1387475Y1217545D03*
X1358900Y1189105D03*
X1358900Y1217545D03*
D19*
X1500505Y1403350D02*
X1515745Y1403350D01*
X1515745Y1377950D02*
X1500505Y1377950D01*
X1500505Y1352550D02*
X1515745Y1352550D01*
X1515745Y1327150D02*
X1500505Y1327150D01*
X1506855Y1631950D02*
X1522095Y1631950D01*
X1522095Y1606550D02*
X1506855Y1606550D01*
X1506855Y1581150D02*
X1522095Y1581150D01*
X1522095Y1555750D02*
X1506855Y1555750D01*
D20*
X1525749Y1222656D02*
X1536721Y1222656D01*
X1536721Y1201524D01*
X1525749Y1201524D01*
X1525749Y1222656D01*
X1525749Y1202682D02*
X1536721Y1202682D01*
X1536721Y1203840D02*
X1525749Y1203840D01*
X1525749Y1204998D02*
X1536721Y1204998D01*
X1536721Y1206156D02*
X1525749Y1206156D01*
X1525749Y1207314D02*
X1536721Y1207314D01*
X1536721Y1208472D02*
X1525749Y1208472D01*
X1525749Y1209630D02*
X1536721Y1209630D01*
X1536721Y1210788D02*
X1525749Y1210788D01*
X1525749Y1211946D02*
X1536721Y1211946D01*
X1536721Y1213104D02*
X1525749Y1213104D01*
X1525749Y1214262D02*
X1536721Y1214262D01*
X1536721Y1215420D02*
X1525749Y1215420D01*
X1525749Y1216578D02*
X1536721Y1216578D01*
X1536721Y1217736D02*
X1525749Y1217736D01*
X1525749Y1218894D02*
X1536721Y1218894D01*
X1536721Y1220052D02*
X1525749Y1220052D01*
X1525749Y1221210D02*
X1536721Y1221210D01*
X1536721Y1222368D02*
X1525749Y1222368D01*
X1513611Y1222656D02*
X1502639Y1222656D01*
X1513611Y1222656D02*
X1513611Y1201524D01*
X1502639Y1201524D01*
X1502639Y1222656D01*
X1502639Y1202682D02*
X1513611Y1202682D01*
X1513611Y1203840D02*
X1502639Y1203840D01*
X1502639Y1204998D02*
X1513611Y1204998D01*
X1513611Y1206156D02*
X1502639Y1206156D01*
X1502639Y1207314D02*
X1513611Y1207314D01*
X1513611Y1208472D02*
X1502639Y1208472D01*
X1502639Y1209630D02*
X1513611Y1209630D01*
X1513611Y1210788D02*
X1502639Y1210788D01*
X1502639Y1211946D02*
X1513611Y1211946D01*
X1513611Y1213104D02*
X1502639Y1213104D01*
X1502639Y1214262D02*
X1513611Y1214262D01*
X1513611Y1215420D02*
X1502639Y1215420D01*
X1502639Y1216578D02*
X1513611Y1216578D01*
X1513611Y1217736D02*
X1502639Y1217736D01*
X1502639Y1218894D02*
X1513611Y1218894D01*
X1513611Y1220052D02*
X1502639Y1220052D01*
X1502639Y1221210D02*
X1513611Y1221210D01*
X1513611Y1222368D02*
X1502639Y1222368D01*
X1490501Y1222656D02*
X1479529Y1222656D01*
X1490501Y1222656D02*
X1490501Y1201524D01*
X1479529Y1201524D01*
X1479529Y1222656D01*
X1479529Y1202682D02*
X1490501Y1202682D01*
X1490501Y1203840D02*
X1479529Y1203840D01*
X1479529Y1204998D02*
X1490501Y1204998D01*
X1490501Y1206156D02*
X1479529Y1206156D01*
X1479529Y1207314D02*
X1490501Y1207314D01*
X1490501Y1208472D02*
X1479529Y1208472D01*
X1479529Y1209630D02*
X1490501Y1209630D01*
X1490501Y1210788D02*
X1479529Y1210788D01*
X1479529Y1211946D02*
X1490501Y1211946D01*
X1490501Y1213104D02*
X1479529Y1213104D01*
X1479529Y1214262D02*
X1490501Y1214262D01*
X1490501Y1215420D02*
X1479529Y1215420D01*
X1479529Y1216578D02*
X1490501Y1216578D01*
X1490501Y1217736D02*
X1479529Y1217736D01*
X1479529Y1218894D02*
X1490501Y1218894D01*
X1490501Y1220052D02*
X1479529Y1220052D01*
X1479529Y1221210D02*
X1490501Y1221210D01*
X1490501Y1222368D02*
X1479529Y1222368D01*
D21*
X1491225Y1160010D02*
X1525025Y1160010D01*
X1525025Y1140210D01*
X1491225Y1140210D01*
X1491225Y1160010D01*
X1491225Y1142300D02*
X1525025Y1142300D01*
X1525025Y1144390D02*
X1491225Y1144390D01*
X1491225Y1146480D02*
X1525025Y1146480D01*
X1525025Y1148570D02*
X1491225Y1148570D01*
X1491225Y1150660D02*
X1525025Y1150660D01*
X1525025Y1152750D02*
X1491225Y1152750D01*
X1491225Y1154840D02*
X1525025Y1154840D01*
X1525025Y1156930D02*
X1491225Y1156930D01*
X1491225Y1159020D02*
X1525025Y1159020D01*
D23*
X1412875Y1439550D03*
X1407875Y1439550D03*
X1402875Y1439550D03*
X1397875Y1439550D03*
X1392875Y1439550D03*
X1387875Y1439550D03*
X1417875Y1439550D03*
X1422875Y1439550D03*
X1427875Y1439550D03*
X1432875Y1439550D03*
X1437875Y1439550D03*
X1382875Y1439550D03*
X1412875Y1524550D03*
X1417875Y1524550D03*
X1422875Y1524550D03*
X1427875Y1524550D03*
X1437875Y1524550D03*
X1432875Y1524550D03*
X1407875Y1524550D03*
X1402875Y1524550D03*
X1397875Y1524550D03*
X1392875Y1524550D03*
X1387875Y1524550D03*
X1382875Y1524550D03*
D22*
X1367875Y1479550D03*
X1367875Y1474550D03*
X1367875Y1469550D03*
X1367875Y1464550D03*
X1367875Y1459550D03*
X1367875Y1454550D03*
X1367875Y1484550D03*
X1367875Y1489550D03*
X1367875Y1494550D03*
X1367875Y1499550D03*
X1367875Y1504550D03*
X1367875Y1509550D03*
X1452875Y1454550D03*
X1452875Y1459550D03*
X1452875Y1464550D03*
X1452875Y1469550D03*
X1452875Y1474550D03*
X1452875Y1479550D03*
X1452875Y1489550D03*
X1452875Y1484550D03*
X1452875Y1494550D03*
X1452875Y1499550D03*
X1452875Y1504550D03*
X1452875Y1509550D03*
D24*
G36*
X1155049Y1251389D02*
X1137089Y1269349D01*
X1155049Y1287309D01*
X1173009Y1269349D01*
X1155049Y1251389D01*
G37*
D25*
X1179797Y1244600D03*
X1204546Y1219851D03*
X1229295Y1195103D03*
X1254044Y1170354D03*
X1278792Y1145605D03*
X1130300Y1244600D03*
X1155049Y1219851D03*
X1179797Y1195103D03*
X1204546Y1170354D03*
X1229295Y1145605D03*
X1254044Y1120856D03*
D13*
X1416050Y1076325D03*
X1403350Y1076325D03*
X1390650Y1076325D03*
X1377950Y1076325D03*
X1416050Y1130935D03*
X1403350Y1130935D03*
X1390650Y1130935D03*
X1377950Y1130935D03*
D26*
X1244600Y1752600D03*
X1244600Y1765300D03*
X1244600Y1778000D03*
X1244600Y1790700D03*
X1299210Y1752600D03*
X1299210Y1765300D03*
X1299210Y1778000D03*
X1299210Y1790700D03*
X1155700Y1485900D03*
X1155700Y1473200D03*
X1155700Y1460500D03*
X1155700Y1447800D03*
X1101090Y1485900D03*
X1101090Y1473200D03*
X1101090Y1460500D03*
X1101090Y1447800D03*
X1155700Y1593850D03*
X1155700Y1581150D03*
X1155700Y1568450D03*
X1155700Y1555750D03*
X1101090Y1593850D03*
X1101090Y1581150D03*
X1101090Y1568450D03*
X1101090Y1555750D03*
X1155700Y1701800D03*
X1155700Y1689100D03*
X1155700Y1676400D03*
X1155700Y1663700D03*
X1101090Y1701800D03*
X1101090Y1689100D03*
X1101090Y1676400D03*
X1101090Y1663700D03*
D33*
X507525Y151925D02*
X487050Y151925D01*
D34*
X507525Y151925D03*
D33*
X487050Y146925D02*
X465850Y146925D01*
D34*
X465850Y146925D03*
D35*
X136525Y196850D02*
X123825Y196850D01*
X136525Y196850D02*
X142875Y190500D01*
X142875Y155575D01*
X158750Y139700D02*
X288925Y139700D01*
X158750Y139700D02*
X142875Y155575D01*
D34*
X288925Y139700D03*
X514350Y234950D03*
D33*
X517050Y232250D01*
X517050Y206925D01*
D35*
X178435Y184150D02*
X168275Y184150D01*
X161925Y190500D01*
X161925Y263830D02*
X193105Y296008D01*
X161925Y263830D02*
X161925Y190500D01*
X215900Y201083D02*
X215900Y215900D01*
X236605Y215900D01*
X215900Y201083D02*
X196850Y184150D01*
X178435Y184150D01*
X178435Y171450D02*
X165100Y171450D01*
X152400Y184150D01*
X152400Y304800D02*
X168356Y320756D01*
X152400Y304800D02*
X152400Y184150D01*
X232097Y182817D02*
X236605Y187325D01*
X219075Y171450D01*
X178435Y171450D01*
D33*
X477125Y176925D02*
X487050Y176925D01*
X473075Y180975D02*
X473075Y206375D01*
X473075Y180975D02*
X477125Y176925D01*
D34*
X473075Y206375D03*
D33*
X572050Y156925D02*
X620475Y156925D01*
X641350Y177800D01*
X641350Y201900D01*
D35*
X799465Y111125D02*
X704215Y15875D01*
X539750Y15875D02*
X539750Y37475D01*
X539750Y15875D02*
X552450Y15875D01*
X704215Y15875D01*
X838200Y330200D02*
X857250Y330200D01*
X876300Y318800D01*
X901700Y318800D02*
X901700Y212725D01*
X901700Y318800D02*
X876300Y318800D01*
D33*
X502050Y218808D02*
X502050Y206925D01*
X502050Y218808D02*
X488950Y227542D01*
X488950Y249525D01*
X487050Y156925D02*
X460325Y156925D01*
X455325Y161925D01*
X439450Y161925D01*
D35*
X123825Y171450D02*
X111125Y171450D01*
X93950Y154275D01*
X82550Y154275D01*
X463550Y249525D02*
X488950Y249525D01*
X799465Y111125D02*
X901700Y212725D01*
D36*
X372276Y281647D02*
X372237Y281686D01*
X372276Y281647D02*
X372085Y250821D01*
X372085Y250866D01*
X372065Y247647D02*
X372065Y247647D01*
X371514Y158719D01*
D37*
X387350Y146050D01*
X439450Y146050D01*
X439450Y161925D01*
X463550Y249525D02*
X463504Y249571D01*
D35*
X463550Y249525D02*
X372077Y249525D01*
X82550Y154275D02*
X82550Y120650D01*
X92075Y111125D01*
X323850Y111125D01*
X371514Y158719D01*
D34*
X371514Y158719D03*
X552450Y25400D03*
D35*
X552450Y15875D01*
X643225Y200025D02*
X641350Y201900D01*
X643225Y200025D02*
X663575Y200025D01*
D34*
X663575Y200025D03*
D36*
X372077Y247658D02*
X372077Y249525D01*
X372077Y247658D02*
X372065Y247647D01*
X372077Y249525D02*
X372085Y249533D01*
X372085Y250821D01*
D38*
X439450Y215900D02*
X439450Y190500D01*
D33*
X455325Y174625D02*
X468025Y161925D01*
X455325Y174625D02*
X455325Y190500D01*
X468025Y161925D02*
X487050Y161925D01*
X455325Y190500D02*
X439450Y190500D01*
X527050Y121925D02*
X527050Y98425D01*
X539750Y85725D01*
X539750Y70475D01*
D35*
X520700Y20925D02*
X501650Y20925D01*
X520700Y20925D02*
X520700Y70475D01*
X539750Y70475D01*
X123825Y149225D02*
X123825Y158750D01*
X123825Y149225D02*
X146050Y127000D01*
X288925Y127000D01*
D34*
X288925Y127000D03*
X520700Y187325D03*
D33*
X512050Y195975D01*
X512050Y206925D01*
D35*
X246130Y158750D02*
X178435Y158750D01*
X265045Y215900D02*
X282575Y215900D01*
X282575Y187325D01*
X265045Y187325D01*
X282575Y187325D02*
X292100Y177800D01*
X292100Y158750D01*
X274570Y158750D01*
X282575Y250825D02*
X264825Y250825D01*
X282575Y250825D02*
X282575Y215900D01*
D33*
X532050Y220900D02*
X532050Y206925D01*
X532050Y220900D02*
X539750Y228600D01*
X577850Y228600D01*
D34*
X577850Y228600D03*
X812800Y247650D03*
D35*
X825500Y260350D01*
X825500Y275590D01*
D33*
X527050Y228600D02*
X527050Y206925D01*
X527050Y228600D02*
X536575Y238125D01*
X568325Y238125D01*
D34*
X568325Y238125D03*
X790575Y352425D03*
D35*
X800100Y342900D01*
X800100Y330200D01*
D33*
X522050Y233125D02*
X522050Y206925D01*
X522050Y233125D02*
X536575Y247650D01*
X561975Y247650D01*
D34*
X561975Y247650D03*
X812800Y365125D03*
D35*
X812800Y330200D01*
X193105Y345505D02*
X181462Y355600D01*
X165100Y355600D01*
X139700Y333829D01*
X197610Y66675D02*
X259590Y66675D01*
X197610Y66675D02*
X91281Y66675D01*
X60325Y103094D01*
X60325Y219075D01*
X139700Y247650D02*
X139700Y333829D01*
X79375Y234950D02*
X60325Y219075D01*
X79375Y234950D02*
X120650Y234950D01*
X139700Y247650D01*
D33*
X259590Y43565D02*
X300740Y43565D01*
X371475Y114300D01*
X450850Y114300D01*
X473475Y136925D01*
X487050Y136925D01*
D39*
X520700Y473710D02*
X533400Y473710D01*
X520700Y473710D02*
X508000Y473710D01*
X495300Y473710D01*
X482600Y533400D01*
X530225Y476250D01*
X508000Y482600D01*
X628650Y473710D02*
X641350Y473710D01*
X628650Y473710D02*
X615950Y473710D01*
X603250Y473710D01*
X533400Y546100D01*
X641350Y476250D01*
X736600Y473710D02*
X749300Y473710D01*
X736600Y473710D02*
X723900Y473710D01*
X711200Y473710D01*
X584200Y558800D01*
X746125Y476250D01*
D35*
X520700Y419100D02*
X520700Y384810D01*
X628650Y384810D02*
X628650Y419100D01*
X736600Y419100D02*
X736600Y384810D01*
X520700Y419100D02*
X520700Y444500D01*
X736600Y444500D02*
X736600Y419100D01*
D39*
X555625Y444500D02*
X520700Y444500D01*
X555625Y444500D02*
X628650Y444500D01*
X660400Y444500D01*
X736600Y444500D01*
X341597Y444500D02*
X316849Y419751D01*
X341597Y444500D02*
X425450Y444500D01*
X520700Y444500D01*
D35*
X628650Y444500D02*
X628650Y384810D01*
D36*
X425450Y419100D02*
X425450Y444500D01*
X555625Y444500D02*
X555625Y417225D01*
X660400Y417225D02*
X660400Y444500D01*
X736600Y444500D02*
X765175Y444500D01*
X774700Y434975D01*
X774700Y417225D01*
X372237Y327914D02*
X355600Y327914D01*
X346075Y327914D01*
D35*
X321564Y327914D01*
X313025Y319375D01*
X313025Y304800D01*
D36*
X349250Y387350D02*
X358775Y387350D01*
X349250Y387350D02*
X316849Y419751D01*
D34*
X358775Y387350D03*
X346075Y337439D03*
D36*
X346075Y327914D01*
D35*
X508000Y384810D02*
X508000Y419100D01*
X533400Y419100D02*
X533400Y384810D01*
X615950Y384810D02*
X615950Y419100D01*
X641350Y419100D02*
X641350Y384810D01*
X723900Y384810D02*
X723900Y419100D01*
X749300Y419100D02*
X749300Y384810D01*
D33*
X609600Y215900D02*
X609600Y187325D01*
X594200Y171925D01*
X572050Y171925D01*
X609600Y215900D02*
X508000Y317500D01*
X508000Y330200D01*
X533400Y314325D02*
X615950Y231775D01*
X533400Y314325D02*
X533400Y330200D01*
X615950Y231775D02*
X615950Y180975D01*
X601900Y166925D01*
X572050Y166925D01*
X682625Y225425D02*
X615950Y292100D01*
X615950Y330200D01*
X682625Y225425D02*
X682625Y196850D01*
X637700Y151925D01*
X572050Y151925D01*
X651750Y146925D02*
X695325Y190500D01*
X651750Y146925D02*
X572050Y146925D01*
X695325Y238125D02*
X641350Y292100D01*
X641350Y330200D01*
X695325Y238125D02*
X695325Y190500D01*
X723900Y200025D02*
X723900Y330200D01*
X723900Y200025D02*
X665800Y141925D01*
X572050Y141925D01*
X572050Y136925D02*
X673100Y136525D01*
X749300Y212725D01*
X749300Y330200D01*
X532050Y121925D02*
X532050Y106125D01*
X539750Y98425D01*
D34*
X539750Y98425D03*
D33*
X552850Y186925D02*
X572050Y186925D01*
D34*
X552850Y186925D03*
D33*
X537050Y190975D02*
X537050Y206925D01*
D34*
X537050Y190975D03*
D33*
X502600Y141925D02*
X487050Y141925D01*
X502600Y141925D02*
X504825Y139700D01*
D34*
X504825Y139700D03*
D33*
X374650Y92075D02*
X374650Y66675D01*
X374650Y92075D02*
X390525Y107950D01*
X492125Y107950D01*
X502050Y117875D01*
X502050Y121925D01*
X400050Y88900D02*
X400050Y66675D01*
X400050Y88900D02*
X412750Y101600D01*
X495300Y101600D01*
X507050Y113350D01*
X507050Y121925D01*
X425450Y82550D02*
X425450Y66675D01*
X425450Y82550D02*
X438150Y95250D01*
X498475Y95250D02*
X512050Y108825D01*
X512050Y121925D01*
X498475Y95250D02*
X438150Y95250D01*
X450850Y66675D02*
X482953Y66675D01*
X517050Y101155D02*
X517050Y121925D01*
X517050Y101155D02*
X482953Y66675D01*
X600428Y60325D02*
X603250Y60325D01*
X600428Y60325D02*
X542050Y108089D01*
X542050Y121925D01*
X628650Y82550D02*
X628650Y60325D01*
X628650Y82550D02*
X609600Y101600D01*
X558800Y101600D01*
X547050Y111125D02*
X547050Y121925D01*
X547050Y111125D02*
X558800Y101600D01*
X654050Y85725D02*
X654050Y60325D01*
X654050Y85725D02*
X631825Y107950D01*
X560917Y107950D02*
X552543Y114230D01*
X552331Y121644D01*
X552050Y121925D01*
X560917Y107950D02*
X631825Y107950D01*
X679450Y95250D02*
X679450Y60325D01*
X679450Y95250D02*
X660400Y114300D01*
X563033Y114300D01*
X557050Y118788D01*
X557050Y121925D01*
D35*
X593725Y422275D02*
X603250Y422275D01*
X701675Y422275D02*
X711200Y422275D01*
X711200Y419100D02*
X704850Y412750D01*
X701675Y412750D01*
X603250Y419100D02*
X596900Y412750D01*
X593725Y412750D01*
X495300Y419100D02*
X488950Y412750D01*
X485775Y412750D01*
D39*
X463550Y412750D01*
D33*
X487050Y166925D02*
X500300Y166925D01*
X507050Y173675D01*
X507050Y206925D01*
X520700Y161925D02*
X572050Y161925D01*
X518828Y163228D02*
X518745Y163301D01*
X507050Y173675D01*
X522050Y160005D02*
X522050Y121925D01*
X520700Y161925D02*
X518745Y163301D01*
X520700Y161925D02*
X522050Y160005D01*
X522050Y121925D02*
X522050Y93425D01*
X501650Y73025D01*
D35*
X688975Y355600D02*
X736600Y355600D01*
X688975Y355600D02*
X628650Y355600D01*
X584200Y355600D01*
X527050Y355600D01*
X520700Y349250D01*
X520700Y330200D01*
X628650Y330200D02*
X628650Y355600D01*
D33*
X609600Y161925D02*
X572050Y161925D01*
X609600Y161925D02*
X622300Y174625D01*
X622300Y225425D01*
D35*
X838200Y275590D02*
X838200Y292100D01*
X825500Y304800D01*
X736600Y330200D02*
X736600Y355600D01*
X758825Y355600D02*
X771525Y342900D01*
X771525Y317500D01*
X752475Y355600D02*
X736600Y355600D01*
X752475Y355600D02*
X758825Y355600D01*
X771525Y317500D02*
X784225Y304800D01*
X825500Y304800D01*
D39*
X701675Y412750D02*
X688975Y412750D01*
X688975Y381000D01*
X688975Y355600D01*
X593725Y412750D02*
X584200Y412750D01*
X584200Y387350D01*
X584200Y355600D01*
D36*
X584200Y387350D02*
X555625Y389225D01*
X660400Y389225D02*
X688975Y381000D01*
D39*
X463550Y358845D02*
X463550Y412750D01*
X752404Y355671D02*
X752475Y355600D01*
X752404Y355671D02*
X507050Y358367D01*
D36*
X774700Y371475D02*
X774700Y389225D01*
X774700Y371475D02*
X758825Y355600D01*
D39*
X325643Y360290D02*
X292100Y394816D01*
X292100Y395003D01*
X431578Y359126D02*
X434215Y359097D01*
X431578Y359126D02*
X425420Y359194D01*
X325643Y360290D01*
D33*
X501650Y73025D02*
X501650Y48925D01*
D36*
X425420Y359194D02*
X425450Y393700D01*
D35*
X838200Y292100D02*
X876300Y290800D01*
X184150Y196850D02*
X178435Y196850D01*
X184150Y196850D02*
X190500Y196850D01*
X203200Y206375D01*
X203200Y250825D01*
X236825Y250825D01*
D33*
X507050Y273050D02*
X507050Y206925D01*
D38*
X411450Y190500D02*
X411450Y161925D01*
X411450Y190500D02*
X411450Y215900D01*
D33*
X474425Y166925D02*
X487050Y166925D01*
X474425Y166925D02*
X463550Y177800D01*
X463550Y225425D01*
X454025Y234950D01*
X411836Y215974D02*
X411450Y215900D01*
X411836Y215974D02*
X427525Y234950D01*
X454025Y234950D01*
D35*
X84425Y184150D02*
X82550Y182275D01*
X84425Y184150D02*
X123825Y184150D01*
X463550Y277525D02*
X488950Y277525D01*
X463550Y277525D02*
X463550Y358775D01*
D33*
X503244Y277525D02*
X507050Y273050D01*
X503244Y277525D02*
X488950Y277525D01*
X622300Y225425D02*
X627927Y229900D01*
X641350Y229900D01*
D36*
X434215Y304800D02*
X434215Y359097D01*
X434215Y304800D02*
X372237Y304800D01*
X341025Y304800D01*
D35*
X236825Y271750D02*
X236825Y250825D01*
X236825Y271750D02*
X241300Y276225D01*
X341025Y290225D02*
X341025Y298450D01*
X341025Y304800D01*
X82550Y212725D02*
X82550Y182275D01*
D34*
X82550Y212725D03*
X184150Y212725D03*
D35*
X184150Y196850D01*
D39*
X506712Y358705D02*
X507050Y358367D01*
D36*
X259590Y89785D02*
X260475Y88900D01*
X295275Y88900D01*
D34*
X295275Y88900D03*
X339725Y244475D03*
D36*
X341025Y244475D01*
X341025Y276225D01*
X341025Y298450D01*
D35*
X341025Y276225D02*
X241300Y276225D01*
D39*
X434215Y359097D02*
X438110Y359097D01*
X438432Y358775D01*
X463550Y358845D02*
X463690Y358705D01*
X506712Y358705D01*
X463550Y358775D02*
X463480Y358775D01*
X438432Y358775D01*
X463480Y358775D02*
X463550Y358845D01*
D35*
X485775Y422275D02*
X495300Y422275D01*
D33*
X487050Y774225D02*
X507525Y774225D01*
D34*
X507525Y774225D03*
D33*
X487050Y769225D02*
X465850Y769225D01*
D34*
X465850Y769225D03*
D35*
X136525Y819150D02*
X123825Y819150D01*
X136525Y819150D02*
X142875Y812800D01*
X142875Y777875D01*
X158750Y762000D02*
X288925Y762000D01*
X158750Y762000D02*
X142875Y777875D01*
D34*
X288925Y762000D03*
X514350Y857250D03*
D33*
X517050Y854550D01*
X517050Y829225D01*
D35*
X178435Y806450D02*
X168275Y806450D01*
X161925Y812800D01*
X161925Y886130D02*
X193105Y918308D01*
X161925Y886130D02*
X161925Y812800D01*
X215900Y823383D02*
X215900Y838200D01*
X236605Y838200D01*
X215900Y823383D02*
X196850Y806450D01*
X178435Y806450D01*
X178435Y793750D02*
X165100Y793750D01*
X152400Y806450D01*
X152400Y927100D02*
X168356Y943056D01*
X152400Y927100D02*
X152400Y806450D01*
X232097Y805117D02*
X236605Y809625D01*
X219075Y793750D01*
X178435Y793750D01*
D33*
X477125Y799225D02*
X487050Y799225D01*
X473075Y803275D02*
X473075Y828675D01*
X473075Y803275D02*
X477125Y799225D01*
D34*
X473075Y828675D03*
D33*
X572050Y779225D02*
X620475Y779225D01*
X641350Y800100D01*
X641350Y824200D01*
D35*
X799465Y733425D02*
X704215Y638175D01*
X539750Y638175D02*
X539750Y659775D01*
X539750Y638175D02*
X552450Y638175D01*
X704215Y638175D01*
X838200Y952500D02*
X857250Y952500D01*
X876300Y941100D01*
X901700Y941100D02*
X901700Y835025D01*
X901700Y941100D02*
X876300Y941100D01*
D33*
X502050Y841108D02*
X502050Y829225D01*
X502050Y841108D02*
X488950Y849842D01*
X488950Y871825D01*
X487050Y779225D02*
X460325Y779225D01*
X455325Y784225D01*
X439450Y784225D01*
D35*
X123825Y793750D02*
X111125Y793750D01*
X93950Y776575D01*
X82550Y776575D01*
X463550Y871825D02*
X488950Y871825D01*
X799465Y733425D02*
X901700Y835025D01*
D36*
X372276Y903947D02*
X372237Y903986D01*
X372276Y903947D02*
X372085Y873121D01*
X372085Y873166D01*
X372065Y869947D02*
X372065Y869947D01*
X371514Y781019D01*
D37*
X387350Y768350D01*
X439450Y768350D01*
X439450Y784225D01*
X463550Y871825D02*
X463504Y871871D01*
D35*
X463550Y871825D02*
X372077Y871825D01*
X82550Y776575D02*
X82550Y742950D01*
X92075Y733425D01*
X323850Y733425D01*
X371514Y781019D01*
D34*
X371514Y781019D03*
X552450Y647700D03*
D35*
X552450Y638175D01*
X643225Y822325D02*
X641350Y824200D01*
X643225Y822325D02*
X663575Y822325D01*
D34*
X663575Y822325D03*
D36*
X372077Y869958D02*
X372077Y871825D01*
X372077Y869958D02*
X372065Y869947D01*
X372077Y871825D02*
X372085Y871833D01*
X372085Y873121D01*
D38*
X439450Y838200D02*
X439450Y812800D01*
D33*
X455325Y796925D02*
X468025Y784225D01*
X455325Y796925D02*
X455325Y812800D01*
X468025Y784225D02*
X487050Y784225D01*
X455325Y812800D02*
X439450Y812800D01*
X527050Y744225D02*
X527050Y720725D01*
X539750Y708025D01*
X539750Y692775D01*
D35*
X520700Y643225D02*
X501650Y643225D01*
X520700Y643225D02*
X520700Y692775D01*
X539750Y692775D01*
X123825Y771525D02*
X123825Y781050D01*
X123825Y771525D02*
X146050Y749300D01*
X288925Y749300D01*
D34*
X288925Y749300D03*
X520700Y809625D03*
D33*
X512050Y818275D01*
X512050Y829225D01*
D35*
X246130Y781050D02*
X178435Y781050D01*
X265045Y838200D02*
X282575Y838200D01*
X282575Y809625D01*
X265045Y809625D01*
X282575Y809625D02*
X292100Y800100D01*
X292100Y781050D01*
X274570Y781050D01*
X282575Y873125D02*
X264825Y873125D01*
X282575Y873125D02*
X282575Y838200D01*
D33*
X532050Y843200D02*
X532050Y829225D01*
X532050Y843200D02*
X539750Y850900D01*
X577850Y850900D01*
D34*
X577850Y850900D03*
X812800Y869950D03*
D35*
X825500Y882650D01*
X825500Y897890D01*
D33*
X527050Y850900D02*
X527050Y829225D01*
X527050Y850900D02*
X536575Y860425D01*
X568325Y860425D01*
D34*
X568325Y860425D03*
X790575Y974725D03*
D35*
X800100Y965200D01*
X800100Y952500D01*
D33*
X522050Y855425D02*
X522050Y829225D01*
X522050Y855425D02*
X536575Y869950D01*
X561975Y869950D01*
D34*
X561975Y869950D03*
X812800Y987425D03*
D35*
X812800Y952500D01*
X193105Y967805D02*
X181462Y977900D01*
X165100Y977900D01*
X139700Y956129D01*
X197610Y688975D02*
X259590Y688975D01*
X197610Y688975D02*
X91281Y688975D01*
X60325Y725394D01*
X60325Y841375D01*
X139700Y869950D02*
X139700Y956129D01*
X79375Y857250D02*
X60325Y841375D01*
X79375Y857250D02*
X120650Y857250D01*
X139700Y869950D01*
D33*
X259590Y665865D02*
X300740Y665865D01*
X371475Y736600D01*
X450850Y736600D01*
X473475Y759225D01*
X487050Y759225D01*
D39*
X520700Y1096010D02*
X533400Y1096010D01*
X520700Y1096010D02*
X508000Y1096010D01*
X495300Y1096010D01*
X482600Y1155700D01*
X530225Y1098550D01*
X508000Y1104900D01*
X628650Y1096010D02*
X641350Y1096010D01*
X628650Y1096010D02*
X615950Y1096010D01*
X603250Y1096010D01*
X533400Y1168400D01*
X641350Y1098550D01*
X736600Y1096010D02*
X749300Y1096010D01*
X736600Y1096010D02*
X723900Y1096010D01*
X711200Y1096010D01*
X584200Y1181100D01*
X746125Y1098550D01*
D35*
X520700Y1041400D02*
X520700Y1007110D01*
X628650Y1007110D02*
X628650Y1041400D01*
X736600Y1041400D02*
X736600Y1007110D01*
X520700Y1041400D02*
X520700Y1066800D01*
X736600Y1066800D02*
X736600Y1041400D01*
D39*
X555625Y1066800D02*
X520700Y1066800D01*
X555625Y1066800D02*
X628650Y1066800D01*
X660400Y1066800D01*
X736600Y1066800D01*
X341597Y1066800D02*
X316849Y1042051D01*
X341597Y1066800D02*
X425450Y1066800D01*
X520700Y1066800D01*
D35*
X628650Y1066800D02*
X628650Y1007110D01*
D36*
X425450Y1041400D02*
X425450Y1066800D01*
X555625Y1066800D02*
X555625Y1039525D01*
X660400Y1039525D02*
X660400Y1066800D01*
X736600Y1066800D02*
X765175Y1066800D01*
X774700Y1057275D01*
X774700Y1039525D01*
X372237Y950214D02*
X355600Y950214D01*
X346075Y950214D01*
D35*
X321564Y950214D01*
X313025Y941675D01*
X313025Y927100D01*
D36*
X349250Y1009650D02*
X358775Y1009650D01*
X349250Y1009650D02*
X316849Y1042051D01*
D34*
X358775Y1009650D03*
X346075Y959739D03*
D36*
X346075Y950214D01*
D35*
X508000Y1007110D02*
X508000Y1041400D01*
X533400Y1041400D02*
X533400Y1007110D01*
X615950Y1007110D02*
X615950Y1041400D01*
X641350Y1041400D02*
X641350Y1007110D01*
X723900Y1007110D02*
X723900Y1041400D01*
X749300Y1041400D02*
X749300Y1007110D01*
D33*
X609600Y838200D02*
X609600Y809625D01*
X594200Y794225D01*
X572050Y794225D01*
X609600Y838200D02*
X508000Y939800D01*
X508000Y952500D01*
X533400Y936625D02*
X615950Y854075D01*
X533400Y936625D02*
X533400Y952500D01*
X615950Y854075D02*
X615950Y803275D01*
X601900Y789225D01*
X572050Y789225D01*
X682625Y847725D02*
X615950Y914400D01*
X615950Y952500D01*
X682625Y847725D02*
X682625Y819150D01*
X637700Y774225D01*
X572050Y774225D01*
X651750Y769225D02*
X695325Y812800D01*
X651750Y769225D02*
X572050Y769225D01*
X695325Y860425D02*
X641350Y914400D01*
X641350Y952500D01*
X695325Y860425D02*
X695325Y812800D01*
X723900Y822325D02*
X723900Y952500D01*
X723900Y822325D02*
X665800Y764225D01*
X572050Y764225D01*
X572050Y759225D02*
X673100Y758825D01*
X749300Y835025D01*
X749300Y952500D01*
X532050Y744225D02*
X532050Y728425D01*
X539750Y720725D01*
D34*
X539750Y720725D03*
D33*
X552850Y809225D02*
X572050Y809225D01*
D34*
X552850Y809225D03*
D33*
X537050Y813275D02*
X537050Y829225D01*
D34*
X537050Y813275D03*
D33*
X502600Y764225D02*
X487050Y764225D01*
X502600Y764225D02*
X504825Y762000D01*
D34*
X504825Y762000D03*
D33*
X374650Y714375D02*
X374650Y688975D01*
X374650Y714375D02*
X390525Y730250D01*
X492125Y730250D01*
X502050Y740175D01*
X502050Y744225D01*
X400050Y711200D02*
X400050Y688975D01*
X400050Y711200D02*
X412750Y723900D01*
X495300Y723900D01*
X507050Y735650D01*
X507050Y744225D01*
X425450Y704850D02*
X425450Y688975D01*
X425450Y704850D02*
X438150Y717550D01*
X498475Y717550D02*
X512050Y731125D01*
X512050Y744225D01*
X498475Y717550D02*
X438150Y717550D01*
X450850Y688975D02*
X482953Y688975D01*
X517050Y723455D02*
X517050Y744225D01*
X517050Y723455D02*
X482953Y688975D01*
X600428Y682625D02*
X603250Y682625D01*
X600428Y682625D02*
X542050Y730389D01*
X542050Y744225D01*
X628650Y704850D02*
X628650Y682625D01*
X628650Y704850D02*
X609600Y723900D01*
X558800Y723900D01*
X547050Y733425D02*
X547050Y744225D01*
X547050Y733425D02*
X558800Y723900D01*
X654050Y708025D02*
X654050Y682625D01*
X654050Y708025D02*
X631825Y730250D01*
X560917Y730250D02*
X552543Y736530D01*
X552331Y743944D01*
X552050Y744225D01*
X560917Y730250D02*
X631825Y730250D01*
X679450Y717550D02*
X679450Y682625D01*
X679450Y717550D02*
X660400Y736600D01*
X563033Y736600D01*
X557050Y741088D01*
X557050Y744225D01*
D35*
X593725Y1044575D02*
X603250Y1044575D01*
X701675Y1044575D02*
X711200Y1044575D01*
X711200Y1041400D02*
X704850Y1035050D01*
X701675Y1035050D01*
X603250Y1041400D02*
X596900Y1035050D01*
X593725Y1035050D01*
X495300Y1041400D02*
X488950Y1035050D01*
X485775Y1035050D01*
D39*
X463550Y1035050D01*
D33*
X487050Y789225D02*
X500300Y789225D01*
X507050Y795975D01*
X507050Y829225D01*
X520700Y784225D02*
X572050Y784225D01*
X518828Y785528D02*
X518745Y785601D01*
X507050Y795975D01*
X522050Y782305D02*
X522050Y744225D01*
X520700Y784225D02*
X518745Y785601D01*
X520700Y784225D02*
X522050Y782305D01*
X522050Y744225D02*
X522050Y715725D01*
X501650Y695325D01*
D35*
X688975Y977900D02*
X736600Y977900D01*
X688975Y977900D02*
X628650Y977900D01*
X584200Y977900D01*
X527050Y977900D01*
X520700Y971550D01*
X520700Y952500D01*
X628650Y952500D02*
X628650Y977900D01*
D33*
X609600Y784225D02*
X572050Y784225D01*
X609600Y784225D02*
X622300Y796925D01*
X622300Y847725D01*
D35*
X838200Y897890D02*
X838200Y914400D01*
X825500Y927100D01*
X736600Y952500D02*
X736600Y977900D01*
X758825Y977900D02*
X771525Y965200D01*
X771525Y939800D01*
X752475Y977900D02*
X736600Y977900D01*
X752475Y977900D02*
X758825Y977900D01*
X771525Y939800D02*
X784225Y927100D01*
X825500Y927100D01*
D39*
X701675Y1035050D02*
X688975Y1035050D01*
X688975Y1003300D01*
X688975Y977900D01*
X593725Y1035050D02*
X584200Y1035050D01*
X584200Y1009650D01*
X584200Y977900D01*
D36*
X584200Y1009650D02*
X555625Y1011525D01*
X660400Y1011525D02*
X688975Y1003300D01*
D39*
X463550Y981145D02*
X463550Y1035050D01*
X752404Y977971D02*
X752475Y977900D01*
X752404Y977971D02*
X507050Y980667D01*
D36*
X774700Y993775D02*
X774700Y1011525D01*
X774700Y993775D02*
X758825Y977900D01*
D39*
X325643Y982590D02*
X292100Y1017116D01*
X292100Y1017303D01*
X431578Y981426D02*
X434215Y981397D01*
X431578Y981426D02*
X425420Y981494D01*
X325643Y982590D01*
D33*
X501650Y695325D02*
X501650Y671225D01*
D36*
X425420Y981494D02*
X425450Y1016000D01*
D35*
X838200Y914400D02*
X876300Y913100D01*
X184150Y819150D02*
X178435Y819150D01*
X184150Y819150D02*
X190500Y819150D01*
X203200Y828675D01*
X203200Y873125D01*
X236825Y873125D01*
D33*
X507050Y895350D02*
X507050Y829225D01*
D38*
X411450Y812800D02*
X411450Y784225D01*
X411450Y812800D02*
X411450Y838200D01*
D33*
X474425Y789225D02*
X487050Y789225D01*
X474425Y789225D02*
X463550Y800100D01*
X463550Y847725D01*
X454025Y857250D01*
X411836Y838274D02*
X411450Y838200D01*
X411836Y838274D02*
X427525Y857250D01*
X454025Y857250D01*
D35*
X84425Y806450D02*
X82550Y804575D01*
X84425Y806450D02*
X123825Y806450D01*
X463550Y899825D02*
X488950Y899825D01*
X463550Y899825D02*
X463550Y981075D01*
D33*
X503244Y899825D02*
X507050Y895350D01*
X503244Y899825D02*
X488950Y899825D01*
X622300Y847725D02*
X627927Y852200D01*
X641350Y852200D01*
D36*
X434215Y927100D02*
X434215Y981397D01*
X434215Y927100D02*
X372237Y927100D01*
X341025Y927100D01*
D35*
X236825Y894050D02*
X236825Y873125D01*
X236825Y894050D02*
X241300Y898525D01*
X341025Y912525D02*
X341025Y920750D01*
X341025Y927100D01*
X82550Y835025D02*
X82550Y804575D01*
D34*
X82550Y835025D03*
X184150Y835025D03*
D35*
X184150Y819150D01*
D39*
X506712Y981005D02*
X507050Y980667D01*
D36*
X259590Y712085D02*
X260475Y711200D01*
X295275Y711200D01*
D34*
X295275Y711200D03*
X339725Y866775D03*
D36*
X341025Y866775D01*
X341025Y898525D01*
X341025Y920750D01*
D35*
X341025Y898525D02*
X241300Y898525D01*
D39*
X434215Y981397D02*
X438110Y981397D01*
X438432Y981075D01*
X463550Y981145D02*
X463690Y981005D01*
X506712Y981005D01*
X463550Y981075D02*
X463480Y981075D01*
X438432Y981075D01*
X463480Y981075D02*
X463550Y981145D01*
D35*
X485775Y1044575D02*
X495300Y1044575D01*
D33*
X487050Y1396525D02*
X507525Y1396525D01*
D34*
X507525Y1396525D03*
D33*
X487050Y1391525D02*
X465850Y1391525D01*
D34*
X465850Y1391525D03*
D35*
X136525Y1441450D02*
X123825Y1441450D01*
X136525Y1441450D02*
X142875Y1435100D01*
X142875Y1400175D01*
X158750Y1384300D02*
X288925Y1384300D01*
X158750Y1384300D02*
X142875Y1400175D01*
D34*
X288925Y1384300D03*
X514350Y1479550D03*
D33*
X517050Y1476850D01*
X517050Y1451525D01*
D35*
X178435Y1428750D02*
X168275Y1428750D01*
X161925Y1435100D01*
X161925Y1508430D02*
X193105Y1540608D01*
X161925Y1508430D02*
X161925Y1435100D01*
X215900Y1445683D02*
X215900Y1460500D01*
X236605Y1460500D01*
X215900Y1445683D02*
X196850Y1428750D01*
X178435Y1428750D01*
X178435Y1416050D02*
X165100Y1416050D01*
X152400Y1428750D01*
X152400Y1549400D02*
X168356Y1565356D01*
X152400Y1549400D02*
X152400Y1428750D01*
X232097Y1427417D02*
X236605Y1431925D01*
X219075Y1416050D01*
X178435Y1416050D01*
D33*
X477125Y1421525D02*
X487050Y1421525D01*
X473075Y1425575D02*
X473075Y1450975D01*
X473075Y1425575D02*
X477125Y1421525D01*
D34*
X473075Y1450975D03*
D33*
X572050Y1401525D02*
X620475Y1401525D01*
X641350Y1422400D01*
X641350Y1446500D01*
D35*
X799465Y1355725D02*
X704215Y1260475D01*
X539750Y1260475D02*
X539750Y1282075D01*
X539750Y1260475D02*
X552450Y1260475D01*
X704215Y1260475D01*
X838200Y1574800D02*
X857250Y1574800D01*
X876300Y1563400D01*
X901700Y1563400D02*
X901700Y1457325D01*
X901700Y1563400D02*
X876300Y1563400D01*
D33*
X502050Y1463408D02*
X502050Y1451525D01*
X502050Y1463408D02*
X488950Y1472142D01*
X488950Y1494125D01*
X487050Y1401525D02*
X460325Y1401525D01*
X455325Y1406525D01*
X439450Y1406525D01*
D35*
X123825Y1416050D02*
X111125Y1416050D01*
X93950Y1398875D01*
X82550Y1398875D01*
X463550Y1494125D02*
X488950Y1494125D01*
X799465Y1355725D02*
X901700Y1457325D01*
D36*
X372276Y1526247D02*
X372237Y1526286D01*
X372276Y1526247D02*
X372085Y1495421D01*
X372085Y1495466D01*
X372065Y1492247D02*
X372065Y1492247D01*
X371514Y1403319D01*
D37*
X387350Y1390650D01*
X439450Y1390650D01*
X439450Y1406525D01*
X463550Y1494125D02*
X463504Y1494171D01*
D35*
X463550Y1494125D02*
X372077Y1494125D01*
X82550Y1398875D02*
X82550Y1365250D01*
X92075Y1355725D01*
X323850Y1355725D01*
X371514Y1403319D01*
D34*
X371514Y1403319D03*
X552450Y1270000D03*
D35*
X552450Y1260475D01*
X643225Y1444625D02*
X641350Y1446500D01*
X643225Y1444625D02*
X663575Y1444625D01*
D34*
X663575Y1444625D03*
D36*
X372077Y1492258D02*
X372077Y1494125D01*
X372077Y1492258D02*
X372065Y1492247D01*
X372077Y1494125D02*
X372085Y1494133D01*
X372085Y1495421D01*
D38*
X439450Y1460500D02*
X439450Y1435100D01*
D33*
X455325Y1419225D02*
X468025Y1406525D01*
X455325Y1419225D02*
X455325Y1435100D01*
X468025Y1406525D02*
X487050Y1406525D01*
X455325Y1435100D02*
X439450Y1435100D01*
X527050Y1366525D02*
X527050Y1343025D01*
X539750Y1330325D01*
X539750Y1315075D01*
D35*
X520700Y1265525D02*
X501650Y1265525D01*
X520700Y1265525D02*
X520700Y1315075D01*
X539750Y1315075D01*
X123825Y1393825D02*
X123825Y1403350D01*
X123825Y1393825D02*
X146050Y1371600D01*
X288925Y1371600D01*
D34*
X288925Y1371600D03*
X520700Y1431925D03*
D33*
X512050Y1440575D01*
X512050Y1451525D01*
D35*
X246130Y1403350D02*
X178435Y1403350D01*
X265045Y1460500D02*
X282575Y1460500D01*
X282575Y1431925D01*
X265045Y1431925D01*
X282575Y1431925D02*
X292100Y1422400D01*
X292100Y1403350D01*
X274570Y1403350D01*
X282575Y1495425D02*
X264825Y1495425D01*
X282575Y1495425D02*
X282575Y1460500D01*
D33*
X532050Y1465500D02*
X532050Y1451525D01*
X532050Y1465500D02*
X539750Y1473200D01*
X577850Y1473200D01*
D34*
X577850Y1473200D03*
X812800Y1492250D03*
D35*
X825500Y1504950D01*
X825500Y1520190D01*
D33*
X527050Y1473200D02*
X527050Y1451525D01*
X527050Y1473200D02*
X536575Y1482725D01*
X568325Y1482725D01*
D34*
X568325Y1482725D03*
X790575Y1597025D03*
D35*
X800100Y1587500D01*
X800100Y1574800D01*
D33*
X522050Y1477725D02*
X522050Y1451525D01*
X522050Y1477725D02*
X536575Y1492250D01*
X561975Y1492250D01*
D34*
X561975Y1492250D03*
X812800Y1609725D03*
D35*
X812800Y1574800D01*
X193105Y1590105D02*
X181462Y1600200D01*
X165100Y1600200D01*
X139700Y1578429D01*
X197610Y1311275D02*
X259590Y1311275D01*
X197610Y1311275D02*
X91281Y1311275D01*
X60325Y1347694D01*
X60325Y1463675D01*
X139700Y1492250D02*
X139700Y1578429D01*
X79375Y1479550D02*
X60325Y1463675D01*
X79375Y1479550D02*
X120650Y1479550D01*
X139700Y1492250D01*
D33*
X259590Y1288165D02*
X300740Y1288165D01*
X371475Y1358900D01*
X450850Y1358900D01*
X473475Y1381525D01*
X487050Y1381525D01*
D39*
X520700Y1718310D02*
X533400Y1718310D01*
X520700Y1718310D02*
X508000Y1718310D01*
X495300Y1718310D01*
X482600Y1778000D01*
X530225Y1720850D01*
X508000Y1727200D01*
X628650Y1718310D02*
X641350Y1718310D01*
X628650Y1718310D02*
X615950Y1718310D01*
X603250Y1718310D01*
X533400Y1790700D01*
X641350Y1720850D01*
X736600Y1718310D02*
X749300Y1718310D01*
X736600Y1718310D02*
X723900Y1718310D01*
X711200Y1718310D01*
X584200Y1803400D01*
X746125Y1720850D01*
D35*
X520700Y1663700D02*
X520700Y1629410D01*
X628650Y1629410D02*
X628650Y1663700D01*
X736600Y1663700D02*
X736600Y1629410D01*
X520700Y1663700D02*
X520700Y1689100D01*
X736600Y1689100D02*
X736600Y1663700D01*
D39*
X555625Y1689100D02*
X520700Y1689100D01*
X555625Y1689100D02*
X628650Y1689100D01*
X660400Y1689100D01*
X736600Y1689100D01*
X341597Y1689100D02*
X316849Y1664351D01*
X341597Y1689100D02*
X425450Y1689100D01*
X520700Y1689100D01*
D35*
X628650Y1689100D02*
X628650Y1629410D01*
D36*
X425450Y1663700D02*
X425450Y1689100D01*
X555625Y1689100D02*
X555625Y1661825D01*
X660400Y1661825D02*
X660400Y1689100D01*
X736600Y1689100D02*
X765175Y1689100D01*
X774700Y1679575D01*
X774700Y1661825D01*
X372237Y1572514D02*
X355600Y1572514D01*
X346075Y1572514D01*
D35*
X321564Y1572514D01*
X313025Y1563975D01*
X313025Y1549400D01*
D36*
X349250Y1631950D02*
X358775Y1631950D01*
X349250Y1631950D02*
X316849Y1664351D01*
D34*
X358775Y1631950D03*
X346075Y1582039D03*
D36*
X346075Y1572514D01*
D35*
X508000Y1629410D02*
X508000Y1663700D01*
X533400Y1663700D02*
X533400Y1629410D01*
X615950Y1629410D02*
X615950Y1663700D01*
X641350Y1663700D02*
X641350Y1629410D01*
X723900Y1629410D02*
X723900Y1663700D01*
X749300Y1663700D02*
X749300Y1629410D01*
D33*
X609600Y1460500D02*
X609600Y1431925D01*
X594200Y1416525D01*
X572050Y1416525D01*
X609600Y1460500D02*
X508000Y1562100D01*
X508000Y1574800D01*
X533400Y1558925D02*
X615950Y1476375D01*
X533400Y1558925D02*
X533400Y1574800D01*
X615950Y1476375D02*
X615950Y1425575D01*
X601900Y1411525D01*
X572050Y1411525D01*
X682625Y1470025D02*
X615950Y1536700D01*
X615950Y1574800D01*
X682625Y1470025D02*
X682625Y1441450D01*
X637700Y1396525D01*
X572050Y1396525D01*
X651750Y1391525D02*
X695325Y1435100D01*
X651750Y1391525D02*
X572050Y1391525D01*
X695325Y1482725D02*
X641350Y1536700D01*
X641350Y1574800D01*
X695325Y1482725D02*
X695325Y1435100D01*
X723900Y1444625D02*
X723900Y1574800D01*
X723900Y1444625D02*
X665800Y1386525D01*
X572050Y1386525D01*
X572050Y1381525D02*
X673100Y1381125D01*
X749300Y1457325D01*
X749300Y1574800D01*
X532050Y1366525D02*
X532050Y1350725D01*
X539750Y1343025D01*
D34*
X539750Y1343025D03*
D33*
X552850Y1431525D02*
X572050Y1431525D01*
D34*
X552850Y1431525D03*
D33*
X537050Y1435575D02*
X537050Y1451525D01*
D34*
X537050Y1435575D03*
D33*
X502600Y1386525D02*
X487050Y1386525D01*
X502600Y1386525D02*
X504825Y1384300D01*
D34*
X504825Y1384300D03*
D33*
X374650Y1336675D02*
X374650Y1311275D01*
X374650Y1336675D02*
X390525Y1352550D01*
X492125Y1352550D01*
X502050Y1362475D01*
X502050Y1366525D01*
X400050Y1333500D02*
X400050Y1311275D01*
X400050Y1333500D02*
X412750Y1346200D01*
X495300Y1346200D01*
X507050Y1357950D01*
X507050Y1366525D01*
X425450Y1327150D02*
X425450Y1311275D01*
X425450Y1327150D02*
X438150Y1339850D01*
X498475Y1339850D02*
X512050Y1353425D01*
X512050Y1366525D01*
X498475Y1339850D02*
X438150Y1339850D01*
X450850Y1311275D02*
X482953Y1311275D01*
X517050Y1345755D02*
X517050Y1366525D01*
X517050Y1345755D02*
X482953Y1311275D01*
X600428Y1304925D02*
X603250Y1304925D01*
X600428Y1304925D02*
X542050Y1352689D01*
X542050Y1366525D01*
X628650Y1327150D02*
X628650Y1304925D01*
X628650Y1327150D02*
X609600Y1346200D01*
X558800Y1346200D01*
X547050Y1355725D02*
X547050Y1366525D01*
X547050Y1355725D02*
X558800Y1346200D01*
X654050Y1330325D02*
X654050Y1304925D01*
X654050Y1330325D02*
X631825Y1352550D01*
X560917Y1352550D02*
X552543Y1358830D01*
X552331Y1366244D01*
X552050Y1366525D01*
X560917Y1352550D02*
X631825Y1352550D01*
X679450Y1339850D02*
X679450Y1304925D01*
X679450Y1339850D02*
X660400Y1358900D01*
X563033Y1358900D01*
X557050Y1363388D01*
X557050Y1366525D01*
D35*
X593725Y1666875D02*
X603250Y1666875D01*
X701675Y1666875D02*
X711200Y1666875D01*
X711200Y1663700D02*
X704850Y1657350D01*
X701675Y1657350D01*
X603250Y1663700D02*
X596900Y1657350D01*
X593725Y1657350D01*
X495300Y1663700D02*
X488950Y1657350D01*
X485775Y1657350D01*
D39*
X463550Y1657350D01*
D33*
X487050Y1411525D02*
X500300Y1411525D01*
X507050Y1418275D01*
X507050Y1451525D01*
X520700Y1406525D02*
X572050Y1406525D01*
X518828Y1407828D02*
X518745Y1407901D01*
X507050Y1418275D01*
X522050Y1404605D02*
X522050Y1366525D01*
X520700Y1406525D02*
X518745Y1407901D01*
X520700Y1406525D02*
X522050Y1404605D01*
X522050Y1366525D02*
X522050Y1338025D01*
X501650Y1317625D01*
D35*
X688975Y1600200D02*
X736600Y1600200D01*
X688975Y1600200D02*
X628650Y1600200D01*
X584200Y1600200D01*
X527050Y1600200D01*
X520700Y1593850D01*
X520700Y1574800D01*
X628650Y1574800D02*
X628650Y1600200D01*
D33*
X609600Y1406525D02*
X572050Y1406525D01*
X609600Y1406525D02*
X622300Y1419225D01*
X622300Y1470025D01*
D35*
X838200Y1520190D02*
X838200Y1536700D01*
X825500Y1549400D01*
X736600Y1574800D02*
X736600Y1600200D01*
X758825Y1600200D02*
X771525Y1587500D01*
X771525Y1562100D01*
X752475Y1600200D02*
X736600Y1600200D01*
X752475Y1600200D02*
X758825Y1600200D01*
X771525Y1562100D02*
X784225Y1549400D01*
X825500Y1549400D01*
D39*
X701675Y1657350D02*
X688975Y1657350D01*
X688975Y1625600D01*
X688975Y1600200D01*
X593725Y1657350D02*
X584200Y1657350D01*
X584200Y1631950D01*
X584200Y1600200D01*
D36*
X584200Y1631950D02*
X555625Y1633825D01*
X660400Y1633825D02*
X688975Y1625600D01*
D39*
X463550Y1603445D02*
X463550Y1657350D01*
X752404Y1600271D02*
X752475Y1600200D01*
X752404Y1600271D02*
X507050Y1602967D01*
D36*
X774700Y1616075D02*
X774700Y1633825D01*
X774700Y1616075D02*
X758825Y1600200D01*
D39*
X325643Y1604890D02*
X292100Y1639416D01*
X292100Y1639603D01*
X431578Y1603726D02*
X434215Y1603697D01*
X431578Y1603726D02*
X425420Y1603794D01*
X325643Y1604890D01*
D33*
X501650Y1317625D02*
X501650Y1293525D01*
D36*
X425420Y1603794D02*
X425450Y1638300D01*
D35*
X838200Y1536700D02*
X876300Y1535400D01*
X184150Y1441450D02*
X178435Y1441450D01*
X184150Y1441450D02*
X190500Y1441450D01*
X203200Y1450975D01*
X203200Y1495425D01*
X236825Y1495425D01*
D33*
X507050Y1517650D02*
X507050Y1451525D01*
D38*
X411450Y1435100D02*
X411450Y1406525D01*
X411450Y1435100D02*
X411450Y1460500D01*
D33*
X474425Y1411525D02*
X487050Y1411525D01*
X474425Y1411525D02*
X463550Y1422400D01*
X463550Y1470025D01*
X454025Y1479550D01*
X411836Y1460574D02*
X411450Y1460500D01*
X411836Y1460574D02*
X427525Y1479550D01*
X454025Y1479550D01*
D35*
X84425Y1428750D02*
X82550Y1426875D01*
X84425Y1428750D02*
X123825Y1428750D01*
X463550Y1522125D02*
X488950Y1522125D01*
X463550Y1522125D02*
X463550Y1603375D01*
D33*
X503244Y1522125D02*
X507050Y1517650D01*
X503244Y1522125D02*
X488950Y1522125D01*
X622300Y1470025D02*
X627927Y1474500D01*
X641350Y1474500D01*
D36*
X434215Y1549400D02*
X434215Y1603697D01*
X434215Y1549400D02*
X372237Y1549400D01*
X341025Y1549400D01*
D35*
X236825Y1516350D02*
X236825Y1495425D01*
X236825Y1516350D02*
X241300Y1520825D01*
X341025Y1534825D02*
X341025Y1543050D01*
X341025Y1549400D01*
X82550Y1457325D02*
X82550Y1426875D01*
D34*
X82550Y1457325D03*
X184150Y1457325D03*
D35*
X184150Y1441450D01*
D39*
X506712Y1603305D02*
X507050Y1602967D01*
D36*
X259590Y1334385D02*
X260475Y1333500D01*
X295275Y1333500D01*
D34*
X295275Y1333500D03*
X339725Y1489075D03*
D36*
X341025Y1489075D01*
X341025Y1520825D01*
X341025Y1543050D01*
D35*
X341025Y1520825D02*
X241300Y1520825D01*
D39*
X434215Y1603697D02*
X438110Y1603697D01*
X438432Y1603375D01*
X463550Y1603445D02*
X463690Y1603305D01*
X506712Y1603305D01*
X463550Y1603375D02*
X463480Y1603375D01*
X438432Y1603375D01*
X463480Y1603375D02*
X463550Y1603445D01*
D35*
X485775Y1666875D02*
X495300Y1666875D01*
D33*
X1422875Y507525D02*
X1422875Y487050D01*
D34*
X1422875Y507525D03*
D33*
X1427875Y487050D02*
X1427875Y465850D01*
D34*
X1427875Y465850D03*
D35*
X1377950Y136525D02*
X1377950Y123825D01*
X1377950Y136525D02*
X1384300Y142875D01*
X1419225Y142875D01*
X1435100Y158750D02*
X1435100Y288925D01*
X1435100Y158750D02*
X1419225Y142875D01*
D34*
X1435100Y288925D03*
X1339850Y514350D03*
D33*
X1342550Y517050D01*
X1367875Y517050D01*
D35*
X1390650Y178435D02*
X1390650Y168275D01*
X1384300Y161925D01*
X1310970Y161925D02*
X1278792Y193105D01*
X1310970Y161925D02*
X1384300Y161925D01*
X1373717Y215900D02*
X1358900Y215900D01*
X1358900Y236605D01*
X1373717Y215900D02*
X1390650Y196850D01*
X1390650Y178435D01*
X1403350Y178435D02*
X1403350Y165100D01*
X1390650Y152400D01*
X1270000Y152400D02*
X1254044Y168356D01*
X1270000Y152400D02*
X1390650Y152400D01*
X1391983Y232097D02*
X1387475Y236605D01*
X1403350Y219075D01*
X1403350Y178435D01*
D33*
X1397875Y477125D02*
X1397875Y487050D01*
X1393825Y473075D02*
X1368425Y473075D01*
X1393825Y473075D02*
X1397875Y477125D01*
D34*
X1368425Y473075D03*
D33*
X1417875Y572050D02*
X1417875Y620475D01*
X1397000Y641350D01*
X1372900Y641350D01*
D35*
X1463675Y799465D02*
X1558925Y704215D01*
X1558925Y539750D02*
X1537325Y539750D01*
X1558925Y539750D02*
X1558925Y552450D01*
X1558925Y704215D01*
X1244600Y838200D02*
X1244600Y857250D01*
X1256000Y876300D01*
X1256000Y901700D02*
X1362075Y901700D01*
X1256000Y901700D02*
X1256000Y876300D01*
D33*
X1355992Y502050D02*
X1367875Y502050D01*
X1355992Y502050D02*
X1347258Y488950D01*
X1325275Y488950D01*
X1417875Y487050D02*
X1417875Y460325D01*
X1412875Y455325D01*
X1412875Y439450D01*
D35*
X1403350Y123825D02*
X1403350Y111125D01*
X1420525Y93950D01*
X1420525Y82550D01*
X1325275Y463550D02*
X1325275Y488950D01*
X1463675Y799465D02*
X1362075Y901700D01*
D36*
X1293153Y372276D02*
X1293114Y372237D01*
X1293153Y372276D02*
X1323979Y372085D01*
X1323934Y372085D01*
X1327153Y372065D02*
X1327154Y372065D01*
X1416081Y371514D01*
D37*
X1428750Y387350D01*
X1428750Y439450D01*
X1412875Y439450D01*
X1325275Y463550D02*
X1325229Y463504D01*
D35*
X1325275Y463550D02*
X1325275Y372077D01*
X1420525Y82550D02*
X1454150Y82550D01*
X1463675Y92075D01*
X1463675Y323850D01*
X1416081Y371514D01*
D34*
X1416081Y371514D03*
X1549400Y552450D03*
D35*
X1558925Y552450D01*
X1374775Y643225D02*
X1372900Y641350D01*
X1374775Y643225D02*
X1374775Y663575D01*
D34*
X1374775Y663575D03*
D36*
X1327142Y372077D02*
X1325275Y372077D01*
X1327142Y372077D02*
X1327153Y372065D01*
X1325275Y372077D02*
X1325267Y372085D01*
X1323979Y372085D01*
D38*
X1358900Y439450D02*
X1384300Y439450D01*
D33*
X1400175Y455325D02*
X1412875Y468025D01*
X1400175Y455325D02*
X1384300Y455325D01*
X1412875Y468025D02*
X1412875Y487050D01*
X1384300Y455325D02*
X1384300Y439450D01*
X1452875Y527050D02*
X1476375Y527050D01*
X1489075Y539750D01*
X1504325Y539750D01*
D35*
X1553875Y520700D02*
X1553875Y501650D01*
X1553875Y520700D02*
X1504325Y520700D01*
X1504325Y539750D01*
X1425575Y123825D02*
X1416050Y123825D01*
X1425575Y123825D02*
X1447800Y146050D01*
X1447800Y288925D01*
D34*
X1447800Y288925D03*
X1387475Y520700D03*
D33*
X1378825Y512050D01*
X1367875Y512050D01*
D35*
X1416050Y246130D02*
X1416050Y178435D01*
X1358900Y265045D02*
X1358900Y282575D01*
X1387475Y282575D01*
X1387475Y265045D01*
X1387475Y282575D02*
X1397000Y292100D01*
X1416050Y292100D01*
X1416050Y274570D01*
X1323975Y282575D02*
X1323975Y264825D01*
X1323975Y282575D02*
X1358900Y282575D01*
D33*
X1353900Y532050D02*
X1367875Y532050D01*
X1353900Y532050D02*
X1346200Y539750D01*
X1346200Y577850D01*
D34*
X1346200Y577850D03*
X1327150Y812800D03*
D35*
X1314450Y825500D01*
X1299210Y825500D01*
D33*
X1346200Y527050D02*
X1367875Y527050D01*
X1346200Y527050D02*
X1336675Y536575D01*
X1336675Y568325D01*
D34*
X1336675Y568325D03*
X1222375Y790575D03*
D35*
X1231900Y800100D01*
X1244600Y800100D01*
D33*
X1341675Y522050D02*
X1367875Y522050D01*
X1341675Y522050D02*
X1327150Y536575D01*
X1327150Y561975D01*
D34*
X1327150Y561975D03*
X1209675Y812800D03*
D35*
X1244600Y812800D01*
X1229295Y193105D02*
X1219200Y181462D01*
X1219200Y165100D01*
X1240971Y139700D01*
X1508125Y197610D02*
X1508125Y259590D01*
X1508125Y197610D02*
X1508125Y91281D01*
X1471706Y60325D01*
X1355725Y60325D01*
X1327150Y139700D02*
X1240971Y139700D01*
X1339850Y79375D02*
X1355725Y60325D01*
X1339850Y79375D02*
X1339850Y120650D01*
X1327150Y139700D01*
D33*
X1531235Y259590D02*
X1531235Y300740D01*
X1460500Y371475D01*
X1460500Y450850D01*
X1437875Y473475D01*
X1437875Y487050D01*
D39*
X1101090Y520700D02*
X1101090Y533400D01*
X1101090Y520700D02*
X1101090Y508000D01*
X1101090Y495300D01*
X1041400Y482600D01*
X1098550Y530225D01*
X1092200Y508000D01*
X1101090Y628650D02*
X1101090Y641350D01*
X1101090Y628650D02*
X1101090Y615950D01*
X1101090Y603250D01*
X1028700Y533400D01*
X1098550Y641350D01*
X1101090Y736600D02*
X1101090Y749300D01*
X1101090Y736600D02*
X1101090Y723900D01*
X1101090Y711200D01*
X1016000Y584200D01*
X1098550Y746125D01*
D35*
X1155700Y520700D02*
X1189990Y520700D01*
X1189990Y628650D02*
X1155700Y628650D01*
X1155700Y736600D02*
X1189990Y736600D01*
X1155700Y520700D02*
X1130300Y520700D01*
X1130300Y736600D02*
X1155700Y736600D01*
D39*
X1130300Y555625D02*
X1130300Y520700D01*
X1130300Y555625D02*
X1130300Y628650D01*
X1130300Y660400D01*
X1130300Y736600D01*
X1130300Y341597D02*
X1155049Y316849D01*
X1130300Y341597D02*
X1130300Y425450D01*
X1130300Y520700D01*
D35*
X1130300Y628650D02*
X1189990Y628650D01*
D36*
X1155700Y425450D02*
X1130300Y425450D01*
X1130300Y555625D02*
X1157575Y555625D01*
X1157575Y660400D02*
X1130300Y660400D01*
X1130300Y736600D02*
X1130300Y765175D01*
X1139825Y774700D01*
X1157575Y774700D01*
X1246886Y372237D02*
X1246886Y346075D01*
D35*
X1246886Y321564D01*
X1255425Y313025D01*
X1270000Y313025D01*
D36*
X1187450Y349250D02*
X1187450Y358775D01*
X1187450Y349250D02*
X1155049Y316849D01*
D34*
X1187450Y358775D03*
X1237361Y346075D03*
D36*
X1246886Y346075D01*
D35*
X1189990Y508000D02*
X1155700Y508000D01*
X1155700Y533400D02*
X1189990Y533400D01*
X1189990Y615950D02*
X1155700Y615950D01*
X1155700Y641350D02*
X1189990Y641350D01*
X1189990Y723900D02*
X1155700Y723900D01*
X1155700Y749300D02*
X1189990Y749300D01*
D33*
X1358900Y609600D02*
X1387475Y609600D01*
X1402875Y594200D01*
X1402875Y572050D01*
X1358900Y609600D02*
X1257300Y508000D01*
X1244600Y508000D01*
X1260475Y533400D02*
X1343025Y615950D01*
X1260475Y533400D02*
X1244600Y533400D01*
X1343025Y615950D02*
X1393825Y615950D01*
X1407875Y601900D01*
X1407875Y572050D01*
X1349375Y682625D02*
X1282700Y615950D01*
X1244600Y615950D01*
X1349375Y682625D02*
X1377950Y682625D01*
X1422875Y637700D01*
X1422875Y572050D01*
X1427875Y651750D02*
X1384300Y695325D01*
X1427875Y651750D02*
X1427875Y572050D01*
X1336675Y695325D02*
X1282700Y641350D01*
X1244600Y641350D01*
X1336675Y695325D02*
X1384300Y695325D01*
X1374775Y723900D02*
X1244600Y723900D01*
X1374775Y723900D02*
X1432875Y665800D01*
X1432875Y572050D01*
X1437875Y572050D02*
X1438275Y673100D01*
X1362075Y749300D01*
X1244600Y749300D01*
X1452875Y532050D02*
X1468675Y532050D01*
X1476375Y539750D01*
D34*
X1476375Y539750D03*
D33*
X1387875Y552850D02*
X1387875Y572050D01*
D34*
X1387875Y552850D03*
D33*
X1383825Y537050D02*
X1367875Y537050D01*
D34*
X1383825Y537050D03*
D33*
X1432875Y502600D02*
X1432875Y487050D01*
X1432875Y502600D02*
X1435100Y504825D01*
D34*
X1435100Y504825D03*
D33*
X1482725Y374650D02*
X1508125Y374650D01*
X1482725Y374650D02*
X1466850Y390525D01*
X1466850Y492125D01*
X1456925Y502050D01*
X1452875Y502050D01*
X1485900Y400050D02*
X1508125Y400050D01*
X1485900Y400050D02*
X1473200Y412750D01*
X1473200Y495300D01*
X1461450Y507050D01*
X1452875Y507050D01*
X1492250Y425450D02*
X1508125Y425450D01*
X1492250Y425450D02*
X1479550Y438150D01*
X1479550Y498475D02*
X1465975Y512050D01*
X1452875Y512050D01*
X1479550Y498475D02*
X1479550Y438150D01*
X1508125Y450850D02*
X1508125Y482953D01*
X1473645Y517050D02*
X1452875Y517050D01*
X1473645Y517050D02*
X1508125Y482953D01*
X1514475Y600428D02*
X1514475Y603250D01*
X1514475Y600428D02*
X1466711Y542050D01*
X1452875Y542050D01*
X1492250Y628650D02*
X1514475Y628650D01*
X1492250Y628650D02*
X1473200Y609600D01*
X1473200Y558800D01*
X1463675Y547050D02*
X1452875Y547050D01*
X1463675Y547050D02*
X1473200Y558800D01*
X1489075Y654050D02*
X1514475Y654050D01*
X1489075Y654050D02*
X1466850Y631825D01*
X1466850Y560917D02*
X1460570Y552543D01*
X1453156Y552331D01*
X1452875Y552050D01*
X1466850Y560917D02*
X1466850Y631825D01*
X1479550Y679450D02*
X1514475Y679450D01*
X1479550Y679450D02*
X1460500Y660400D01*
X1460500Y563033D01*
X1456013Y557050D01*
X1452875Y557050D01*
D35*
X1152525Y593725D02*
X1152525Y603250D01*
X1152525Y701675D02*
X1152525Y711200D01*
X1155700Y711200D02*
X1162050Y704850D01*
X1162050Y701675D01*
X1155700Y603250D02*
X1162050Y596900D01*
X1162050Y593725D01*
X1155700Y495300D02*
X1162050Y488950D01*
X1162050Y485775D01*
D39*
X1162050Y463550D01*
D33*
X1407875Y487050D02*
X1407875Y500300D01*
X1401125Y507050D01*
X1367875Y507050D01*
X1412875Y520700D02*
X1412875Y572050D01*
X1411573Y518828D02*
X1411499Y518745D01*
X1401125Y507050D01*
X1414795Y522050D02*
X1452875Y522050D01*
X1412875Y520700D02*
X1411499Y518745D01*
X1412875Y520700D02*
X1414795Y522050D01*
X1452875Y522050D02*
X1481375Y522050D01*
X1501775Y501650D01*
D35*
X1219200Y688975D02*
X1219200Y736600D01*
X1219200Y688975D02*
X1219200Y628650D01*
X1219200Y584200D01*
X1219200Y527050D01*
X1225550Y520700D01*
X1244600Y520700D01*
X1244600Y628650D02*
X1219200Y628650D01*
D33*
X1412875Y609600D02*
X1412875Y572050D01*
X1412875Y609600D02*
X1400175Y622300D01*
X1349375Y622300D01*
D35*
X1299210Y838200D02*
X1282700Y838200D01*
X1270000Y825500D01*
X1244600Y736600D02*
X1219200Y736600D01*
X1219200Y758825D02*
X1231900Y771525D01*
X1257300Y771525D01*
X1219200Y752475D02*
X1219200Y736600D01*
X1219200Y752475D02*
X1219200Y758825D01*
X1257300Y771525D02*
X1270000Y784225D01*
X1270000Y825500D01*
D39*
X1162050Y701675D02*
X1162050Y688975D01*
X1193800Y688975D01*
X1219200Y688975D01*
X1162050Y593725D02*
X1162050Y584200D01*
X1187450Y584200D01*
X1219200Y584200D01*
D36*
X1187450Y584200D02*
X1185575Y555625D01*
X1185575Y660400D02*
X1193800Y688975D01*
D39*
X1215955Y463550D02*
X1162050Y463550D01*
X1219129Y752404D02*
X1219200Y752475D01*
X1219129Y752404D02*
X1216433Y507050D01*
D36*
X1203325Y774700D02*
X1185575Y774700D01*
X1203325Y774700D02*
X1219200Y758825D01*
D39*
X1214510Y325643D02*
X1179984Y292100D01*
X1179797Y292100D01*
X1215674Y431578D02*
X1215703Y434215D01*
X1215674Y431578D02*
X1215606Y425420D01*
X1214510Y325643D01*
D33*
X1501775Y501650D02*
X1525875Y501650D01*
D36*
X1215606Y425420D02*
X1181100Y425450D01*
D35*
X1282700Y838200D02*
X1284000Y876300D01*
X1377950Y184150D02*
X1377950Y178435D01*
X1377950Y184150D02*
X1377950Y190500D01*
X1368425Y203200D01*
X1323975Y203200D01*
X1323975Y236825D01*
D33*
X1301750Y507050D02*
X1367875Y507050D01*
D38*
X1384300Y411450D02*
X1412875Y411450D01*
X1384300Y411450D02*
X1358900Y411450D01*
D33*
X1407875Y474425D02*
X1407875Y487050D01*
X1407875Y474425D02*
X1397000Y463550D01*
X1349375Y463550D01*
X1339850Y454025D01*
X1358826Y411836D02*
X1358900Y411450D01*
X1358826Y411836D02*
X1339850Y427525D01*
X1339850Y454025D01*
D35*
X1390650Y84425D02*
X1392525Y82550D01*
X1390650Y84425D02*
X1390650Y123825D01*
X1297275Y463550D02*
X1297275Y488950D01*
X1297275Y463550D02*
X1216025Y463550D01*
D33*
X1297275Y503244D02*
X1301750Y507050D01*
X1297275Y503244D02*
X1297275Y488950D01*
X1349375Y622300D02*
X1344900Y627927D01*
X1344900Y641350D01*
D36*
X1270000Y434215D02*
X1215703Y434215D01*
X1270000Y434215D02*
X1270000Y372237D01*
X1270000Y341025D01*
D35*
X1303050Y236825D02*
X1323975Y236825D01*
X1303050Y236825D02*
X1298575Y241300D01*
X1284575Y341025D02*
X1276350Y341025D01*
X1270000Y341025D01*
X1362075Y82550D02*
X1392525Y82550D01*
D34*
X1362075Y82550D03*
X1362075Y184150D03*
D35*
X1377950Y184150D01*
D39*
X1216095Y506712D02*
X1216433Y507050D01*
D36*
X1485015Y259590D02*
X1485900Y260475D01*
X1485900Y295275D01*
D34*
X1485900Y295275D03*
X1330325Y339725D03*
D36*
X1330325Y341025D01*
X1298575Y341025D01*
X1276350Y341025D01*
D35*
X1298575Y341025D02*
X1298575Y241300D01*
D39*
X1215703Y434215D02*
X1215703Y438110D01*
X1216025Y438432D01*
X1215955Y463550D02*
X1216095Y463690D01*
X1216095Y506712D01*
X1216025Y463550D02*
X1216025Y463480D01*
X1216025Y438432D01*
X1216025Y463480D02*
X1215955Y463550D01*
D35*
X1152525Y485775D02*
X1152525Y495300D01*
D33*
X1422875Y1439550D02*
X1422875Y1460025D01*
D34*
X1422875Y1460025D03*
D33*
X1427875Y1439550D02*
X1427875Y1418350D01*
D34*
X1427875Y1418350D03*
D35*
X1377950Y1089025D02*
X1377950Y1076325D01*
X1377950Y1089025D02*
X1384300Y1095375D01*
X1419225Y1095375D01*
X1435100Y1111250D02*
X1435100Y1241425D01*
X1435100Y1111250D02*
X1419225Y1095375D01*
D34*
X1435100Y1241425D03*
X1339850Y1466850D03*
D33*
X1342550Y1469550D01*
X1367875Y1469550D01*
D35*
X1390650Y1130935D02*
X1390650Y1120775D01*
X1384300Y1114425D01*
X1310970Y1114425D02*
X1278792Y1145605D01*
X1310970Y1114425D02*
X1384300Y1114425D01*
X1373717Y1168400D02*
X1358900Y1168400D01*
X1358900Y1189105D01*
X1373717Y1168400D02*
X1390650Y1149350D01*
X1390650Y1130935D01*
X1403350Y1130935D02*
X1403350Y1117600D01*
X1390650Y1104900D01*
X1270000Y1104900D02*
X1254044Y1120856D01*
X1270000Y1104900D02*
X1390650Y1104900D01*
X1391983Y1184597D02*
X1387475Y1189105D01*
X1403350Y1171575D01*
X1403350Y1130935D01*
D33*
X1397875Y1429625D02*
X1397875Y1439550D01*
X1393825Y1425575D02*
X1368425Y1425575D01*
X1393825Y1425575D02*
X1397875Y1429625D01*
D34*
X1368425Y1425575D03*
D33*
X1417875Y1524550D02*
X1417875Y1572975D01*
X1397000Y1593850D01*
X1372900Y1593850D01*
D35*
X1463675Y1751965D02*
X1558925Y1656715D01*
X1558925Y1492250D02*
X1537325Y1492250D01*
X1558925Y1492250D02*
X1558925Y1504950D01*
X1558925Y1656715D01*
X1244600Y1790700D02*
X1244600Y1809750D01*
X1256000Y1828800D01*
X1256000Y1854200D02*
X1362075Y1854200D01*
X1256000Y1854200D02*
X1256000Y1828800D01*
D33*
X1355992Y1454550D02*
X1367875Y1454550D01*
X1355992Y1454550D02*
X1347258Y1441450D01*
X1325275Y1441450D01*
X1417875Y1439550D02*
X1417875Y1412825D01*
X1412875Y1407825D01*
X1412875Y1391950D01*
D35*
X1403350Y1076325D02*
X1403350Y1063625D01*
X1420525Y1046450D01*
X1420525Y1035050D01*
X1325275Y1416050D02*
X1325275Y1441450D01*
X1463675Y1751965D02*
X1362075Y1854200D01*
D36*
X1293153Y1324776D02*
X1293114Y1324737D01*
X1293153Y1324776D02*
X1323979Y1324585D01*
X1323934Y1324585D01*
X1327153Y1324565D02*
X1327154Y1324565D01*
X1416081Y1324014D01*
D37*
X1428750Y1339850D01*
X1428750Y1391950D01*
X1412875Y1391950D01*
X1325275Y1416050D02*
X1325229Y1416004D01*
D35*
X1325275Y1416050D02*
X1325275Y1324577D01*
X1420525Y1035050D02*
X1454150Y1035050D01*
X1463675Y1044575D01*
X1463675Y1276350D01*
X1416081Y1324014D01*
D34*
X1416081Y1324014D03*
X1549400Y1504950D03*
D35*
X1558925Y1504950D01*
X1374775Y1595725D02*
X1372900Y1593850D01*
X1374775Y1595725D02*
X1374775Y1616075D01*
D34*
X1374775Y1616075D03*
D36*
X1327142Y1324577D02*
X1325275Y1324577D01*
X1327142Y1324577D02*
X1327153Y1324565D01*
X1325275Y1324577D02*
X1325267Y1324585D01*
X1323979Y1324585D01*
D38*
X1358900Y1391950D02*
X1384300Y1391950D01*
D33*
X1400175Y1407825D02*
X1412875Y1420525D01*
X1400175Y1407825D02*
X1384300Y1407825D01*
X1412875Y1420525D02*
X1412875Y1439550D01*
X1384300Y1407825D02*
X1384300Y1391950D01*
X1452875Y1479550D02*
X1476375Y1479550D01*
X1489075Y1492250D01*
X1504325Y1492250D01*
D35*
X1553875Y1473200D02*
X1553875Y1454150D01*
X1553875Y1473200D02*
X1504325Y1473200D01*
X1504325Y1492250D01*
X1425575Y1076325D02*
X1416050Y1076325D01*
X1425575Y1076325D02*
X1447800Y1098550D01*
X1447800Y1241425D01*
D34*
X1447800Y1241425D03*
X1387475Y1473200D03*
D33*
X1378825Y1464550D01*
X1367875Y1464550D01*
D35*
X1416050Y1198630D02*
X1416050Y1130935D01*
X1358900Y1217545D02*
X1358900Y1235075D01*
X1387475Y1235075D01*
X1387475Y1217545D01*
X1387475Y1235075D02*
X1397000Y1244600D01*
X1416050Y1244600D01*
X1416050Y1227070D01*
X1323975Y1235075D02*
X1323975Y1217325D01*
X1323975Y1235075D02*
X1358900Y1235075D01*
D33*
X1353900Y1484550D02*
X1367875Y1484550D01*
X1353900Y1484550D02*
X1346200Y1492250D01*
X1346200Y1530350D01*
D34*
X1346200Y1530350D03*
X1327150Y1765300D03*
D35*
X1314450Y1778000D01*
X1299210Y1778000D01*
D33*
X1346200Y1479550D02*
X1367875Y1479550D01*
X1346200Y1479550D02*
X1336675Y1489075D01*
X1336675Y1520825D01*
D34*
X1336675Y1520825D03*
X1222375Y1743075D03*
D35*
X1231900Y1752600D01*
X1244600Y1752600D01*
D33*
X1341675Y1474550D02*
X1367875Y1474550D01*
X1341675Y1474550D02*
X1327150Y1489075D01*
X1327150Y1514475D01*
D34*
X1327150Y1514475D03*
X1209675Y1765300D03*
D35*
X1244600Y1765300D01*
X1229295Y1145605D02*
X1219200Y1133962D01*
X1219200Y1117600D01*
X1240971Y1092200D01*
X1508125Y1150110D02*
X1508125Y1212090D01*
X1508125Y1150110D02*
X1508125Y1043781D01*
X1471706Y1012825D01*
X1355725Y1012825D01*
X1327150Y1092200D02*
X1240971Y1092200D01*
X1339850Y1031875D02*
X1355725Y1012825D01*
X1339850Y1031875D02*
X1339850Y1073150D01*
X1327150Y1092200D01*
D33*
X1531235Y1212090D02*
X1531235Y1253240D01*
X1460500Y1323975D01*
X1460500Y1403350D01*
X1437875Y1425975D01*
X1437875Y1439550D01*
D39*
X1101090Y1473200D02*
X1101090Y1485900D01*
X1101090Y1473200D02*
X1101090Y1460500D01*
X1101090Y1447800D01*
X1041400Y1435100D01*
X1098550Y1482725D01*
X1092200Y1460500D01*
X1101090Y1581150D02*
X1101090Y1593850D01*
X1101090Y1581150D02*
X1101090Y1568450D01*
X1101090Y1555750D01*
X1028700Y1485900D01*
X1098550Y1593850D01*
X1101090Y1689100D02*
X1101090Y1701800D01*
X1101090Y1689100D02*
X1101090Y1676400D01*
X1101090Y1663700D01*
X1016000Y1536700D01*
X1098550Y1698625D01*
D35*
X1155700Y1473200D02*
X1189990Y1473200D01*
X1189990Y1581150D02*
X1155700Y1581150D01*
X1155700Y1689100D02*
X1189990Y1689100D01*
X1155700Y1473200D02*
X1130300Y1473200D01*
X1130300Y1689100D02*
X1155700Y1689100D01*
D39*
X1130300Y1508125D02*
X1130300Y1473200D01*
X1130300Y1508125D02*
X1130300Y1581150D01*
X1130300Y1612900D01*
X1130300Y1689100D01*
X1130300Y1294097D02*
X1155049Y1269349D01*
X1130300Y1294097D02*
X1130300Y1377950D01*
X1130300Y1473200D01*
D35*
X1130300Y1581150D02*
X1189990Y1581150D01*
D36*
X1155700Y1377950D02*
X1130300Y1377950D01*
X1130300Y1508125D02*
X1157575Y1508125D01*
X1157575Y1612900D02*
X1130300Y1612900D01*
X1130300Y1689100D02*
X1130300Y1717675D01*
X1139825Y1727200D01*
X1157575Y1727200D01*
X1246886Y1324737D02*
X1246886Y1298575D01*
D35*
X1246886Y1274064D01*
X1255425Y1265525D01*
X1270000Y1265525D01*
D36*
X1187450Y1301750D02*
X1187450Y1311275D01*
X1187450Y1301750D02*
X1155049Y1269349D01*
D34*
X1187450Y1311275D03*
X1237361Y1298575D03*
D36*
X1246886Y1298575D01*
D35*
X1189990Y1460500D02*
X1155700Y1460500D01*
X1155700Y1485900D02*
X1189990Y1485900D01*
X1189990Y1568450D02*
X1155700Y1568450D01*
X1155700Y1593850D02*
X1189990Y1593850D01*
X1189990Y1676400D02*
X1155700Y1676400D01*
X1155700Y1701800D02*
X1189990Y1701800D01*
D33*
X1358900Y1562100D02*
X1387475Y1562100D01*
X1402875Y1546700D01*
X1402875Y1524550D01*
X1358900Y1562100D02*
X1257300Y1460500D01*
X1244600Y1460500D01*
X1260475Y1485900D02*
X1343025Y1568450D01*
X1260475Y1485900D02*
X1244600Y1485900D01*
X1343025Y1568450D02*
X1393825Y1568450D01*
X1407875Y1554400D01*
X1407875Y1524550D01*
X1349375Y1635125D02*
X1282700Y1568450D01*
X1244600Y1568450D01*
X1349375Y1635125D02*
X1377950Y1635125D01*
X1422875Y1590200D01*
X1422875Y1524550D01*
X1427875Y1604250D02*
X1384300Y1647825D01*
X1427875Y1604250D02*
X1427875Y1524550D01*
X1336675Y1647825D02*
X1282700Y1593850D01*
X1244600Y1593850D01*
X1336675Y1647825D02*
X1384300Y1647825D01*
X1374775Y1676400D02*
X1244600Y1676400D01*
X1374775Y1676400D02*
X1432875Y1618300D01*
X1432875Y1524550D01*
X1437875Y1524550D02*
X1438275Y1625600D01*
X1362075Y1701800D01*
X1244600Y1701800D01*
X1452875Y1484550D02*
X1468675Y1484550D01*
X1476375Y1492250D01*
D34*
X1476375Y1492250D03*
D33*
X1387875Y1505350D02*
X1387875Y1524550D01*
D34*
X1387875Y1505350D03*
D33*
X1383825Y1489550D02*
X1367875Y1489550D01*
D34*
X1383825Y1489550D03*
D33*
X1432875Y1455100D02*
X1432875Y1439550D01*
X1432875Y1455100D02*
X1435100Y1457325D01*
D34*
X1435100Y1457325D03*
D33*
X1482725Y1327150D02*
X1508125Y1327150D01*
X1482725Y1327150D02*
X1466850Y1343025D01*
X1466850Y1444625D01*
X1456925Y1454550D01*
X1452875Y1454550D01*
X1485900Y1352550D02*
X1508125Y1352550D01*
X1485900Y1352550D02*
X1473200Y1365250D01*
X1473200Y1447800D01*
X1461450Y1459550D01*
X1452875Y1459550D01*
X1492250Y1377950D02*
X1508125Y1377950D01*
X1492250Y1377950D02*
X1479550Y1390650D01*
X1479550Y1450975D02*
X1465975Y1464550D01*
X1452875Y1464550D01*
X1479550Y1450975D02*
X1479550Y1390650D01*
X1508125Y1403350D02*
X1508125Y1435453D01*
X1473645Y1469550D02*
X1452875Y1469550D01*
X1473645Y1469550D02*
X1508125Y1435453D01*
X1514475Y1552928D02*
X1514475Y1555750D01*
X1514475Y1552928D02*
X1466711Y1494550D01*
X1452875Y1494550D01*
X1492250Y1581150D02*
X1514475Y1581150D01*
X1492250Y1581150D02*
X1473200Y1562100D01*
X1473200Y1511300D01*
X1463675Y1499550D02*
X1452875Y1499550D01*
X1463675Y1499550D02*
X1473200Y1511300D01*
X1489075Y1606550D02*
X1514475Y1606550D01*
X1489075Y1606550D02*
X1466850Y1584325D01*
X1466850Y1513417D02*
X1460570Y1505043D01*
X1453156Y1504831D01*
X1452875Y1504550D01*
X1466850Y1513417D02*
X1466850Y1584325D01*
X1479550Y1631950D02*
X1514475Y1631950D01*
X1479550Y1631950D02*
X1460500Y1612900D01*
X1460500Y1515533D01*
X1456013Y1509550D01*
X1452875Y1509550D01*
D35*
X1152525Y1546225D02*
X1152525Y1555750D01*
X1152525Y1654175D02*
X1152525Y1663700D01*
X1155700Y1663700D02*
X1162050Y1657350D01*
X1162050Y1654175D01*
X1155700Y1555750D02*
X1162050Y1549400D01*
X1162050Y1546225D01*
X1155700Y1447800D02*
X1162050Y1441450D01*
X1162050Y1438275D01*
D39*
X1162050Y1416050D01*
D33*
X1407875Y1439550D02*
X1407875Y1452800D01*
X1401125Y1459550D01*
X1367875Y1459550D01*
X1412875Y1473200D02*
X1412875Y1524550D01*
X1411573Y1471328D02*
X1411499Y1471245D01*
X1401125Y1459550D01*
X1414795Y1474550D02*
X1452875Y1474550D01*
X1412875Y1473200D02*
X1411499Y1471245D01*
X1412875Y1473200D02*
X1414795Y1474550D01*
X1452875Y1474550D02*
X1481375Y1474550D01*
X1501775Y1454150D01*
D35*
X1219200Y1641475D02*
X1219200Y1689100D01*
X1219200Y1641475D02*
X1219200Y1581150D01*
X1219200Y1536700D01*
X1219200Y1479550D01*
X1225550Y1473200D01*
X1244600Y1473200D01*
X1244600Y1581150D02*
X1219200Y1581150D01*
D33*
X1412875Y1562100D02*
X1412875Y1524550D01*
X1412875Y1562100D02*
X1400175Y1574800D01*
X1349375Y1574800D01*
D35*
X1299210Y1790700D02*
X1282700Y1790700D01*
X1270000Y1778000D01*
X1244600Y1689100D02*
X1219200Y1689100D01*
X1219200Y1711325D02*
X1231900Y1724025D01*
X1257300Y1724025D01*
X1219200Y1704975D02*
X1219200Y1689100D01*
X1219200Y1704975D02*
X1219200Y1711325D01*
X1257300Y1724025D02*
X1270000Y1736725D01*
X1270000Y1778000D01*
D39*
X1162050Y1654175D02*
X1162050Y1641475D01*
X1193800Y1641475D01*
X1219200Y1641475D01*
X1162050Y1546225D02*
X1162050Y1536700D01*
X1187450Y1536700D01*
X1219200Y1536700D01*
D36*
X1187450Y1536700D02*
X1185575Y1508125D01*
X1185575Y1612900D02*
X1193800Y1641475D01*
D39*
X1215955Y1416050D02*
X1162050Y1416050D01*
X1219129Y1704904D02*
X1219200Y1704975D01*
X1219129Y1704904D02*
X1216433Y1459550D01*
D36*
X1203325Y1727200D02*
X1185575Y1727200D01*
X1203325Y1727200D02*
X1219200Y1711325D01*
D39*
X1214510Y1278143D02*
X1179984Y1244600D01*
X1179797Y1244600D01*
X1215674Y1384078D02*
X1215703Y1386715D01*
X1215674Y1384078D02*
X1215606Y1377920D01*
X1214510Y1278143D01*
D33*
X1501775Y1454150D02*
X1525875Y1454150D01*
D36*
X1215606Y1377920D02*
X1181100Y1377950D01*
D35*
X1282700Y1790700D02*
X1284000Y1828800D01*
X1377950Y1136650D02*
X1377950Y1130935D01*
X1377950Y1136650D02*
X1377950Y1143000D01*
X1368425Y1155700D01*
X1323975Y1155700D01*
X1323975Y1189325D01*
D33*
X1301750Y1459550D02*
X1367875Y1459550D01*
D38*
X1384300Y1363950D02*
X1412875Y1363950D01*
X1384300Y1363950D02*
X1358900Y1363950D01*
D33*
X1407875Y1426925D02*
X1407875Y1439550D01*
X1407875Y1426925D02*
X1397000Y1416050D01*
X1349375Y1416050D01*
X1339850Y1406525D01*
X1358826Y1364336D02*
X1358900Y1363950D01*
X1358826Y1364336D02*
X1339850Y1380025D01*
X1339850Y1406525D01*
D35*
X1390650Y1036925D02*
X1392525Y1035050D01*
X1390650Y1036925D02*
X1390650Y1076325D01*
X1297275Y1416050D02*
X1297275Y1441450D01*
X1297275Y1416050D02*
X1216025Y1416050D01*
D33*
X1297275Y1455744D02*
X1301750Y1459550D01*
X1297275Y1455744D02*
X1297275Y1441450D01*
X1349375Y1574800D02*
X1344900Y1580427D01*
X1344900Y1593850D01*
D36*
X1270000Y1386715D02*
X1215703Y1386715D01*
X1270000Y1386715D02*
X1270000Y1324737D01*
X1270000Y1293525D01*
D35*
X1303050Y1189325D02*
X1323975Y1189325D01*
X1303050Y1189325D02*
X1298575Y1193800D01*
X1284575Y1293525D02*
X1276350Y1293525D01*
X1270000Y1293525D01*
X1362075Y1035050D02*
X1392525Y1035050D01*
D34*
X1362075Y1035050D03*
X1362075Y1136650D03*
D35*
X1377950Y1136650D01*
D39*
X1216095Y1459212D02*
X1216433Y1459550D01*
D36*
X1485015Y1212090D02*
X1485900Y1212975D01*
X1485900Y1247775D01*
D34*
X1485900Y1247775D03*
X1330325Y1292225D03*
D36*
X1330325Y1293525D01*
X1298575Y1293525D01*
X1276350Y1293525D01*
D35*
X1298575Y1293525D02*
X1298575Y1193800D01*
D39*
X1215703Y1386715D02*
X1215703Y1390610D01*
X1216025Y1390932D01*
X1215955Y1416050D02*
X1216095Y1416190D01*
X1216095Y1459212D01*
X1216025Y1416050D02*
X1216025Y1415980D01*
X1216025Y1390932D01*
X1216025Y1415980D02*
X1215955Y1416050D01*
D35*
X1152525Y1438275D02*
X1152525Y1447800D01*
M02*
