G04 EAGLE Gerber RS-274X export*
G75*
%MOMM*%
%FSLAX34Y34*%
%LPD*%
%INBottom Copper*%
%IPPOS*%
%AMOC8*
5,1,8,0,0,1.08239X$1,22.5*%
G01*
%ADD10P,1.732040X8X292.500000*%
%ADD11P,4.123906X8X22.500000*%
%ADD12C,1.524000*%
%ADD13R,2.540000X2.540000*%
%ADD14C,2.540000*%
%ADD15P,1.732040X8X22.500000*%
%ADD16P,4.123906X8X112.500000*%
%ADD17C,0.756400*%
%ADD18C,0.635000*%
%ADD19C,1.270000*%
%ADD20C,0.304800*%


D10*
X425450Y419100D03*
X425450Y393700D03*
D11*
X482600Y533400D03*
X533400Y546100D03*
X584200Y558800D03*
D12*
X450850Y74295D02*
X450850Y59055D01*
X425450Y59055D02*
X425450Y74295D01*
X400050Y74295D02*
X400050Y59055D01*
X374650Y59055D02*
X374650Y74295D01*
X679450Y67945D02*
X679450Y52705D01*
X654050Y52705D02*
X654050Y67945D01*
X628650Y67945D02*
X628650Y52705D01*
X603250Y52705D02*
X603250Y67945D01*
D13*
G36*
X298889Y419751D02*
X316849Y437711D01*
X334809Y419751D01*
X316849Y401791D01*
X298889Y419751D01*
G37*
D14*
X292100Y395003D03*
X267351Y370254D03*
X242603Y345505D03*
X217854Y320756D03*
X193105Y296008D03*
X292100Y444500D03*
X267351Y419751D03*
X242603Y395003D03*
X217854Y370254D03*
X193105Y345505D03*
X168356Y320756D03*
D10*
X425450Y1041400D03*
X425450Y1016000D03*
D11*
X482600Y1155700D03*
X533400Y1168400D03*
X584200Y1181100D03*
D12*
X450850Y696595D02*
X450850Y681355D01*
X425450Y681355D02*
X425450Y696595D01*
X400050Y696595D02*
X400050Y681355D01*
X374650Y681355D02*
X374650Y696595D01*
X679450Y690245D02*
X679450Y675005D01*
X654050Y675005D02*
X654050Y690245D01*
X628650Y690245D02*
X628650Y675005D01*
X603250Y675005D02*
X603250Y690245D01*
D13*
G36*
X298889Y1042051D02*
X316849Y1060011D01*
X334809Y1042051D01*
X316849Y1024091D01*
X298889Y1042051D01*
G37*
D14*
X292100Y1017303D03*
X267351Y992554D03*
X242603Y967805D03*
X217854Y943056D03*
X193105Y918308D03*
X292100Y1066800D03*
X267351Y1042051D03*
X242603Y1017303D03*
X217854Y992554D03*
X193105Y967805D03*
X168356Y943056D03*
D10*
X425450Y1663700D03*
X425450Y1638300D03*
D11*
X482600Y1778000D03*
X533400Y1790700D03*
X584200Y1803400D03*
D12*
X450850Y1318895D02*
X450850Y1303655D01*
X425450Y1303655D02*
X425450Y1318895D01*
X400050Y1318895D02*
X400050Y1303655D01*
X374650Y1303655D02*
X374650Y1318895D01*
X679450Y1312545D02*
X679450Y1297305D01*
X654050Y1297305D02*
X654050Y1312545D01*
X628650Y1312545D02*
X628650Y1297305D01*
X603250Y1297305D02*
X603250Y1312545D01*
D13*
G36*
X298889Y1664351D02*
X316849Y1682311D01*
X334809Y1664351D01*
X316849Y1646391D01*
X298889Y1664351D01*
G37*
D14*
X292100Y1639603D03*
X267351Y1614854D03*
X242603Y1590105D03*
X217854Y1565356D03*
X193105Y1540608D03*
X292100Y1689100D03*
X267351Y1664351D03*
X242603Y1639603D03*
X217854Y1614854D03*
X193105Y1590105D03*
X168356Y1565356D03*
D15*
X1155700Y425450D03*
X1181100Y425450D03*
D16*
X1041400Y482600D03*
X1028700Y533400D03*
X1016000Y584200D03*
D12*
X1500505Y450850D02*
X1515745Y450850D01*
X1515745Y425450D02*
X1500505Y425450D01*
X1500505Y400050D02*
X1515745Y400050D01*
X1515745Y374650D02*
X1500505Y374650D01*
X1506855Y679450D02*
X1522095Y679450D01*
X1522095Y654050D02*
X1506855Y654050D01*
X1506855Y628650D02*
X1522095Y628650D01*
X1522095Y603250D02*
X1506855Y603250D01*
D13*
G36*
X1155049Y298889D02*
X1137089Y316849D01*
X1155049Y334809D01*
X1173009Y316849D01*
X1155049Y298889D01*
G37*
D14*
X1179797Y292100D03*
X1204546Y267351D03*
X1229295Y242603D03*
X1254044Y217854D03*
X1278792Y193105D03*
X1130300Y292100D03*
X1155049Y267351D03*
X1179797Y242603D03*
X1204546Y217854D03*
X1229295Y193105D03*
X1254044Y168356D03*
D15*
X1155700Y1377950D03*
X1181100Y1377950D03*
D16*
X1041400Y1435100D03*
X1028700Y1485900D03*
X1016000Y1536700D03*
D12*
X1500505Y1403350D02*
X1515745Y1403350D01*
X1515745Y1377950D02*
X1500505Y1377950D01*
X1500505Y1352550D02*
X1515745Y1352550D01*
X1515745Y1327150D02*
X1500505Y1327150D01*
X1506855Y1631950D02*
X1522095Y1631950D01*
X1522095Y1606550D02*
X1506855Y1606550D01*
X1506855Y1581150D02*
X1522095Y1581150D01*
X1522095Y1555750D02*
X1506855Y1555750D01*
D13*
G36*
X1155049Y1251389D02*
X1137089Y1269349D01*
X1155049Y1287309D01*
X1173009Y1269349D01*
X1155049Y1251389D01*
G37*
D14*
X1179797Y1244600D03*
X1204546Y1219851D03*
X1229295Y1195103D03*
X1254044Y1170354D03*
X1278792Y1145605D03*
X1130300Y1244600D03*
X1155049Y1219851D03*
X1179797Y1195103D03*
X1204546Y1170354D03*
X1229295Y1145605D03*
X1254044Y1120856D03*
D17*
X507525Y151925D03*
D18*
X354650Y304800D01*
X283308Y304800D02*
X242603Y345505D01*
X283308Y304800D02*
X354650Y304800D01*
D17*
X465850Y146925D03*
D18*
X342900Y269875D01*
X268735Y269875D02*
X217854Y320756D01*
X268735Y269875D02*
X342900Y269875D01*
D17*
X288925Y139700D03*
D18*
X336550Y187325D01*
X390525Y187325D01*
X454025Y123825D01*
X511175Y123825D02*
X523875Y136525D01*
X523875Y168275D01*
X492125Y200025D01*
X492125Y225425D01*
X501650Y234950D01*
X514350Y234950D01*
D17*
X514350Y234950D03*
D18*
X511175Y123825D02*
X454025Y123825D01*
D17*
X473075Y206375D03*
D18*
X365125Y314325D01*
X323280Y314325D02*
X267351Y370254D01*
X323280Y314325D02*
X365125Y314325D01*
D17*
X371514Y158719D03*
D19*
X504833Y25400D01*
X552450Y25400D01*
D17*
X552450Y25400D03*
X663575Y200025D03*
D19*
X663575Y136525D01*
X552450Y25400D01*
D17*
X288925Y127000D03*
D18*
X295275Y127000D01*
X342900Y174625D01*
X384175Y174625D01*
X447675Y111125D01*
X514350Y111125D01*
X536575Y133350D01*
X536575Y171450D01*
X520700Y187325D01*
D17*
X520700Y187325D03*
X577850Y228600D03*
D18*
X596900Y247650D01*
X812800Y247650D01*
D17*
X812800Y247650D03*
X568325Y238125D03*
D18*
X682625Y352425D01*
X790575Y352425D01*
D17*
X790575Y352425D03*
X561975Y247650D03*
D18*
X679450Y365125D01*
D17*
X812800Y365125D03*
D18*
X679450Y365125D01*
D17*
X358775Y387350D03*
D19*
X358775Y350139D01*
X346075Y337439D01*
D18*
X346075Y336550D01*
D17*
X346075Y337439D03*
X539750Y98425D03*
D18*
X539750Y120650D01*
X565150Y146050D01*
X549275Y355600D02*
X444500Y460375D01*
X301625Y460375D01*
X292100Y450850D01*
X292100Y444500D01*
X549275Y355600D02*
X549275Y215900D01*
X565150Y200025D01*
X565150Y146050D01*
D17*
X552850Y186925D03*
D18*
X536975Y212325D02*
X536975Y348850D01*
X552850Y196450D02*
X552850Y186925D01*
X552850Y196450D02*
X536975Y212325D01*
X444500Y441325D02*
X384175Y441325D01*
X444500Y441325D02*
X536975Y348850D01*
D20*
X384175Y441325D02*
X336550Y393700D01*
X317500Y393700D01*
X273050Y438150D01*
X257175Y438150D01*
X242603Y423578D02*
X242603Y395003D01*
X242603Y423578D02*
X257175Y438150D01*
D17*
X537050Y190975D03*
D18*
X523875Y204150D01*
X441325Y323850D02*
X339725Y323850D01*
D20*
X267351Y396224D01*
X267351Y419751D01*
D18*
X523875Y241300D02*
X523875Y204150D01*
X523875Y241300D02*
X441325Y323850D01*
D17*
X504825Y139700D03*
D18*
X498475Y139700D01*
D20*
X349250Y288925D02*
X274701Y288925D01*
X217854Y345772D02*
X217854Y370254D01*
D18*
X349250Y288925D02*
X498475Y139700D01*
D20*
X274701Y288925D02*
X217854Y345772D01*
D17*
X82550Y212725D03*
D18*
X184150Y212725D01*
D17*
X184150Y212725D03*
X295275Y88900D03*
D19*
X263525Y120650D01*
X263525Y149225D01*
X339725Y225425D02*
X339725Y244475D01*
X339725Y225425D02*
X263525Y149225D01*
D17*
X339725Y244475D03*
X507525Y774225D03*
D18*
X354650Y927100D01*
X283308Y927100D02*
X242603Y967805D01*
X283308Y927100D02*
X354650Y927100D01*
D17*
X465850Y769225D03*
D18*
X342900Y892175D01*
X268735Y892175D02*
X217854Y943056D01*
X268735Y892175D02*
X342900Y892175D01*
D17*
X288925Y762000D03*
D18*
X336550Y809625D01*
X390525Y809625D01*
X454025Y746125D01*
X511175Y746125D02*
X523875Y758825D01*
X523875Y790575D01*
X492125Y822325D01*
X492125Y847725D01*
X501650Y857250D01*
X514350Y857250D01*
D17*
X514350Y857250D03*
D18*
X511175Y746125D02*
X454025Y746125D01*
D17*
X473075Y828675D03*
D18*
X365125Y936625D01*
X323280Y936625D02*
X267351Y992554D01*
X323280Y936625D02*
X365125Y936625D01*
D17*
X371514Y781019D03*
D19*
X504833Y647700D01*
X552450Y647700D01*
D17*
X552450Y647700D03*
X663575Y822325D03*
D19*
X663575Y758825D01*
X552450Y647700D01*
D17*
X288925Y749300D03*
D18*
X295275Y749300D01*
X342900Y796925D01*
X384175Y796925D01*
X447675Y733425D01*
X514350Y733425D01*
X536575Y755650D01*
X536575Y793750D01*
X520700Y809625D01*
D17*
X520700Y809625D03*
X577850Y850900D03*
D18*
X596900Y869950D01*
X812800Y869950D01*
D17*
X812800Y869950D03*
X568325Y860425D03*
D18*
X682625Y974725D01*
X790575Y974725D01*
D17*
X790575Y974725D03*
X561975Y869950D03*
D18*
X679450Y987425D01*
D17*
X812800Y987425D03*
D18*
X679450Y987425D01*
D17*
X358775Y1009650D03*
D19*
X358775Y972439D01*
X346075Y959739D01*
D18*
X346075Y958850D01*
D17*
X346075Y959739D03*
X539750Y720725D03*
D18*
X539750Y742950D01*
X565150Y768350D01*
X549275Y977900D02*
X444500Y1082675D01*
X301625Y1082675D01*
X292100Y1073150D01*
X292100Y1066800D01*
X549275Y977900D02*
X549275Y838200D01*
X565150Y822325D01*
X565150Y768350D01*
D17*
X552850Y809225D03*
D18*
X536975Y834625D02*
X536975Y971150D01*
X552850Y818750D02*
X552850Y809225D01*
X552850Y818750D02*
X536975Y834625D01*
X444500Y1063625D02*
X384175Y1063625D01*
X444500Y1063625D02*
X536975Y971150D01*
D20*
X384175Y1063625D02*
X336550Y1016000D01*
X317500Y1016000D01*
X273050Y1060450D01*
X257175Y1060450D01*
X242603Y1045878D02*
X242603Y1017303D01*
X242603Y1045878D02*
X257175Y1060450D01*
D17*
X537050Y813275D03*
D18*
X523875Y826450D01*
X441325Y946150D02*
X339725Y946150D01*
D20*
X267351Y1018524D01*
X267351Y1042051D01*
D18*
X523875Y863600D02*
X523875Y826450D01*
X523875Y863600D02*
X441325Y946150D01*
D17*
X504825Y762000D03*
D18*
X498475Y762000D01*
D20*
X349250Y911225D02*
X274701Y911225D01*
X217854Y968072D02*
X217854Y992554D01*
D18*
X349250Y911225D02*
X498475Y762000D01*
D20*
X274701Y911225D02*
X217854Y968072D01*
D17*
X82550Y835025D03*
D18*
X184150Y835025D01*
D17*
X184150Y835025D03*
X295275Y711200D03*
D19*
X263525Y742950D01*
X263525Y771525D01*
X339725Y847725D02*
X339725Y866775D01*
X339725Y847725D02*
X263525Y771525D01*
D17*
X339725Y866775D03*
X507525Y1396525D03*
D18*
X354650Y1549400D01*
X283308Y1549400D02*
X242603Y1590105D01*
X283308Y1549400D02*
X354650Y1549400D01*
D17*
X465850Y1391525D03*
D18*
X342900Y1514475D01*
X268735Y1514475D02*
X217854Y1565356D01*
X268735Y1514475D02*
X342900Y1514475D01*
D17*
X288925Y1384300D03*
D18*
X336550Y1431925D01*
X390525Y1431925D01*
X454025Y1368425D01*
X511175Y1368425D02*
X523875Y1381125D01*
X523875Y1412875D01*
X492125Y1444625D01*
X492125Y1470025D01*
X501650Y1479550D01*
X514350Y1479550D01*
D17*
X514350Y1479550D03*
D18*
X511175Y1368425D02*
X454025Y1368425D01*
D17*
X473075Y1450975D03*
D18*
X365125Y1558925D01*
X323280Y1558925D02*
X267351Y1614854D01*
X323280Y1558925D02*
X365125Y1558925D01*
D17*
X371514Y1403319D03*
D19*
X504833Y1270000D01*
X552450Y1270000D01*
D17*
X552450Y1270000D03*
X663575Y1444625D03*
D19*
X663575Y1381125D01*
X552450Y1270000D01*
D17*
X288925Y1371600D03*
D18*
X295275Y1371600D01*
X342900Y1419225D01*
X384175Y1419225D01*
X447675Y1355725D01*
X514350Y1355725D01*
X536575Y1377950D01*
X536575Y1416050D01*
X520700Y1431925D01*
D17*
X520700Y1431925D03*
X577850Y1473200D03*
D18*
X596900Y1492250D01*
X812800Y1492250D01*
D17*
X812800Y1492250D03*
X568325Y1482725D03*
D18*
X682625Y1597025D01*
X790575Y1597025D01*
D17*
X790575Y1597025D03*
X561975Y1492250D03*
D18*
X679450Y1609725D01*
D17*
X812800Y1609725D03*
D18*
X679450Y1609725D01*
D17*
X358775Y1631950D03*
D19*
X358775Y1594739D01*
X346075Y1582039D01*
D18*
X346075Y1581150D01*
D17*
X346075Y1582039D03*
X539750Y1343025D03*
D18*
X539750Y1365250D01*
X565150Y1390650D01*
X549275Y1600200D02*
X444500Y1704975D01*
X301625Y1704975D01*
X292100Y1695450D01*
X292100Y1689100D01*
X549275Y1600200D02*
X549275Y1460500D01*
X565150Y1444625D01*
X565150Y1390650D01*
D17*
X552850Y1431525D03*
D18*
X536975Y1456925D02*
X536975Y1593450D01*
X552850Y1441050D02*
X552850Y1431525D01*
X552850Y1441050D02*
X536975Y1456925D01*
X444500Y1685925D02*
X384175Y1685925D01*
X444500Y1685925D02*
X536975Y1593450D01*
D20*
X384175Y1685925D02*
X336550Y1638300D01*
X317500Y1638300D01*
X273050Y1682750D01*
X257175Y1682750D01*
X242603Y1668178D02*
X242603Y1639603D01*
X242603Y1668178D02*
X257175Y1682750D01*
D17*
X537050Y1435575D03*
D18*
X523875Y1448750D01*
X441325Y1568450D02*
X339725Y1568450D01*
D20*
X267351Y1640824D01*
X267351Y1664351D01*
D18*
X523875Y1485900D02*
X523875Y1448750D01*
X523875Y1485900D02*
X441325Y1568450D01*
D17*
X504825Y1384300D03*
D18*
X498475Y1384300D01*
D20*
X349250Y1533525D02*
X274701Y1533525D01*
X217854Y1590372D02*
X217854Y1614854D01*
D18*
X349250Y1533525D02*
X498475Y1384300D01*
D20*
X274701Y1533525D02*
X217854Y1590372D01*
D17*
X82550Y1457325D03*
D18*
X184150Y1457325D01*
D17*
X184150Y1457325D03*
X295275Y1333500D03*
D19*
X263525Y1365250D01*
X263525Y1393825D01*
X339725Y1470025D02*
X339725Y1489075D01*
X339725Y1470025D02*
X263525Y1393825D01*
D17*
X339725Y1489075D03*
X1422875Y507525D03*
D18*
X1270000Y354650D01*
X1270000Y283308D02*
X1229295Y242603D01*
X1270000Y283308D02*
X1270000Y354650D01*
D17*
X1427875Y465850D03*
D18*
X1304925Y342900D01*
X1304925Y268735D02*
X1254044Y217854D01*
X1304925Y268735D02*
X1304925Y342900D01*
D17*
X1435100Y288925D03*
D18*
X1387475Y336550D01*
X1387475Y390525D01*
X1450975Y454025D01*
X1450975Y511175D02*
X1438275Y523875D01*
X1406525Y523875D01*
X1374775Y492125D01*
X1349375Y492125D01*
X1339850Y501650D01*
X1339850Y514350D01*
D17*
X1339850Y514350D03*
D18*
X1450975Y511175D02*
X1450975Y454025D01*
D17*
X1368425Y473075D03*
D18*
X1260475Y365125D01*
X1260475Y323280D02*
X1204546Y267351D01*
X1260475Y323280D02*
X1260475Y365125D01*
D17*
X1416081Y371514D03*
D19*
X1549400Y504833D01*
X1549400Y552450D01*
D17*
X1549400Y552450D03*
X1374775Y663575D03*
D19*
X1438275Y663575D01*
X1549400Y552450D01*
D17*
X1447800Y288925D03*
D18*
X1447800Y295275D01*
X1400175Y342900D01*
X1400175Y384175D01*
X1463675Y447675D01*
X1463675Y514350D01*
X1441450Y536575D01*
X1403350Y536575D01*
X1387475Y520700D01*
D17*
X1387475Y520700D03*
X1346200Y577850D03*
D18*
X1327150Y596900D01*
X1327150Y812800D01*
D17*
X1327150Y812800D03*
X1336675Y568325D03*
D18*
X1222375Y682625D01*
X1222375Y790575D01*
D17*
X1222375Y790575D03*
X1327150Y561975D03*
D18*
X1209675Y679450D01*
D17*
X1209675Y812800D03*
D18*
X1209675Y679450D01*
D17*
X1187450Y358775D03*
D19*
X1224661Y358775D01*
X1237361Y346075D01*
D18*
X1238250Y346075D01*
D17*
X1237361Y346075D03*
X1476375Y539750D03*
D18*
X1454150Y539750D01*
X1428750Y565150D01*
X1219200Y549275D02*
X1114425Y444500D01*
X1114425Y301625D01*
X1123950Y292100D01*
X1130300Y292100D01*
X1219200Y549275D02*
X1358900Y549275D01*
X1374775Y565150D01*
X1428750Y565150D01*
D17*
X1387875Y552850D03*
D18*
X1362475Y536975D02*
X1225950Y536975D01*
X1378350Y552850D02*
X1387875Y552850D01*
X1378350Y552850D02*
X1362475Y536975D01*
X1133475Y444500D02*
X1133475Y384175D01*
X1133475Y444500D02*
X1225950Y536975D01*
D20*
X1133475Y384175D02*
X1181100Y336550D01*
X1181100Y317500D01*
X1136650Y273050D01*
X1136650Y257175D01*
X1151223Y242603D02*
X1179797Y242603D01*
X1151223Y242603D02*
X1136650Y257175D01*
D17*
X1383825Y537050D03*
D18*
X1370650Y523875D01*
X1250950Y441325D02*
X1250950Y339725D01*
D20*
X1178576Y267351D01*
X1155049Y267351D01*
D18*
X1333500Y523875D02*
X1370650Y523875D01*
X1333500Y523875D02*
X1250950Y441325D01*
D17*
X1435100Y504825D03*
D18*
X1435100Y498475D01*
D20*
X1285875Y349250D02*
X1285875Y274701D01*
X1229028Y217854D02*
X1204546Y217854D01*
D18*
X1285875Y349250D02*
X1435100Y498475D01*
D20*
X1285875Y274701D02*
X1229028Y217854D01*
D17*
X1362075Y82550D03*
D18*
X1362075Y184150D01*
D17*
X1362075Y184150D03*
X1485900Y295275D03*
D19*
X1454150Y263525D01*
X1425575Y263525D01*
X1349375Y339725D02*
X1330325Y339725D01*
X1349375Y339725D02*
X1425575Y263525D01*
D17*
X1330325Y339725D03*
X1422875Y1460025D03*
D18*
X1270000Y1307150D01*
X1270000Y1235808D02*
X1229295Y1195103D01*
X1270000Y1235808D02*
X1270000Y1307150D01*
D17*
X1427875Y1418350D03*
D18*
X1304925Y1295400D01*
X1304925Y1221235D02*
X1254044Y1170354D01*
X1304925Y1221235D02*
X1304925Y1295400D01*
D17*
X1435100Y1241425D03*
D18*
X1387475Y1289050D01*
X1387475Y1343025D01*
X1450975Y1406525D01*
X1450975Y1463675D02*
X1438275Y1476375D01*
X1406525Y1476375D01*
X1374775Y1444625D01*
X1349375Y1444625D01*
X1339850Y1454150D01*
X1339850Y1466850D01*
D17*
X1339850Y1466850D03*
D18*
X1450975Y1463675D02*
X1450975Y1406525D01*
D17*
X1368425Y1425575D03*
D18*
X1260475Y1317625D01*
X1260475Y1275780D02*
X1204546Y1219851D01*
X1260475Y1275780D02*
X1260475Y1317625D01*
D17*
X1416081Y1324014D03*
D19*
X1549400Y1457333D01*
X1549400Y1504950D01*
D17*
X1549400Y1504950D03*
X1374775Y1616075D03*
D19*
X1438275Y1616075D01*
X1549400Y1504950D01*
D17*
X1447800Y1241425D03*
D18*
X1447800Y1247775D01*
X1400175Y1295400D01*
X1400175Y1336675D01*
X1463675Y1400175D01*
X1463675Y1466850D01*
X1441450Y1489075D01*
X1403350Y1489075D01*
X1387475Y1473200D01*
D17*
X1387475Y1473200D03*
X1346200Y1530350D03*
D18*
X1327150Y1549400D01*
X1327150Y1765300D01*
D17*
X1327150Y1765300D03*
X1336675Y1520825D03*
D18*
X1222375Y1635125D01*
X1222375Y1743075D01*
D17*
X1222375Y1743075D03*
X1327150Y1514475D03*
D18*
X1209675Y1631950D01*
D17*
X1209675Y1765300D03*
D18*
X1209675Y1631950D01*
D17*
X1187450Y1311275D03*
D19*
X1224661Y1311275D01*
X1237361Y1298575D01*
D18*
X1238250Y1298575D01*
D17*
X1237361Y1298575D03*
X1476375Y1492250D03*
D18*
X1454150Y1492250D01*
X1428750Y1517650D01*
X1219200Y1501775D02*
X1114425Y1397000D01*
X1114425Y1254125D01*
X1123950Y1244600D01*
X1130300Y1244600D01*
X1219200Y1501775D02*
X1358900Y1501775D01*
X1374775Y1517650D01*
X1428750Y1517650D01*
D17*
X1387875Y1505350D03*
D18*
X1362475Y1489475D02*
X1225950Y1489475D01*
X1378350Y1505350D02*
X1387875Y1505350D01*
X1378350Y1505350D02*
X1362475Y1489475D01*
X1133475Y1397000D02*
X1133475Y1336675D01*
X1133475Y1397000D02*
X1225950Y1489475D01*
D20*
X1133475Y1336675D02*
X1181100Y1289050D01*
X1181100Y1270000D01*
X1136650Y1225550D01*
X1136650Y1209675D01*
X1151223Y1195103D02*
X1179797Y1195103D01*
X1151223Y1195103D02*
X1136650Y1209675D01*
D17*
X1383825Y1489550D03*
D18*
X1370650Y1476375D01*
X1250950Y1393825D02*
X1250950Y1292225D01*
D20*
X1178576Y1219851D01*
X1155049Y1219851D01*
D18*
X1333500Y1476375D02*
X1370650Y1476375D01*
X1333500Y1476375D02*
X1250950Y1393825D01*
D17*
X1435100Y1457325D03*
D18*
X1435100Y1450975D01*
D20*
X1285875Y1301750D02*
X1285875Y1227201D01*
X1229028Y1170354D02*
X1204546Y1170354D01*
D18*
X1285875Y1301750D02*
X1435100Y1450975D01*
D20*
X1285875Y1227201D02*
X1229028Y1170354D01*
D17*
X1362075Y1035050D03*
D18*
X1362075Y1136650D01*
D17*
X1362075Y1136650D03*
X1485900Y1247775D03*
D19*
X1454150Y1216025D01*
X1425575Y1216025D01*
X1349375Y1292225D02*
X1330325Y1292225D01*
X1349375Y1292225D02*
X1425575Y1216025D01*
D17*
X1330325Y1292225D03*
M02*
