G04 EAGLE Gerber RS-274X export*
G75*
%MOMM*%
%FSLAX34Y34*%
%LPD*%
%INSoldermask Top*%
%IPPOS*%
%AMOC8*
5,1,8,0,0,1.08239X$1,22.5*%
G01*
%ADD10C,4.203200*%
%ADD11R,2.003200X1.803200*%
%ADD12R,1.803200X2.003200*%
%ADD13P,1.951982X8X292.500000*%
%ADD14R,0.812800X1.727200*%
%ADD15R,2.438400X1.422400*%
%ADD16R,2.403200X3.803200*%
%ADD17R,2.003200X1.403200*%
%ADD18P,4.343848X8X22.500000*%
%ADD19R,1.803200X2.006200*%
%ADD20C,1.727200*%
%ADD21C,0.327103*%
%ADD22C,0.432575*%
%ADD23R,1.553200X0.493200*%
%ADD24R,0.493200X1.553200*%
%ADD25R,2.743200X2.743200*%
%ADD26C,2.743200*%
%ADD27C,4.191000*%
%ADD28R,1.727200X0.812800*%
%ADD29P,1.951982X8X22.500000*%
%ADD30R,1.422400X2.438400*%
%ADD31R,3.803200X2.403200*%
%ADD32R,1.403200X2.003200*%
%ADD33P,4.343848X8X112.500000*%
%ADD34R,2.006200X1.803200*%
%ADD35C,0.959600*%


D10*
X886500Y474600D03*
X886500Y124600D03*
X411500Y549600D03*
X61500Y49600D03*
X886500Y1096900D03*
X886500Y746900D03*
X411500Y1171900D03*
X61500Y671900D03*
X886500Y1719200D03*
X886500Y1369200D03*
X411500Y1794200D03*
X61500Y1294200D03*
X1100200Y886500D03*
X1450200Y886500D03*
X1025200Y411500D03*
X1525200Y61500D03*
X1100200Y1839000D03*
X1450200Y1839000D03*
X1025200Y1364000D03*
X1525200Y1014000D03*
D11*
X463550Y249525D03*
X463550Y277525D03*
D12*
X264825Y250825D03*
X236825Y250825D03*
D11*
X876300Y290800D03*
X876300Y318800D03*
X555625Y389225D03*
X555625Y417225D03*
X660400Y389225D03*
X660400Y417225D03*
X774700Y389225D03*
X774700Y417225D03*
D13*
X425450Y419100D03*
X425450Y393700D03*
D12*
X439450Y215900D03*
X411450Y215900D03*
X439450Y190500D03*
X411450Y190500D03*
X439450Y161925D03*
X411450Y161925D03*
D11*
X501650Y20925D03*
X501650Y48925D03*
X488950Y277525D03*
X488950Y249525D03*
X641350Y201900D03*
X641350Y229900D03*
D12*
X313025Y304800D03*
X341025Y304800D03*
D11*
X82550Y182275D03*
X82550Y154275D03*
D14*
X749300Y330200D03*
X736600Y330200D03*
X723900Y330200D03*
X711200Y330200D03*
X749300Y384810D03*
X736600Y384810D03*
X723900Y384810D03*
X711200Y384810D03*
X641350Y330200D03*
X628650Y330200D03*
X615950Y330200D03*
X603250Y330200D03*
X641350Y384810D03*
X628650Y384810D03*
X615950Y384810D03*
X603250Y384810D03*
X533400Y330200D03*
X520700Y330200D03*
X508000Y330200D03*
X495300Y330200D03*
X533400Y384810D03*
X520700Y384810D03*
X508000Y384810D03*
X495300Y384810D03*
D15*
X372237Y327914D03*
X372237Y304800D03*
X372237Y281686D03*
D16*
X434215Y304800D03*
D17*
X539750Y37475D03*
X539750Y70475D03*
D18*
X482600Y533400D03*
X533400Y546100D03*
X584200Y558800D03*
D19*
X246130Y158750D03*
X274570Y158750D03*
X236605Y187325D03*
X265045Y187325D03*
X236605Y215900D03*
X265045Y215900D03*
D20*
X450850Y74295D02*
X450850Y59055D01*
X425450Y59055D02*
X425450Y74295D01*
X400050Y74295D02*
X400050Y59055D01*
X374650Y59055D02*
X374650Y74295D01*
X679450Y67945D02*
X679450Y52705D01*
X654050Y52705D02*
X654050Y67945D01*
X628650Y67945D02*
X628650Y52705D01*
X603250Y52705D02*
X603250Y67945D01*
D21*
X270146Y49041D02*
X270146Y38089D01*
X249034Y38089D01*
X249034Y49041D01*
X270146Y49041D01*
X270146Y41196D02*
X249034Y41196D01*
X249034Y44303D02*
X270146Y44303D01*
X270146Y47410D02*
X249034Y47410D01*
X270146Y61199D02*
X270146Y72151D01*
X270146Y61199D02*
X249034Y61199D01*
X249034Y72151D01*
X270146Y72151D01*
X270146Y64306D02*
X249034Y64306D01*
X249034Y67413D02*
X270146Y67413D01*
X270146Y70520D02*
X249034Y70520D01*
X270146Y84309D02*
X270146Y95261D01*
X270146Y84309D02*
X249034Y84309D01*
X249034Y95261D01*
X270146Y95261D01*
X270146Y87416D02*
X249034Y87416D01*
X249034Y90523D02*
X270146Y90523D01*
X270146Y93630D02*
X249034Y93630D01*
D22*
X207463Y83528D02*
X207463Y49822D01*
X187757Y49822D01*
X187757Y83528D01*
X207463Y83528D01*
X207463Y53932D02*
X187757Y53932D01*
X187757Y58042D02*
X207463Y58042D01*
X207463Y62152D02*
X187757Y62152D01*
X187757Y66262D02*
X207463Y66262D01*
X207463Y70372D02*
X187757Y70372D01*
X187757Y74482D02*
X207463Y74482D01*
X207463Y78592D02*
X187757Y78592D01*
X187757Y82702D02*
X207463Y82702D01*
D23*
X487050Y161925D03*
X487050Y166925D03*
X487050Y171925D03*
X487050Y176925D03*
X487050Y181925D03*
X487050Y186925D03*
X487050Y156925D03*
X487050Y151925D03*
X487050Y146925D03*
X487050Y141925D03*
X487050Y136925D03*
X487050Y191925D03*
X572050Y161925D03*
X572050Y156925D03*
X572050Y151925D03*
X572050Y146925D03*
X572050Y136925D03*
X572050Y141925D03*
X572050Y166925D03*
X572050Y171925D03*
X572050Y176925D03*
X572050Y181925D03*
X572050Y186925D03*
X572050Y191925D03*
D24*
X527050Y206925D03*
X522050Y206925D03*
X517050Y206925D03*
X512050Y206925D03*
X507050Y206925D03*
X502050Y206925D03*
X532050Y206925D03*
X537050Y206925D03*
X542050Y206925D03*
X547050Y206925D03*
X552050Y206925D03*
X557050Y206925D03*
X502050Y121925D03*
X507050Y121925D03*
X512050Y121925D03*
X517050Y121925D03*
X522050Y121925D03*
X527050Y121925D03*
X537050Y121925D03*
X532050Y121925D03*
X542050Y121925D03*
X547050Y121925D03*
X552050Y121925D03*
X557050Y121925D03*
D25*
G36*
X297452Y419751D02*
X316849Y439148D01*
X336246Y419751D01*
X316849Y400354D01*
X297452Y419751D01*
G37*
D26*
X292100Y395003D03*
X267351Y370254D03*
X242603Y345505D03*
X217854Y320756D03*
X193105Y296008D03*
X292100Y444500D03*
X267351Y419751D03*
X242603Y395003D03*
X217854Y370254D03*
X193105Y345505D03*
X168356Y320756D03*
D27*
X326041Y509554D03*
X103302Y286815D03*
D28*
X123825Y158750D03*
X123825Y171450D03*
X123825Y184150D03*
X123825Y196850D03*
X178435Y158750D03*
X178435Y171450D03*
X178435Y184150D03*
X178435Y196850D03*
D14*
X800100Y330200D03*
X812800Y330200D03*
X825500Y330200D03*
X838200Y330200D03*
X800100Y275590D03*
X812800Y275590D03*
X825500Y275590D03*
X838200Y275590D03*
X533400Y419100D03*
X520700Y419100D03*
X508000Y419100D03*
X495300Y419100D03*
X533400Y473710D03*
X520700Y473710D03*
X508000Y473710D03*
X495300Y473710D03*
X641350Y419100D03*
X628650Y419100D03*
X615950Y419100D03*
X603250Y419100D03*
X641350Y473710D03*
X628650Y473710D03*
X615950Y473710D03*
X603250Y473710D03*
X749300Y419100D03*
X736600Y419100D03*
X723900Y419100D03*
X711200Y419100D03*
X749300Y473710D03*
X736600Y473710D03*
X723900Y473710D03*
X711200Y473710D03*
D11*
X463550Y871825D03*
X463550Y899825D03*
D12*
X264825Y873125D03*
X236825Y873125D03*
D11*
X876300Y913100D03*
X876300Y941100D03*
X555625Y1011525D03*
X555625Y1039525D03*
X660400Y1011525D03*
X660400Y1039525D03*
X774700Y1011525D03*
X774700Y1039525D03*
D13*
X425450Y1041400D03*
X425450Y1016000D03*
D12*
X439450Y838200D03*
X411450Y838200D03*
X439450Y812800D03*
X411450Y812800D03*
X439450Y784225D03*
X411450Y784225D03*
D11*
X501650Y643225D03*
X501650Y671225D03*
X488950Y899825D03*
X488950Y871825D03*
X641350Y824200D03*
X641350Y852200D03*
D12*
X313025Y927100D03*
X341025Y927100D03*
D11*
X82550Y804575D03*
X82550Y776575D03*
D14*
X749300Y952500D03*
X736600Y952500D03*
X723900Y952500D03*
X711200Y952500D03*
X749300Y1007110D03*
X736600Y1007110D03*
X723900Y1007110D03*
X711200Y1007110D03*
X641350Y952500D03*
X628650Y952500D03*
X615950Y952500D03*
X603250Y952500D03*
X641350Y1007110D03*
X628650Y1007110D03*
X615950Y1007110D03*
X603250Y1007110D03*
X533400Y952500D03*
X520700Y952500D03*
X508000Y952500D03*
X495300Y952500D03*
X533400Y1007110D03*
X520700Y1007110D03*
X508000Y1007110D03*
X495300Y1007110D03*
D15*
X372237Y950214D03*
X372237Y927100D03*
X372237Y903986D03*
D16*
X434215Y927100D03*
D17*
X539750Y659775D03*
X539750Y692775D03*
D18*
X482600Y1155700D03*
X533400Y1168400D03*
X584200Y1181100D03*
D19*
X246130Y781050D03*
X274570Y781050D03*
X236605Y809625D03*
X265045Y809625D03*
X236605Y838200D03*
X265045Y838200D03*
D20*
X450850Y696595D02*
X450850Y681355D01*
X425450Y681355D02*
X425450Y696595D01*
X400050Y696595D02*
X400050Y681355D01*
X374650Y681355D02*
X374650Y696595D01*
X679450Y690245D02*
X679450Y675005D01*
X654050Y675005D02*
X654050Y690245D01*
X628650Y690245D02*
X628650Y675005D01*
X603250Y675005D02*
X603250Y690245D01*
D21*
X270146Y671341D02*
X270146Y660389D01*
X249034Y660389D01*
X249034Y671341D01*
X270146Y671341D01*
X270146Y663496D02*
X249034Y663496D01*
X249034Y666603D02*
X270146Y666603D01*
X270146Y669710D02*
X249034Y669710D01*
X270146Y683499D02*
X270146Y694451D01*
X270146Y683499D02*
X249034Y683499D01*
X249034Y694451D01*
X270146Y694451D01*
X270146Y686606D02*
X249034Y686606D01*
X249034Y689713D02*
X270146Y689713D01*
X270146Y692820D02*
X249034Y692820D01*
X270146Y706609D02*
X270146Y717561D01*
X270146Y706609D02*
X249034Y706609D01*
X249034Y717561D01*
X270146Y717561D01*
X270146Y709716D02*
X249034Y709716D01*
X249034Y712823D02*
X270146Y712823D01*
X270146Y715930D02*
X249034Y715930D01*
D22*
X207463Y705828D02*
X207463Y672122D01*
X187757Y672122D01*
X187757Y705828D01*
X207463Y705828D01*
X207463Y676232D02*
X187757Y676232D01*
X187757Y680342D02*
X207463Y680342D01*
X207463Y684452D02*
X187757Y684452D01*
X187757Y688562D02*
X207463Y688562D01*
X207463Y692672D02*
X187757Y692672D01*
X187757Y696782D02*
X207463Y696782D01*
X207463Y700892D02*
X187757Y700892D01*
X187757Y705002D02*
X207463Y705002D01*
D23*
X487050Y784225D03*
X487050Y789225D03*
X487050Y794225D03*
X487050Y799225D03*
X487050Y804225D03*
X487050Y809225D03*
X487050Y779225D03*
X487050Y774225D03*
X487050Y769225D03*
X487050Y764225D03*
X487050Y759225D03*
X487050Y814225D03*
X572050Y784225D03*
X572050Y779225D03*
X572050Y774225D03*
X572050Y769225D03*
X572050Y759225D03*
X572050Y764225D03*
X572050Y789225D03*
X572050Y794225D03*
X572050Y799225D03*
X572050Y804225D03*
X572050Y809225D03*
X572050Y814225D03*
D24*
X527050Y829225D03*
X522050Y829225D03*
X517050Y829225D03*
X512050Y829225D03*
X507050Y829225D03*
X502050Y829225D03*
X532050Y829225D03*
X537050Y829225D03*
X542050Y829225D03*
X547050Y829225D03*
X552050Y829225D03*
X557050Y829225D03*
X502050Y744225D03*
X507050Y744225D03*
X512050Y744225D03*
X517050Y744225D03*
X522050Y744225D03*
X527050Y744225D03*
X537050Y744225D03*
X532050Y744225D03*
X542050Y744225D03*
X547050Y744225D03*
X552050Y744225D03*
X557050Y744225D03*
D25*
G36*
X297452Y1042051D02*
X316849Y1061448D01*
X336246Y1042051D01*
X316849Y1022654D01*
X297452Y1042051D01*
G37*
D26*
X292100Y1017303D03*
X267351Y992554D03*
X242603Y967805D03*
X217854Y943056D03*
X193105Y918308D03*
X292100Y1066800D03*
X267351Y1042051D03*
X242603Y1017303D03*
X217854Y992554D03*
X193105Y967805D03*
X168356Y943056D03*
D27*
X326041Y1131854D03*
X103302Y909115D03*
D28*
X123825Y781050D03*
X123825Y793750D03*
X123825Y806450D03*
X123825Y819150D03*
X178435Y781050D03*
X178435Y793750D03*
X178435Y806450D03*
X178435Y819150D03*
D14*
X800100Y952500D03*
X812800Y952500D03*
X825500Y952500D03*
X838200Y952500D03*
X800100Y897890D03*
X812800Y897890D03*
X825500Y897890D03*
X838200Y897890D03*
X533400Y1041400D03*
X520700Y1041400D03*
X508000Y1041400D03*
X495300Y1041400D03*
X533400Y1096010D03*
X520700Y1096010D03*
X508000Y1096010D03*
X495300Y1096010D03*
X641350Y1041400D03*
X628650Y1041400D03*
X615950Y1041400D03*
X603250Y1041400D03*
X641350Y1096010D03*
X628650Y1096010D03*
X615950Y1096010D03*
X603250Y1096010D03*
X749300Y1041400D03*
X736600Y1041400D03*
X723900Y1041400D03*
X711200Y1041400D03*
X749300Y1096010D03*
X736600Y1096010D03*
X723900Y1096010D03*
X711200Y1096010D03*
D11*
X463550Y1494125D03*
X463550Y1522125D03*
D12*
X264825Y1495425D03*
X236825Y1495425D03*
D11*
X876300Y1535400D03*
X876300Y1563400D03*
X555625Y1633825D03*
X555625Y1661825D03*
X660400Y1633825D03*
X660400Y1661825D03*
X774700Y1633825D03*
X774700Y1661825D03*
D13*
X425450Y1663700D03*
X425450Y1638300D03*
D12*
X439450Y1460500D03*
X411450Y1460500D03*
X439450Y1435100D03*
X411450Y1435100D03*
X439450Y1406525D03*
X411450Y1406525D03*
D11*
X501650Y1265525D03*
X501650Y1293525D03*
X488950Y1522125D03*
X488950Y1494125D03*
X641350Y1446500D03*
X641350Y1474500D03*
D12*
X313025Y1549400D03*
X341025Y1549400D03*
D11*
X82550Y1426875D03*
X82550Y1398875D03*
D14*
X749300Y1574800D03*
X736600Y1574800D03*
X723900Y1574800D03*
X711200Y1574800D03*
X749300Y1629410D03*
X736600Y1629410D03*
X723900Y1629410D03*
X711200Y1629410D03*
X641350Y1574800D03*
X628650Y1574800D03*
X615950Y1574800D03*
X603250Y1574800D03*
X641350Y1629410D03*
X628650Y1629410D03*
X615950Y1629410D03*
X603250Y1629410D03*
X533400Y1574800D03*
X520700Y1574800D03*
X508000Y1574800D03*
X495300Y1574800D03*
X533400Y1629410D03*
X520700Y1629410D03*
X508000Y1629410D03*
X495300Y1629410D03*
D15*
X372237Y1572514D03*
X372237Y1549400D03*
X372237Y1526286D03*
D16*
X434215Y1549400D03*
D17*
X539750Y1282075D03*
X539750Y1315075D03*
D18*
X482600Y1778000D03*
X533400Y1790700D03*
X584200Y1803400D03*
D19*
X246130Y1403350D03*
X274570Y1403350D03*
X236605Y1431925D03*
X265045Y1431925D03*
X236605Y1460500D03*
X265045Y1460500D03*
D20*
X450850Y1318895D02*
X450850Y1303655D01*
X425450Y1303655D02*
X425450Y1318895D01*
X400050Y1318895D02*
X400050Y1303655D01*
X374650Y1303655D02*
X374650Y1318895D01*
X679450Y1312545D02*
X679450Y1297305D01*
X654050Y1297305D02*
X654050Y1312545D01*
X628650Y1312545D02*
X628650Y1297305D01*
X603250Y1297305D02*
X603250Y1312545D01*
D21*
X270146Y1293641D02*
X270146Y1282689D01*
X249034Y1282689D01*
X249034Y1293641D01*
X270146Y1293641D01*
X270146Y1285796D02*
X249034Y1285796D01*
X249034Y1288903D02*
X270146Y1288903D01*
X270146Y1292010D02*
X249034Y1292010D01*
X270146Y1305799D02*
X270146Y1316751D01*
X270146Y1305799D02*
X249034Y1305799D01*
X249034Y1316751D01*
X270146Y1316751D01*
X270146Y1308906D02*
X249034Y1308906D01*
X249034Y1312013D02*
X270146Y1312013D01*
X270146Y1315120D02*
X249034Y1315120D01*
X270146Y1328909D02*
X270146Y1339861D01*
X270146Y1328909D02*
X249034Y1328909D01*
X249034Y1339861D01*
X270146Y1339861D01*
X270146Y1332016D02*
X249034Y1332016D01*
X249034Y1335123D02*
X270146Y1335123D01*
X270146Y1338230D02*
X249034Y1338230D01*
D22*
X207463Y1328128D02*
X207463Y1294422D01*
X187757Y1294422D01*
X187757Y1328128D01*
X207463Y1328128D01*
X207463Y1298532D02*
X187757Y1298532D01*
X187757Y1302642D02*
X207463Y1302642D01*
X207463Y1306752D02*
X187757Y1306752D01*
X187757Y1310862D02*
X207463Y1310862D01*
X207463Y1314972D02*
X187757Y1314972D01*
X187757Y1319082D02*
X207463Y1319082D01*
X207463Y1323192D02*
X187757Y1323192D01*
X187757Y1327302D02*
X207463Y1327302D01*
D23*
X487050Y1406525D03*
X487050Y1411525D03*
X487050Y1416525D03*
X487050Y1421525D03*
X487050Y1426525D03*
X487050Y1431525D03*
X487050Y1401525D03*
X487050Y1396525D03*
X487050Y1391525D03*
X487050Y1386525D03*
X487050Y1381525D03*
X487050Y1436525D03*
X572050Y1406525D03*
X572050Y1401525D03*
X572050Y1396525D03*
X572050Y1391525D03*
X572050Y1381525D03*
X572050Y1386525D03*
X572050Y1411525D03*
X572050Y1416525D03*
X572050Y1421525D03*
X572050Y1426525D03*
X572050Y1431525D03*
X572050Y1436525D03*
D24*
X527050Y1451525D03*
X522050Y1451525D03*
X517050Y1451525D03*
X512050Y1451525D03*
X507050Y1451525D03*
X502050Y1451525D03*
X532050Y1451525D03*
X537050Y1451525D03*
X542050Y1451525D03*
X547050Y1451525D03*
X552050Y1451525D03*
X557050Y1451525D03*
X502050Y1366525D03*
X507050Y1366525D03*
X512050Y1366525D03*
X517050Y1366525D03*
X522050Y1366525D03*
X527050Y1366525D03*
X537050Y1366525D03*
X532050Y1366525D03*
X542050Y1366525D03*
X547050Y1366525D03*
X552050Y1366525D03*
X557050Y1366525D03*
D25*
G36*
X297452Y1664351D02*
X316849Y1683748D01*
X336246Y1664351D01*
X316849Y1644954D01*
X297452Y1664351D01*
G37*
D26*
X292100Y1639603D03*
X267351Y1614854D03*
X242603Y1590105D03*
X217854Y1565356D03*
X193105Y1540608D03*
X292100Y1689100D03*
X267351Y1664351D03*
X242603Y1639603D03*
X217854Y1614854D03*
X193105Y1590105D03*
X168356Y1565356D03*
D27*
X326041Y1754154D03*
X103302Y1531415D03*
D28*
X123825Y1403350D03*
X123825Y1416050D03*
X123825Y1428750D03*
X123825Y1441450D03*
X178435Y1403350D03*
X178435Y1416050D03*
X178435Y1428750D03*
X178435Y1441450D03*
D14*
X800100Y1574800D03*
X812800Y1574800D03*
X825500Y1574800D03*
X838200Y1574800D03*
X800100Y1520190D03*
X812800Y1520190D03*
X825500Y1520190D03*
X838200Y1520190D03*
X533400Y1663700D03*
X520700Y1663700D03*
X508000Y1663700D03*
X495300Y1663700D03*
X533400Y1718310D03*
X520700Y1718310D03*
X508000Y1718310D03*
X495300Y1718310D03*
X641350Y1663700D03*
X628650Y1663700D03*
X615950Y1663700D03*
X603250Y1663700D03*
X641350Y1718310D03*
X628650Y1718310D03*
X615950Y1718310D03*
X603250Y1718310D03*
X749300Y1663700D03*
X736600Y1663700D03*
X723900Y1663700D03*
X711200Y1663700D03*
X749300Y1718310D03*
X736600Y1718310D03*
X723900Y1718310D03*
X711200Y1718310D03*
D12*
X1325275Y463550D03*
X1297275Y463550D03*
D11*
X1323975Y264825D03*
X1323975Y236825D03*
D12*
X1284000Y876300D03*
X1256000Y876300D03*
X1185575Y555625D03*
X1157575Y555625D03*
X1185575Y660400D03*
X1157575Y660400D03*
X1185575Y774700D03*
X1157575Y774700D03*
D29*
X1155700Y425450D03*
X1181100Y425450D03*
D11*
X1358900Y439450D03*
X1358900Y411450D03*
X1384300Y439450D03*
X1384300Y411450D03*
X1412875Y439450D03*
X1412875Y411450D03*
D12*
X1553875Y501650D03*
X1525875Y501650D03*
X1297275Y488950D03*
X1325275Y488950D03*
X1372900Y641350D03*
X1344900Y641350D03*
D11*
X1270000Y313025D03*
X1270000Y341025D03*
D12*
X1392525Y82550D03*
X1420525Y82550D03*
D28*
X1244600Y749300D03*
X1244600Y736600D03*
X1244600Y723900D03*
X1244600Y711200D03*
X1189990Y749300D03*
X1189990Y736600D03*
X1189990Y723900D03*
X1189990Y711200D03*
X1244600Y641350D03*
X1244600Y628650D03*
X1244600Y615950D03*
X1244600Y603250D03*
X1189990Y641350D03*
X1189990Y628650D03*
X1189990Y615950D03*
X1189990Y603250D03*
X1244600Y533400D03*
X1244600Y520700D03*
X1244600Y508000D03*
X1244600Y495300D03*
X1189990Y533400D03*
X1189990Y520700D03*
X1189990Y508000D03*
X1189990Y495300D03*
D30*
X1246886Y372237D03*
X1270000Y372237D03*
X1293114Y372237D03*
D31*
X1270000Y434215D03*
D32*
X1537325Y539750D03*
X1504325Y539750D03*
D33*
X1041400Y482600D03*
X1028700Y533400D03*
X1016000Y584200D03*
D34*
X1416050Y246130D03*
X1416050Y274570D03*
X1387475Y236605D03*
X1387475Y265045D03*
X1358900Y236605D03*
X1358900Y265045D03*
D20*
X1500505Y450850D02*
X1515745Y450850D01*
X1515745Y425450D02*
X1500505Y425450D01*
X1500505Y400050D02*
X1515745Y400050D01*
X1515745Y374650D02*
X1500505Y374650D01*
X1506855Y679450D02*
X1522095Y679450D01*
X1522095Y654050D02*
X1506855Y654050D01*
X1506855Y628650D02*
X1522095Y628650D01*
X1522095Y603250D02*
X1506855Y603250D01*
D21*
X1525759Y270146D02*
X1536711Y270146D01*
X1536711Y249034D01*
X1525759Y249034D01*
X1525759Y270146D01*
X1525759Y252141D02*
X1536711Y252141D01*
X1536711Y255248D02*
X1525759Y255248D01*
X1525759Y258355D02*
X1536711Y258355D01*
X1536711Y261462D02*
X1525759Y261462D01*
X1525759Y264569D02*
X1536711Y264569D01*
X1536711Y267676D02*
X1525759Y267676D01*
X1513601Y270146D02*
X1502649Y270146D01*
X1513601Y270146D02*
X1513601Y249034D01*
X1502649Y249034D01*
X1502649Y270146D01*
X1502649Y252141D02*
X1513601Y252141D01*
X1513601Y255248D02*
X1502649Y255248D01*
X1502649Y258355D02*
X1513601Y258355D01*
X1513601Y261462D02*
X1502649Y261462D01*
X1502649Y264569D02*
X1513601Y264569D01*
X1513601Y267676D02*
X1502649Y267676D01*
X1490491Y270146D02*
X1479539Y270146D01*
X1490491Y270146D02*
X1490491Y249034D01*
X1479539Y249034D01*
X1479539Y270146D01*
X1479539Y252141D02*
X1490491Y252141D01*
X1490491Y255248D02*
X1479539Y255248D01*
X1479539Y258355D02*
X1490491Y258355D01*
X1490491Y261462D02*
X1479539Y261462D01*
X1479539Y264569D02*
X1490491Y264569D01*
X1490491Y267676D02*
X1479539Y267676D01*
D22*
X1491272Y207463D02*
X1524978Y207463D01*
X1524978Y187757D01*
X1491272Y187757D01*
X1491272Y207463D01*
X1491272Y191867D02*
X1524978Y191867D01*
X1524978Y195977D02*
X1491272Y195977D01*
X1491272Y200087D02*
X1524978Y200087D01*
X1524978Y204197D02*
X1491272Y204197D01*
D24*
X1412875Y487050D03*
X1407875Y487050D03*
X1402875Y487050D03*
X1397875Y487050D03*
X1392875Y487050D03*
X1387875Y487050D03*
X1417875Y487050D03*
X1422875Y487050D03*
X1427875Y487050D03*
X1432875Y487050D03*
X1437875Y487050D03*
X1382875Y487050D03*
X1412875Y572050D03*
X1417875Y572050D03*
X1422875Y572050D03*
X1427875Y572050D03*
X1437875Y572050D03*
X1432875Y572050D03*
X1407875Y572050D03*
X1402875Y572050D03*
X1397875Y572050D03*
X1392875Y572050D03*
X1387875Y572050D03*
X1382875Y572050D03*
D23*
X1367875Y527050D03*
X1367875Y522050D03*
X1367875Y517050D03*
X1367875Y512050D03*
X1367875Y507050D03*
X1367875Y502050D03*
X1367875Y532050D03*
X1367875Y537050D03*
X1367875Y542050D03*
X1367875Y547050D03*
X1367875Y552050D03*
X1367875Y557050D03*
X1452875Y502050D03*
X1452875Y507050D03*
X1452875Y512050D03*
X1452875Y517050D03*
X1452875Y522050D03*
X1452875Y527050D03*
X1452875Y537050D03*
X1452875Y532050D03*
X1452875Y542050D03*
X1452875Y547050D03*
X1452875Y552050D03*
X1452875Y557050D03*
D25*
G36*
X1155049Y297452D02*
X1135652Y316849D01*
X1155049Y336246D01*
X1174446Y316849D01*
X1155049Y297452D01*
G37*
D26*
X1179797Y292100D03*
X1204546Y267351D03*
X1229295Y242603D03*
X1254044Y217854D03*
X1278792Y193105D03*
X1130300Y292100D03*
X1155049Y267351D03*
X1179797Y242603D03*
X1204546Y217854D03*
X1229295Y193105D03*
X1254044Y168356D03*
D27*
X1065246Y326041D03*
X1287985Y103302D03*
D14*
X1416050Y123825D03*
X1403350Y123825D03*
X1390650Y123825D03*
X1377950Y123825D03*
X1416050Y178435D03*
X1403350Y178435D03*
X1390650Y178435D03*
X1377950Y178435D03*
D28*
X1244600Y800100D03*
X1244600Y812800D03*
X1244600Y825500D03*
X1244600Y838200D03*
X1299210Y800100D03*
X1299210Y812800D03*
X1299210Y825500D03*
X1299210Y838200D03*
X1155700Y533400D03*
X1155700Y520700D03*
X1155700Y508000D03*
X1155700Y495300D03*
X1101090Y533400D03*
X1101090Y520700D03*
X1101090Y508000D03*
X1101090Y495300D03*
X1155700Y641350D03*
X1155700Y628650D03*
X1155700Y615950D03*
X1155700Y603250D03*
X1101090Y641350D03*
X1101090Y628650D03*
X1101090Y615950D03*
X1101090Y603250D03*
X1155700Y749300D03*
X1155700Y736600D03*
X1155700Y723900D03*
X1155700Y711200D03*
X1101090Y749300D03*
X1101090Y736600D03*
X1101090Y723900D03*
X1101090Y711200D03*
D12*
X1325275Y1416050D03*
X1297275Y1416050D03*
D11*
X1323975Y1217325D03*
X1323975Y1189325D03*
D12*
X1284000Y1828800D03*
X1256000Y1828800D03*
X1185575Y1508125D03*
X1157575Y1508125D03*
X1185575Y1612900D03*
X1157575Y1612900D03*
X1185575Y1727200D03*
X1157575Y1727200D03*
D29*
X1155700Y1377950D03*
X1181100Y1377950D03*
D11*
X1358900Y1391950D03*
X1358900Y1363950D03*
X1384300Y1391950D03*
X1384300Y1363950D03*
X1412875Y1391950D03*
X1412875Y1363950D03*
D12*
X1553875Y1454150D03*
X1525875Y1454150D03*
X1297275Y1441450D03*
X1325275Y1441450D03*
X1372900Y1593850D03*
X1344900Y1593850D03*
D11*
X1270000Y1265525D03*
X1270000Y1293525D03*
D12*
X1392525Y1035050D03*
X1420525Y1035050D03*
D28*
X1244600Y1701800D03*
X1244600Y1689100D03*
X1244600Y1676400D03*
X1244600Y1663700D03*
X1189990Y1701800D03*
X1189990Y1689100D03*
X1189990Y1676400D03*
X1189990Y1663700D03*
X1244600Y1593850D03*
X1244600Y1581150D03*
X1244600Y1568450D03*
X1244600Y1555750D03*
X1189990Y1593850D03*
X1189990Y1581150D03*
X1189990Y1568450D03*
X1189990Y1555750D03*
X1244600Y1485900D03*
X1244600Y1473200D03*
X1244600Y1460500D03*
X1244600Y1447800D03*
X1189990Y1485900D03*
X1189990Y1473200D03*
X1189990Y1460500D03*
X1189990Y1447800D03*
D30*
X1246886Y1324737D03*
X1270000Y1324737D03*
X1293114Y1324737D03*
D31*
X1270000Y1386715D03*
D32*
X1537325Y1492250D03*
X1504325Y1492250D03*
D33*
X1041400Y1435100D03*
X1028700Y1485900D03*
X1016000Y1536700D03*
D34*
X1416050Y1198630D03*
X1416050Y1227070D03*
X1387475Y1189105D03*
X1387475Y1217545D03*
X1358900Y1189105D03*
X1358900Y1217545D03*
D20*
X1500505Y1403350D02*
X1515745Y1403350D01*
X1515745Y1377950D02*
X1500505Y1377950D01*
X1500505Y1352550D02*
X1515745Y1352550D01*
X1515745Y1327150D02*
X1500505Y1327150D01*
X1506855Y1631950D02*
X1522095Y1631950D01*
X1522095Y1606550D02*
X1506855Y1606550D01*
X1506855Y1581150D02*
X1522095Y1581150D01*
X1522095Y1555750D02*
X1506855Y1555750D01*
D21*
X1525759Y1222646D02*
X1536711Y1222646D01*
X1536711Y1201534D01*
X1525759Y1201534D01*
X1525759Y1222646D01*
X1525759Y1204641D02*
X1536711Y1204641D01*
X1536711Y1207748D02*
X1525759Y1207748D01*
X1525759Y1210855D02*
X1536711Y1210855D01*
X1536711Y1213962D02*
X1525759Y1213962D01*
X1525759Y1217069D02*
X1536711Y1217069D01*
X1536711Y1220176D02*
X1525759Y1220176D01*
X1513601Y1222646D02*
X1502649Y1222646D01*
X1513601Y1222646D02*
X1513601Y1201534D01*
X1502649Y1201534D01*
X1502649Y1222646D01*
X1502649Y1204641D02*
X1513601Y1204641D01*
X1513601Y1207748D02*
X1502649Y1207748D01*
X1502649Y1210855D02*
X1513601Y1210855D01*
X1513601Y1213962D02*
X1502649Y1213962D01*
X1502649Y1217069D02*
X1513601Y1217069D01*
X1513601Y1220176D02*
X1502649Y1220176D01*
X1490491Y1222646D02*
X1479539Y1222646D01*
X1490491Y1222646D02*
X1490491Y1201534D01*
X1479539Y1201534D01*
X1479539Y1222646D01*
X1479539Y1204641D02*
X1490491Y1204641D01*
X1490491Y1207748D02*
X1479539Y1207748D01*
X1479539Y1210855D02*
X1490491Y1210855D01*
X1490491Y1213962D02*
X1479539Y1213962D01*
X1479539Y1217069D02*
X1490491Y1217069D01*
X1490491Y1220176D02*
X1479539Y1220176D01*
D22*
X1491272Y1159963D02*
X1524978Y1159963D01*
X1524978Y1140257D01*
X1491272Y1140257D01*
X1491272Y1159963D01*
X1491272Y1144367D02*
X1524978Y1144367D01*
X1524978Y1148477D02*
X1491272Y1148477D01*
X1491272Y1152587D02*
X1524978Y1152587D01*
X1524978Y1156697D02*
X1491272Y1156697D01*
D24*
X1412875Y1439550D03*
X1407875Y1439550D03*
X1402875Y1439550D03*
X1397875Y1439550D03*
X1392875Y1439550D03*
X1387875Y1439550D03*
X1417875Y1439550D03*
X1422875Y1439550D03*
X1427875Y1439550D03*
X1432875Y1439550D03*
X1437875Y1439550D03*
X1382875Y1439550D03*
X1412875Y1524550D03*
X1417875Y1524550D03*
X1422875Y1524550D03*
X1427875Y1524550D03*
X1437875Y1524550D03*
X1432875Y1524550D03*
X1407875Y1524550D03*
X1402875Y1524550D03*
X1397875Y1524550D03*
X1392875Y1524550D03*
X1387875Y1524550D03*
X1382875Y1524550D03*
D23*
X1367875Y1479550D03*
X1367875Y1474550D03*
X1367875Y1469550D03*
X1367875Y1464550D03*
X1367875Y1459550D03*
X1367875Y1454550D03*
X1367875Y1484550D03*
X1367875Y1489550D03*
X1367875Y1494550D03*
X1367875Y1499550D03*
X1367875Y1504550D03*
X1367875Y1509550D03*
X1452875Y1454550D03*
X1452875Y1459550D03*
X1452875Y1464550D03*
X1452875Y1469550D03*
X1452875Y1474550D03*
X1452875Y1479550D03*
X1452875Y1489550D03*
X1452875Y1484550D03*
X1452875Y1494550D03*
X1452875Y1499550D03*
X1452875Y1504550D03*
X1452875Y1509550D03*
D25*
G36*
X1155049Y1249952D02*
X1135652Y1269349D01*
X1155049Y1288746D01*
X1174446Y1269349D01*
X1155049Y1249952D01*
G37*
D26*
X1179797Y1244600D03*
X1204546Y1219851D03*
X1229295Y1195103D03*
X1254044Y1170354D03*
X1278792Y1145605D03*
X1130300Y1244600D03*
X1155049Y1219851D03*
X1179797Y1195103D03*
X1204546Y1170354D03*
X1229295Y1145605D03*
X1254044Y1120856D03*
D27*
X1065246Y1278541D03*
X1287985Y1055802D03*
D14*
X1416050Y1076325D03*
X1403350Y1076325D03*
X1390650Y1076325D03*
X1377950Y1076325D03*
X1416050Y1130935D03*
X1403350Y1130935D03*
X1390650Y1130935D03*
X1377950Y1130935D03*
D28*
X1244600Y1752600D03*
X1244600Y1765300D03*
X1244600Y1778000D03*
X1244600Y1790700D03*
X1299210Y1752600D03*
X1299210Y1765300D03*
X1299210Y1778000D03*
X1299210Y1790700D03*
X1155700Y1485900D03*
X1155700Y1473200D03*
X1155700Y1460500D03*
X1155700Y1447800D03*
X1101090Y1485900D03*
X1101090Y1473200D03*
X1101090Y1460500D03*
X1101090Y1447800D03*
X1155700Y1593850D03*
X1155700Y1581150D03*
X1155700Y1568450D03*
X1155700Y1555750D03*
X1101090Y1593850D03*
X1101090Y1581150D03*
X1101090Y1568450D03*
X1101090Y1555750D03*
X1155700Y1701800D03*
X1155700Y1689100D03*
X1155700Y1676400D03*
X1155700Y1663700D03*
X1101090Y1701800D03*
X1101090Y1689100D03*
X1101090Y1676400D03*
X1101090Y1663700D03*
D35*
X507525Y151925D03*
X465850Y146925D03*
X288925Y139700D03*
X514350Y234950D03*
X473075Y206375D03*
X371514Y158719D03*
X552450Y25400D03*
X663575Y200025D03*
X288925Y127000D03*
X520700Y187325D03*
X577850Y228600D03*
X812800Y247650D03*
X568325Y238125D03*
X790575Y352425D03*
X561975Y247650D03*
X812800Y365125D03*
X358775Y387350D03*
X346075Y337439D03*
X539750Y98425D03*
X552850Y186925D03*
X537050Y190975D03*
X504825Y139700D03*
X82550Y212725D03*
X184150Y212725D03*
X295275Y88900D03*
X339725Y244475D03*
X507525Y774225D03*
X465850Y769225D03*
X288925Y762000D03*
X514350Y857250D03*
X473075Y828675D03*
X371514Y781019D03*
X552450Y647700D03*
X663575Y822325D03*
X288925Y749300D03*
X520700Y809625D03*
X577850Y850900D03*
X812800Y869950D03*
X568325Y860425D03*
X790575Y974725D03*
X561975Y869950D03*
X812800Y987425D03*
X358775Y1009650D03*
X346075Y959739D03*
X539750Y720725D03*
X552850Y809225D03*
X537050Y813275D03*
X504825Y762000D03*
X82550Y835025D03*
X184150Y835025D03*
X295275Y711200D03*
X339725Y866775D03*
X507525Y1396525D03*
X465850Y1391525D03*
X288925Y1384300D03*
X514350Y1479550D03*
X473075Y1450975D03*
X371514Y1403319D03*
X552450Y1270000D03*
X663575Y1444625D03*
X288925Y1371600D03*
X520700Y1431925D03*
X577850Y1473200D03*
X812800Y1492250D03*
X568325Y1482725D03*
X790575Y1597025D03*
X561975Y1492250D03*
X812800Y1609725D03*
X358775Y1631950D03*
X346075Y1582039D03*
X539750Y1343025D03*
X552850Y1431525D03*
X537050Y1435575D03*
X504825Y1384300D03*
X82550Y1457325D03*
X184150Y1457325D03*
X295275Y1333500D03*
X339725Y1489075D03*
X1422875Y507525D03*
X1427875Y465850D03*
X1435100Y288925D03*
X1339850Y514350D03*
X1368425Y473075D03*
X1416081Y371514D03*
X1549400Y552450D03*
X1374775Y663575D03*
X1447800Y288925D03*
X1387475Y520700D03*
X1346200Y577850D03*
X1327150Y812800D03*
X1336675Y568325D03*
X1222375Y790575D03*
X1327150Y561975D03*
X1209675Y812800D03*
X1187450Y358775D03*
X1237361Y346075D03*
X1476375Y539750D03*
X1387875Y552850D03*
X1383825Y537050D03*
X1435100Y504825D03*
X1362075Y82550D03*
X1362075Y184150D03*
X1485900Y295275D03*
X1330325Y339725D03*
X1422875Y1460025D03*
X1427875Y1418350D03*
X1435100Y1241425D03*
X1339850Y1466850D03*
X1368425Y1425575D03*
X1416081Y1324014D03*
X1549400Y1504950D03*
X1374775Y1616075D03*
X1447800Y1241425D03*
X1387475Y1473200D03*
X1346200Y1530350D03*
X1327150Y1765300D03*
X1336675Y1520825D03*
X1222375Y1743075D03*
X1327150Y1514475D03*
X1209675Y1765300D03*
X1187450Y1311275D03*
X1237361Y1298575D03*
X1476375Y1492250D03*
X1387875Y1505350D03*
X1383825Y1489550D03*
X1435100Y1457325D03*
X1362075Y1035050D03*
X1362075Y1136650D03*
X1485900Y1247775D03*
X1330325Y1292225D03*
M02*
