G04 EAGLE Gerber RS-274X export*
G75*
%MOMM*%
%FSLAX34Y34*%
%LPD*%
%INSoldermask Bottom*%
%IPPOS*%
%AMOC8*
5,1,8,0,0,1.08239X$1,22.5*%
G01*
%ADD10C,4.203200*%
%ADD11P,1.951982X8X292.500000*%
%ADD12P,4.343848X8X22.500000*%
%ADD13C,1.727200*%
%ADD14R,2.743200X2.743200*%
%ADD15C,2.743200*%
%ADD16C,4.191000*%
%ADD17P,1.951982X8X22.500000*%
%ADD18P,4.343848X8X112.500000*%
%ADD19C,0.959600*%


D10*
X886500Y474600D03*
X886500Y124600D03*
X411500Y549600D03*
X61500Y49600D03*
X886500Y1096900D03*
X886500Y746900D03*
X411500Y1171900D03*
X61500Y671900D03*
X886500Y1719200D03*
X886500Y1369200D03*
X411500Y1794200D03*
X61500Y1294200D03*
X1100200Y886500D03*
X1450200Y886500D03*
X1025200Y411500D03*
X1525200Y61500D03*
X1100200Y1839000D03*
X1450200Y1839000D03*
X1025200Y1364000D03*
X1525200Y1014000D03*
D11*
X425450Y419100D03*
X425450Y393700D03*
D12*
X482600Y533400D03*
X533400Y546100D03*
X584200Y558800D03*
D13*
X450850Y74295D02*
X450850Y59055D01*
X425450Y59055D02*
X425450Y74295D01*
X400050Y74295D02*
X400050Y59055D01*
X374650Y59055D02*
X374650Y74295D01*
X679450Y67945D02*
X679450Y52705D01*
X654050Y52705D02*
X654050Y67945D01*
X628650Y67945D02*
X628650Y52705D01*
X603250Y52705D02*
X603250Y67945D01*
D14*
G36*
X297452Y419751D02*
X316849Y439148D01*
X336246Y419751D01*
X316849Y400354D01*
X297452Y419751D01*
G37*
D15*
X292100Y395003D03*
X267351Y370254D03*
X242603Y345505D03*
X217854Y320756D03*
X193105Y296008D03*
X292100Y444500D03*
X267351Y419751D03*
X242603Y395003D03*
X217854Y370254D03*
X193105Y345505D03*
X168356Y320756D03*
D16*
X326041Y509554D03*
X103302Y286815D03*
D11*
X425450Y1041400D03*
X425450Y1016000D03*
D12*
X482600Y1155700D03*
X533400Y1168400D03*
X584200Y1181100D03*
D13*
X450850Y696595D02*
X450850Y681355D01*
X425450Y681355D02*
X425450Y696595D01*
X400050Y696595D02*
X400050Y681355D01*
X374650Y681355D02*
X374650Y696595D01*
X679450Y690245D02*
X679450Y675005D01*
X654050Y675005D02*
X654050Y690245D01*
X628650Y690245D02*
X628650Y675005D01*
X603250Y675005D02*
X603250Y690245D01*
D14*
G36*
X297452Y1042051D02*
X316849Y1061448D01*
X336246Y1042051D01*
X316849Y1022654D01*
X297452Y1042051D01*
G37*
D15*
X292100Y1017303D03*
X267351Y992554D03*
X242603Y967805D03*
X217854Y943056D03*
X193105Y918308D03*
X292100Y1066800D03*
X267351Y1042051D03*
X242603Y1017303D03*
X217854Y992554D03*
X193105Y967805D03*
X168356Y943056D03*
D16*
X326041Y1131854D03*
X103302Y909115D03*
D11*
X425450Y1663700D03*
X425450Y1638300D03*
D12*
X482600Y1778000D03*
X533400Y1790700D03*
X584200Y1803400D03*
D13*
X450850Y1318895D02*
X450850Y1303655D01*
X425450Y1303655D02*
X425450Y1318895D01*
X400050Y1318895D02*
X400050Y1303655D01*
X374650Y1303655D02*
X374650Y1318895D01*
X679450Y1312545D02*
X679450Y1297305D01*
X654050Y1297305D02*
X654050Y1312545D01*
X628650Y1312545D02*
X628650Y1297305D01*
X603250Y1297305D02*
X603250Y1312545D01*
D14*
G36*
X297452Y1664351D02*
X316849Y1683748D01*
X336246Y1664351D01*
X316849Y1644954D01*
X297452Y1664351D01*
G37*
D15*
X292100Y1639603D03*
X267351Y1614854D03*
X242603Y1590105D03*
X217854Y1565356D03*
X193105Y1540608D03*
X292100Y1689100D03*
X267351Y1664351D03*
X242603Y1639603D03*
X217854Y1614854D03*
X193105Y1590105D03*
X168356Y1565356D03*
D16*
X326041Y1754154D03*
X103302Y1531415D03*
D17*
X1155700Y425450D03*
X1181100Y425450D03*
D18*
X1041400Y482600D03*
X1028700Y533400D03*
X1016000Y584200D03*
D13*
X1500505Y450850D02*
X1515745Y450850D01*
X1515745Y425450D02*
X1500505Y425450D01*
X1500505Y400050D02*
X1515745Y400050D01*
X1515745Y374650D02*
X1500505Y374650D01*
X1506855Y679450D02*
X1522095Y679450D01*
X1522095Y654050D02*
X1506855Y654050D01*
X1506855Y628650D02*
X1522095Y628650D01*
X1522095Y603250D02*
X1506855Y603250D01*
D14*
G36*
X1155049Y297452D02*
X1135652Y316849D01*
X1155049Y336246D01*
X1174446Y316849D01*
X1155049Y297452D01*
G37*
D15*
X1179797Y292100D03*
X1204546Y267351D03*
X1229295Y242603D03*
X1254044Y217854D03*
X1278792Y193105D03*
X1130300Y292100D03*
X1155049Y267351D03*
X1179797Y242603D03*
X1204546Y217854D03*
X1229295Y193105D03*
X1254044Y168356D03*
D16*
X1065246Y326041D03*
X1287985Y103302D03*
D17*
X1155700Y1377950D03*
X1181100Y1377950D03*
D18*
X1041400Y1435100D03*
X1028700Y1485900D03*
X1016000Y1536700D03*
D13*
X1500505Y1403350D02*
X1515745Y1403350D01*
X1515745Y1377950D02*
X1500505Y1377950D01*
X1500505Y1352550D02*
X1515745Y1352550D01*
X1515745Y1327150D02*
X1500505Y1327150D01*
X1506855Y1631950D02*
X1522095Y1631950D01*
X1522095Y1606550D02*
X1506855Y1606550D01*
X1506855Y1581150D02*
X1522095Y1581150D01*
X1522095Y1555750D02*
X1506855Y1555750D01*
D14*
G36*
X1155049Y1249952D02*
X1135652Y1269349D01*
X1155049Y1288746D01*
X1174446Y1269349D01*
X1155049Y1249952D01*
G37*
D15*
X1179797Y1244600D03*
X1204546Y1219851D03*
X1229295Y1195103D03*
X1254044Y1170354D03*
X1278792Y1145605D03*
X1130300Y1244600D03*
X1155049Y1219851D03*
X1179797Y1195103D03*
X1204546Y1170354D03*
X1229295Y1145605D03*
X1254044Y1120856D03*
D16*
X1065246Y1278541D03*
X1287985Y1055802D03*
D19*
X507525Y151925D03*
X465850Y146925D03*
X288925Y139700D03*
X514350Y234950D03*
X473075Y206375D03*
X371514Y158719D03*
X552450Y25400D03*
X663575Y200025D03*
X288925Y127000D03*
X520700Y187325D03*
X577850Y228600D03*
X812800Y247650D03*
X568325Y238125D03*
X790575Y352425D03*
X561975Y247650D03*
X812800Y365125D03*
X358775Y387350D03*
X346075Y337439D03*
X539750Y98425D03*
X552850Y186925D03*
X537050Y190975D03*
X504825Y139700D03*
X82550Y212725D03*
X184150Y212725D03*
X295275Y88900D03*
X339725Y244475D03*
X507525Y774225D03*
X465850Y769225D03*
X288925Y762000D03*
X514350Y857250D03*
X473075Y828675D03*
X371514Y781019D03*
X552450Y647700D03*
X663575Y822325D03*
X288925Y749300D03*
X520700Y809625D03*
X577850Y850900D03*
X812800Y869950D03*
X568325Y860425D03*
X790575Y974725D03*
X561975Y869950D03*
X812800Y987425D03*
X358775Y1009650D03*
X346075Y959739D03*
X539750Y720725D03*
X552850Y809225D03*
X537050Y813275D03*
X504825Y762000D03*
X82550Y835025D03*
X184150Y835025D03*
X295275Y711200D03*
X339725Y866775D03*
X507525Y1396525D03*
X465850Y1391525D03*
X288925Y1384300D03*
X514350Y1479550D03*
X473075Y1450975D03*
X371514Y1403319D03*
X552450Y1270000D03*
X663575Y1444625D03*
X288925Y1371600D03*
X520700Y1431925D03*
X577850Y1473200D03*
X812800Y1492250D03*
X568325Y1482725D03*
X790575Y1597025D03*
X561975Y1492250D03*
X812800Y1609725D03*
X358775Y1631950D03*
X346075Y1582039D03*
X539750Y1343025D03*
X552850Y1431525D03*
X537050Y1435575D03*
X504825Y1384300D03*
X82550Y1457325D03*
X184150Y1457325D03*
X295275Y1333500D03*
X339725Y1489075D03*
X1422875Y507525D03*
X1427875Y465850D03*
X1435100Y288925D03*
X1339850Y514350D03*
X1368425Y473075D03*
X1416081Y371514D03*
X1549400Y552450D03*
X1374775Y663575D03*
X1447800Y288925D03*
X1387475Y520700D03*
X1346200Y577850D03*
X1327150Y812800D03*
X1336675Y568325D03*
X1222375Y790575D03*
X1327150Y561975D03*
X1209675Y812800D03*
X1187450Y358775D03*
X1237361Y346075D03*
X1476375Y539750D03*
X1387875Y552850D03*
X1383825Y537050D03*
X1435100Y504825D03*
X1362075Y82550D03*
X1362075Y184150D03*
X1485900Y295275D03*
X1330325Y339725D03*
X1422875Y1460025D03*
X1427875Y1418350D03*
X1435100Y1241425D03*
X1339850Y1466850D03*
X1368425Y1425575D03*
X1416081Y1324014D03*
X1549400Y1504950D03*
X1374775Y1616075D03*
X1447800Y1241425D03*
X1387475Y1473200D03*
X1346200Y1530350D03*
X1327150Y1765300D03*
X1336675Y1520825D03*
X1222375Y1743075D03*
X1327150Y1514475D03*
X1209675Y1765300D03*
X1187450Y1311275D03*
X1237361Y1298575D03*
X1476375Y1492250D03*
X1387875Y1505350D03*
X1383825Y1489550D03*
X1435100Y1457325D03*
X1362075Y1035050D03*
X1362075Y1136650D03*
X1485900Y1247775D03*
X1330325Y1292225D03*
M02*
