M48
;GenerationSoftware,Autodesk,EAGLE,9.2.2*%
;CreationDate,2019-02-08T09:12:39Z*%
FMAT,2
ICI,OFF
METRIC,TZ,000.000
T7C0.350
T6C0.813
T5C1.000
T4C1.016
T3C1.397
T2C3.988
T1C4.000
%
G90
M71
T1
X41150Y54960
X88650Y47460
X88650Y12460
X6150Y4960
X88650Y109690
X88650Y74690
X41150Y117190
X6150Y67190
X88650Y171920
X88650Y136920
X41150Y179420
X6150Y129420
X110020Y88650
X145020Y88650
X102520Y41150
X152520Y6150
X110020Y183900
X145020Y183900
X102520Y136400
X152520Y101400
T2
X32604Y50955
X10330Y28682
X32604Y113185
X10330Y90912
X32604Y175415
X10330Y153142
X106525Y32604
X128798Y10330
X106525Y127854
X128798Y105580
T3
X58420Y55880
X58420Y180340
X53340Y179070
X48260Y177800
X102870Y53340
X104140Y48260
X101600Y153670
X102870Y148590
X104140Y143510
X58420Y118110
X48260Y53340
X53340Y54610
X101600Y58420
X53340Y116840
X48260Y115570
T4
X60325Y6032
X62865Y6032
X65405Y6032
X67945Y6032
X37465Y6667
X40005Y6667
X42545Y6667
X45085Y6667
X45085Y131128
X45085Y68898
X42545Y68898
X150813Y45085
X150813Y42545
X40005Y68898
X150813Y37465
X151448Y67945
X151448Y65405
X151448Y62865
X151448Y60325
X37465Y68898
X67945Y68263
X65405Y68263
X150813Y140335
X150813Y137795
X150813Y135255
X150813Y132715
X151448Y163195
X151448Y160655
X151448Y158115
X151448Y155575
X42545Y131128
X40005Y131128
X37465Y131128
X67945Y130492
X65405Y130492
X62865Y130492
X60325Y130492
X62865Y68263
X60325Y68263
X150813Y40005
T5
X125404Y112086
X19311Y154061
X122929Y114561
X120455Y117035
X117980Y119510
X115505Y121985
X113030Y124460
X127879Y114561
X125404Y117035
X122929Y119510
X120455Y121985
X117980Y124460
X115505Y126935
X31685Y41975
X29210Y39500
X125404Y16836
X122929Y19311
X120455Y21785
X117980Y24260
X115505Y26735
X113030Y29210
X127879Y19311
X125404Y21785
X122929Y24260
X120455Y26735
X117980Y29210
X115505Y31685
X26735Y37025
X24260Y34551
X16836Y156536
X19311Y159011
X21785Y161485
X24260Y163960
X26735Y166435
X29210Y168910
X21785Y32076
X21785Y156536
X24260Y159011
X26735Y161485
X29210Y163960
X31685Y166435
X19311Y29601
X29210Y44450
X16836Y94306
X19311Y96781
X21785Y99255
X24260Y101730
X26735Y104205
X29210Y106680
X19311Y91831
X21785Y94306
X24260Y96781
X26735Y99255
X29210Y101730
X31685Y104205
X26735Y41975
X16836Y32076
X19311Y34551
X21785Y37025
X24260Y39500
T6
X42545Y101600
X42545Y166370
X42545Y163830
X42545Y104140
X115570Y42545
X118110Y42545
X115570Y137795
X118110Y137795
X42545Y39370
X42545Y41910
T7
X28892Y137160
X66358Y144463
X55245Y127000
X37151Y140332
X47307Y145098
X52070Y143193
X57785Y147320
X51435Y147955
X28892Y138430
X46585Y139153
X50752Y139653
X33973Y86678
X29527Y71120
X18415Y83503
X8255Y83503
X50482Y76200
X53705Y81328
X55285Y80923
X81280Y149225
X56832Y148273
X79058Y159703
X56197Y149225
X81280Y160973
X35878Y163195
X34608Y158204
X53975Y134303
X55285Y143153
X53705Y143558
X137478Y66358
X50482Y138430
X144780Y28892
X8255Y145733
X53975Y72073
X34608Y95974
X35878Y100965
X81280Y98742
X56197Y86995
X79058Y97472
X56832Y86043
X81280Y86995
X57785Y85090
X52070Y80963
X28892Y74930
X18415Y145733
X29527Y133350
X33973Y148908
X142288Y50752
X142788Y46585
X143510Y28892
X133985Y51435
X136843Y47307
X141608Y37151
X154940Y55245
X133033Y129222
X148590Y124777
X136208Y113665
X136208Y103505
X66358Y82233
X55245Y64770
X37151Y78102
X47307Y82868
X51435Y85725
X28892Y76200
X46585Y76923
X50752Y77423
X33973Y24447
X29527Y8890
X18415Y21273
X143510Y145733
X138383Y148955
X138788Y150535
X147638Y149225
X123736Y129857
X118745Y131128
X120967Y176530
X132715Y151448
X122237Y174308
X133668Y152083
X132715Y176530
X134620Y153035
X138748Y147320
X144780Y124142
X8255Y21273
X50482Y13970
X53705Y19098
X55285Y18693
X53975Y9843
X34608Y33744
X35878Y38735
X81280Y36513
X56197Y24765
X79058Y35243
X56832Y23812
X137478Y161608
X154940Y150495
X141608Y132401
X136843Y142558
X133985Y146685
X143510Y124142
X142788Y141835
X142288Y146003
X133033Y33973
X148590Y29527
X136208Y18415
X136208Y8255
X143510Y50482
X138383Y53705
X81280Y24765
X57785Y22860
X52070Y18733
X28892Y12700
X66358Y20003
X55245Y2540
X37151Y15872
X47307Y20638
X51435Y23495
X28892Y13970
X46585Y14692
X138788Y55285
X147638Y53975
X123736Y34608
X118745Y35878
X120967Y81280
X132715Y56197
X122237Y79058
X133668Y56832
X132715Y81280
X134620Y57785
X138748Y52070
X50752Y15192
M30