M48
;GenerationSoftware,Autodesk,EAGLE,9.2.2*%
;CreationDate,2019-01-13T17:55:53Z*%
FMAT,2
ICI,OFF
METRIC,TZ,000.000
T1C1.016
%
G90
M71
T1
X25400Y5080
X25400Y7620
X25400Y10160
X25400Y12700
X25400Y15240
X25400Y17780
X25400Y20320
X25400Y22860
X25400Y25400
X25400Y27940
X25400Y30480
X25400Y33020
X25400Y35560
X25400Y38100
X25400Y2540
X25400Y0
X25400Y-2540
X25400Y-5080
X25400Y-7620
X25400Y-10160
X25400Y-12700
X25400Y-15240
X25400Y-17780
X25400Y-20320
X5080Y10160
X5080Y12700
X5080Y15240
X5080Y17780
X5080Y20320
X5080Y22860
X5080Y25400
X5080Y27940
X5080Y30480
X5080Y33020
X5080Y35560
X5080Y38100
X5080Y7620
X5080Y5080
X5080Y2540
X5080Y0
X5080Y-2540
X5080Y-5080
X5080Y-7620
X5080Y-10160
X5080Y-12700
X5080Y-15240
X5080Y-17780
X5080Y-20320
M30